<svg version="1.1" xmlns="http://www.w3.org/2000/svg" xmlns:xlink="http://www.w3.org/1999/xlink" width="327.92569" height="19.31025" viewBox="0,0,327.92569,19.31025"><defs><linearGradient x1="239.59543" y1="171.87086" x2="239.59543" y2="191.18111" gradientUnits="userSpaceOnUse" id="color-1"><stop offset="0" stop-color="#3a62a1"/><stop offset="1" stop-color="#163076"/></linearGradient></defs><g transform="translate(-75.63255,-171.87086)"><g data-paper-data="{&quot;isPaintingLayer&quot;:true}" stroke="none" stroke-linejoin="miter" stroke-miterlimit="10" stroke-dasharray="" stroke-dashoffset="0" style="mix-blend-mode: normal"><path d="M75.63255,173.43552c0,-0.75368 0.55263,-1.56466 3.20262,-1.56466l321.72008,0.2c1.27234,0 3.00299,1.00274 3.00299,1.36466v16.38093c0,0.75368 -0.15408,1.36466 -2.8038,1.36466c0,0 -205.24709,0 -261.79058,0c-3.13129,0 -6.34197,0 -9.572,0c-24.71939,0 -50.55656,0 -50.55656,0c-2.64963,0 -3.20262,-0.61098 -3.20262,-1.36466z" fill="url(#color-1)" fill-rule="evenodd" stroke-width="2" stroke-linecap="square"/><text transform="translate(209.03359,183.65988) scale(0.29448,0.30499)" font-size="40" xml:space="preserve" fill="#ffffff" fill-rule="nonzero" stroke="none" stroke-width="1" stroke-linecap="butt" stroke-linejoin="miter" stroke-miterlimit="10" stroke-dasharray="" stroke-dashoffset="0" font-family="&quot;ヒラギノ角ゴ Pro W3&quot;, &quot;Hiragino Kaku Gothic Pro&quot;, Osaka, &quot;メイリオ&quot;, Meiryo, &quot;ＭＳ Ｐゴシック&quot;, &quot;MS PGothic&quot;" font-weight="normal" text-anchor="start" style="mix-blend-mode: normal"><tspan x="0" dy="0">45MB/45MB</tspan></text></g></g></svg>