<svg xmlns:xlink="http://www.w3.org/1999/xlink" xmlns="http://www.w3.org/2000/svg" version="1.1" viewBox="0.0 0.0 960.0 720.0" fill="none" stroke="none" stroke-linecap="square" stroke-miterlimit="10"><clipPath id="p.0"><path d="m0 0l960.0 0l0 720.0l-960.0 0l0 -720.0z" clip-rule="nonzero"/></clipPath><g clip-path="url(#p.0)"><path fill="#000000" fill-opacity="0.0" d="m0 0l960.0 0l0 720.0l-960.0 0z" fill-rule="evenodd"/><path fill="#000000" fill-opacity="0.0" d="m54.842518 253.12599l842.3307 0l0 54.929123l-842.3307 0z" fill-rule="evenodd"/><path fill="#000000" d="m64.5769 278.5516l6.453125 0l0 2.9375l-6.453125 0l0 -2.9375zm13.106094 12.03125q-2.34375 0 -3.578125 -1.328125q-1.234375 -1.34375 -1.234375 -3.84375l0 -1.609375l3.0625 0l0 1.84375q0 2.0 1.671875 2.0q1.671875 0 1.671875 -2.0l0 -4.59375q0 -2.03125 -1.671875 -2.03125q-1.671875 0 -1.671875 2.03125l0 0.171875l-3.0625 0l0.59375 -11.46875l8.5 0l0 2.9375l-5.625 0l-0.265625 4.890625l0.0625 0q0.90625 -1.484375 2.78125 -1.484375q1.765625 0 2.671875 1.203125q0.90625 1.1875 0.90625 3.484375l0 4.625q0 2.5 -1.234375 3.84375q-1.234375 1.328125 -3.578125 1.328125zm11.668747 0q-2.375 0 -3.640625 -1.34375q-1.25 -1.359375 -1.25 -3.828125l0 -10.78125q0 -2.46875 1.25 -3.8125q1.265625 -1.359375 3.640625 -1.359375q2.375 0 3.640625 1.359375q1.265625 1.34375 1.265625 3.8125l0 10.78125q0 2.46875 -1.265625 3.828125q-1.265625 1.34375 -3.640625 1.34375zm0 -2.9375q1.671875 0 1.671875 -2.015625l0 -11.203125q0 -2.03125 -1.671875 -2.03125q-1.671875 0 -1.671875 2.03125l0 11.203125q0 2.015625 1.671875 2.015625zm10.012497 -6.484375q-1.53125 0 -2.328125 -0.84375q-0.78125 -0.859375 -0.78125 -2.4375l0 -5.125q0 -1.59375 0.78125 -2.4375q0.796875 -0.859375 2.328125 -0.859375q1.515625 0 2.3125 0.859375q0.796875 0.84375 0.796875 2.4375l0 5.125q0 1.578125 -0.796875 2.4375q-0.796875 0.84375 -2.3125 0.84375zm7.4375 -11.40625l2.0625 0l-7.953125 20.53125l-2.046875 0l7.9375 -20.53125zm-7.4375 9.5625q1.046875 0 1.046875 -1.296875l0 -5.421875q0 -1.28125 -1.046875 -1.28125q-1.0625 0 -1.0625 1.28125l0 5.421875q0 1.296875 1.0625 1.296875zm9.0 11.265625q-1.53125 0 -2.328125 -0.84375q-0.78125 -0.859375 -0.78125 -2.4375l0 -5.140625q0 -1.578125 0.78125 -2.421875q0.796875 -0.859375 2.328125 -0.859375q1.515625 0 2.3125 0.859375q0.796875 0.84375 0.796875 2.421875l0 5.140625q0 1.578125 -0.796875 2.4375q-0.796875 0.84375 -2.3125 0.84375zm0 -1.84375q1.046875 0 1.046875 -1.296875l0 -5.421875q0 -1.296875 -1.046875 -1.296875q-1.0625 0 -1.0625 1.296875l0 5.421875q0 1.296875 1.0625 1.296875z" fill-rule="nonzero"/></g></svg>