<svg version="1.1" xmlns="http://www.w3.org/2000/svg" xmlns:xlink="http://www.w3.org/1999/xlink" width="215.19286" height="19.31025" viewBox="0,0,215.19286,19.31025"><defs><linearGradient x1="147.92876" y1="171.87086" x2="147.92876" y2="191.18111" gradientUnits="userSpaceOnUse" id="color-1"><stop offset="0" stop-color="#3a62a1"/><stop offset="1" stop-color="#163076"/></linearGradient></defs><g transform="translate(-75.63255,-171.87086)"><g data-paper-data="{&quot;isPaintingLayer&quot;:true}" stroke="none" stroke-linejoin="miter" stroke-miterlimit="10" stroke-dasharray="" stroke-dashoffset="0" style="mix-blend-mode: normal"><path d="M75.63255,173.43552c0,-0.75368 0.24366,-1.56466 1.41215,-1.56466l141.85614,0.2c0.56102,0 1.32411,1.00274 1.32411,1.36466v16.38093c0,0.75368 -0.06793,1.36466 -1.23629,1.36466c0,0 -90.49966,0 -115.43141,0c-1.3807,0 -2.79637,0 -4.22058,0c-10.89951,0 -22.29192,0 -22.29192,0c-1.16831,0 -1.41215,-0.61098 -1.41215,-1.36466z" fill="url(#color-1)" fill-rule="evenodd" stroke-width="2" stroke-linecap="square"/><text transform="translate(189.61632,183.65988) scale(0.29448,0.30499)" font-size="40" xml:space="preserve" fill="#ffffff" fill-rule="nonzero" stroke="none" stroke-width="1" stroke-linecap="butt" stroke-linejoin="miter" stroke-miterlimit="10" stroke-dasharray="" stroke-dashoffset="0" font-family="&quot;ヒラギノ角ゴ Pro W3&quot;, &quot;Hiragino Kaku Gothic Pro&quot;, Osaka, &quot;メイリオ&quot;, Meiryo, &quot;ＭＳ Ｐゴシック&quot;, &quot;MS PGothic&quot;" font-weight="normal" text-anchor="start" style="mix-blend-mode: normal"><tspan x="0" dy="0">Cooking T.rex meal...</tspan></text></g></g></svg>