<svg version="1.1" xmlns="http://www.w3.org/2000/svg" xmlns:xlink="http://www.w3.org/1999/xlink" width="239.99238" height="19.31025" viewBox="0,0,239.99238,19.31025"><defs><linearGradient x1="195.62876" y1="171.87086" x2="195.62876" y2="191.18111" gradientUnits="userSpaceOnUse" id="color-1"><stop offset="0" stop-color="#3a62a1"/><stop offset="1" stop-color="#163076"/></linearGradient></defs><g transform="translate(-75.63255,-171.87086)"><g data-paper-data="{&quot;isPaintingLayer&quot;:true}" stroke="none" stroke-linejoin="miter" stroke-miterlimit="10" stroke-dasharray="" stroke-dashoffset="0" style="mix-blend-mode: normal"><path d="M75.63255,173.43552c0,-0.75368 0.40444,-1.56466 2.34385,-1.56466l235.45079,0.2c0.93117,0 2.19774,1.00274 2.19774,1.36466v16.38093c0,0.75368 -0.11276,1.36466 -2.05196,1.36466c0,0 -150.21004,0 -191.59142,0c-2.29165,0 -4.64137,0 -7.00526,0c-18.09087,0 -36.99981,0 -36.99981,0c-1.93914,0 -2.34385,-0.61098 -2.34385,-1.36466z" fill="url(#color-1)" fill-rule="evenodd" stroke-width="2" stroke-linecap="square"/><text transform="translate(171.57941,183.65988) scale(0.29448,0.30499)" font-size="40" xml:space="preserve" fill="#ffffff" fill-rule="nonzero" stroke="none" stroke-width="1" stroke-linecap="butt" stroke-linejoin="miter" stroke-miterlimit="10" stroke-dasharray="" stroke-dashoffset="0" font-family="&quot;ヒラギノ角ゴ Pro W3&quot;, &quot;Hiragino Kaku Gothic Pro&quot;, Osaka, &quot;メイリオ&quot;, Meiryo, &quot;ＭＳ Ｐゴシック&quot;, &quot;MS PGothic&quot;" font-weight="normal" text-anchor="start" style="mix-blend-mode: normal"><tspan x="0" dy="0">Scrubbing the Mosasaurus...</tspan></text></g></g></svg>