<svg version="1.1" xmlns="http://www.w3.org/2000/svg" xmlns:xlink="http://www.w3.org/1999/xlink" width="446.8" height="446.7" viewBox="0,0,446.8,446.7"><g transform="translate(180.35001,-31.24999)"><g data-paper-data="{&quot;isPaintingLayer&quot;:true}" fill="#000000" fill-rule="nonzero" stroke="none" stroke-width="1" stroke-linecap="butt" stroke-linejoin="miter" stroke-miterlimit="10" stroke-dasharray="" stroke-dashoffset="0" style="mix-blend-mode: normal"><path d="M43.05,31.25c123.3,0 223.3,100 223.4,223.3c0,123.4 -100,223.4 -223.4,223.4c-79.6,0 -149.4,-41.6 -189,-104.2h-1.1c-5.9,-9.5 -11,-19.4 -15.4,-29.7l0.1,-1.4c-1.5,-3.3 -2.8,-6.8 -4.1,-10.2l-0.1,1.3c-6.8,-18.7 -11.3,-38.5 -12.9,-59.1c-0.6,-6.6 -0.9,-13.3 -0.9,-20.1c0,-123.3 100,-223.3 223.4,-223.3M-140.05,333.75l0.8,-8.4c-2.4,-0.4 -5.5,1.8 -9.5,5.4c3.7,9.4 8.2,18.5 13.2,27.2l2.8,-0.2l1.9,-0.8l-4.2,-8.4zM-113.45,312.65v-3.4c-0.4,-2.6 -1.2,-3.8 -2.3,-3.4l-1.1,1.5l-1.9,0.8l-1.5,4.2l2.7,1.2l0.8,1.5c4.2,4.2 6.1,4.5 5.7,1.5l-0.8,-1.9zM-121.35,333.75l-3.4,-2.3l-3,-3.4l-1.1,7.6l3.1,16l7.6,5.7l5.7,1.1l7.6,-1.5l1.5,-1.1l-3.8,-7.2l-0.8,-8l-3.1,-0.8l-3.8,-1.9l-3.8,-0.8zM-98.55,265.55l0.4,-0.8l-0.4,-1.1l-1.9,-0.4l-1.5,1.5l0.4,3.4l1.1,1.5l0.4,0.8l1.5,-0.4l0.4,-1.1v-2.3zM-104.75,276.15h-1.1l-2.7,-3.4c-2.6,0 -2.6,2.7 0.8,8.4l3.8,4.2c1.9,1.6 2.7,3.1 2.3,4.6l-8,-4.2l2.7,5.7l5.3,3.8c5.4,7.6 8,9.9 8.8,8l-1.9,-7.6l1.5,-4.6c0.4,-1.5 0,-2.6 -1.1,-3l-1.1,2.3l-1.9,1.9v-2.3l0.4,-2.7zM-91.25,269.65l1.1,-1.5l0.8,-2.3l-0.4,-2.7l-1.5,-1.5c-2.3,-1.9 -3,-1.9 -3.4,0l-0.4,1.9l0.8,2.3c0.4,0.8 0.8,1.9 0.4,2.3l-0.8,1.1v3.8l1.5,0.8h1.5l0.4,-0.4l0.4,-1.1v-0.8zM-91.65,334.15c1.2,-8.4 -2.3,-13 -9.1,-14.9c-1.6,-5.3 -3.1,-6.1 -4.6,-3.4v0.8l1.9,11.4l2.7,2.7l1.1,1.5l2.7,0.4l3,3.8c1.2,1.1 1.9,0.4 2.3,-2.3M-75.85,420.65c3.6,-1.6 4.4,-3.6 1.6,-6l-4.8,0.4zM-61.95,418.65c-1.6,0 -3.2,0.4 -3.6,1.2l0.4,4l4,-4.4c-0.4,-0.8 -0.8,-1.2 -1.6,-1.2zM-65.55,414.25c0.4,-0.8 -0.4,-1.6 -1.6,-2l-4.4,-1.6l1.6,5.2c2.4,2 4,1.6 4.4,-1.6M-55.95,425.85l0.4,1.2l4.8,-5.6h-2l-0.8,-2.8h-1.6l-0.8,1.6l-2.8,2.4l-0.4,1.2zM-45.95,415.95l0.8,2.8l1.2,2h7.1v-3.2l7.6,2c-1.2,2 -1.2,3.2 0.4,3.6l5.2,-2l4.4,4.8c1.2,-1.2 1.6,-3.2 1.2,-6.4l-2.4,0.4c1.2,-2.8 0.8,-4.8 -1.2,-4.8l-2.4,1.2l-2,2.4c-2,0.8 -3.2,0 -2.8,-2.8l3.6,-1.2l0.8,-4l-2,0.8h-1.2l-0.4,1.6l-1.6,0.4l-4.4,-0.4l2.4,-1.2l0.8,0.8l-2,-6l-4.8,3.2c0.8,5.2 0,7.2 -2.8,5.2c-1.6,0.4 -2.8,-0.8 -2.8,-3.6zM-44.85,407.15c1.2,-0.4 2.8,0.8 4,2l1.6,-3.6v-4.4l-4.4,1.2l-1.2,4.8M-28.95,402.35c-2.8,2.8 -2,4.4 2.8,4l0.8,-0.4h0.4l1.2,2v-3.6l-2,-2.8l-3.2,0.8M-4.65,408.35l-0.4,-2.4l-0.4,0.8c0,-3.2 -1.2,-3.2 -3.6,0l-0.4,3.6h4.4zM-7.85,419.85c3.2,0 3.6,-1.2 2.4,-3.6l-2.8,-0.4l0.4,4M-9.45001,424.65c0.4,-1.2 0,-2.4 -0.4,-3.2l-5.6,1.6l1.6,3.6l4.4,-2M-1.55,407.95c2.8,0 3.2,-1.6 2,-4l0.4,-0.4l-2.4,0.4v4M-1.95,415.05v3.2l2.8,0.8l-0.4,0.4c0.8,-0.4 1.2,-1.6 1.2,-4.4zM4.05,413.85l1.6,2l2,-2l-1.6,-3.6l-4.4,0.8v2zM10.85,420.25l1.2,0.4l2,0.4l1.2,-2c1.2,-3.2 0,-4.8 -3.6,-4.8l-1.2,4.4c-0.4,2 0,2.8 1.2,2.4zM26.65,422.65l0.4,1.6l5.6,-0.8zM27.55,413.45c-1.2,1.6 -0.8,2.8 1.6,4.4l3.2,1.2c2.4,-0.8 2.4,-2 0.4,-4l-5.2,-1.6M40.64999,418.25c-3.6,3.6 -2.4,4.4 3.6,2.4c-0.4,-2.8 -2,-3.6 -3.6,-2.4M42.65,414.25h0.8l-1.2,-2c-2,-0.8 -2.8,0 -2.8,2.4zM68.05,415.45v-4.4l-2,0.8l-0.4,3.6l1.6,2.8l1.6,0.4zM77.15,409.45l-2,4.4c0.4,1.2 2,2 4.8,2.4c2,-1.2 2.8,-2.4 2,-3.6zM77.65,403.55c0.4,2 2,2.4 4,2c1.2,-1.2 0.8,-2.4 -0.4,-4.4l-3.6,2.4M81.15,425.05c0.4,-1.6 0,-2.8 -0.4,-4h-1.2l-3.2,1.2c-1.2,0.4 -1.2,1.2 -0.4,2.4h3.2l2,0.4M74.85,429.05l-0.8,2.8l4.8,-0.4v-2.8zM95.55,415.05v0.8l0.4,-0.8h-0.4c0,-2.8 -0.8,-4 -2.4,-3.6c-2.4,0.8 -2.4,2 0.8,4zM91.55,419.05c-4.8,-1.6 -6.8,-1.2 -4.8,1.6l2.8,0.4l2.8,2.4l2,2.4l1.6,0.8l-0.4,-0.8l1.6,1.2v0.8h1.2c0.8,-4 0.4,-6 -1.2,-6.4h-2.8l-3.2,-0.4l0.4,-2M120.55,415.05c-0.4,2.4 1.2,3.2 3.2,2.4c1.2,-1.6 1.2,-3.2 0,-5.6zM123.35,397.95l0.4,0.4v-0.4l-0.8,-1.2l-2,1.6zM85.15,428.25l-0.8,1.6l2,1.2l2.8,-1.6c1.2,-2 0.8,-3.6 -0.8,-4.8l-1.6,2zM168.25,418.45c49.3,-37.7 81,-97.1 81.1,-163.9c0,-113.9 -92.4,-206.3 -206.3,-206.3c-105,0 -191.6,78.4 -204.6,179.8c0.7,0.3 1.6,0.7 2.5,1.3l13,8.8l3.8,0.8l-1.1,-8.8v-8c1.1,-1.9 3.4,-2.7 5.7,-1.9l2.3,3.4l3.8,1.1l5.3,7.2c1.5,2.3 3.4,1.9 5.7,-1.5c1.1,-1.2 1.5,-3.8 1.9,-8.8c0,-4.2 1.1,-7.3 3.4,-8.4c2.7,10.3 5.8,14.9 8.8,14.5c3.1,-0.4 3.8,-3.4 2.3,-7.6c-1.5,-4.2 -1.2,-6.1 1.5,-5.7l4.6,8.4c5,1.9 5.3,0 1.9,-6.5l-2.7,-4.2c-0.8,-1.9 0,-2.6 1.9,-3c1.5,-0.4 2.7,0.4 3.8,2.3l3.8,3.4c4.1,-5 5.7,-9.6 4.9,-13l-3,-8c-0.7,-3.8 0.8,-5.4 4.6,-4.6l6.1,6.5c1.9,2.3 3,1.2 3,-3.8l-6.1,-14.9c2.3,-0.7 4.9,0 7.6,2.7l8,3.4c0.3,-2.3 -0.8,-4.2 -3.1,-6.5l-3,-6.1c0.4,-2.3 1.5,-2.6 3.8,-1.5l6.9,2.3c0.4,-1.9 -1.9,-6.1 -7.6,-11.8c-4.2,-4.6 -4.2,-8 0,-9.9l6.9,1.1l5.7,3.4c5.3,1.1 6.5,-2.3 3.8,-11.1l-3.4,-6.5l-3.4,-5.3c0.3,-4.5 4.2,-4.9 11.4,-1.1c5.7,3.1 9.9,4.6 12.6,4.2l8.4,-1.1c2.7,-3.1 1.6,-5 -3.4,-5c0.4,-3.4 -0.8,-5.7 -4.6,-7.6l-8.4,-5.3c0.8,-2.3 3.1,-4.2 6.9,-4.6l9.1,1.1l7.2,5l9.1,2.7c1.1,-1.5 1.1,-3.1 0,-4.2l-2.7,-4.2l0.8,-4.2l-1.9,-1.5l-1.9,-1.1l-4.6,-6.5c1.2,-1.9 2.7,-3 4.6,-1.9l4.2,3c8,4.6 13.4,5.8 16.8,5l8,-4.2c3.4,-2.7 5.7,-3.8 7.6,-3.8l12.2,-1.5l11.1,-5.7l6.5,-0.4l5.7,-1.5c6.1,-3.5 10.3,-5 13,-4.6l8,8.4l15.2,3.8c1.9,1.5 3.1,4.2 2.7,7.2l0.4,5.7l3.4,1.1h3.4l6.9,3.1c2.2,6.1 9.9,12.6 21.3,19.8l25.9,18.3l3.4,2.7l4.2,1.1l17.9,15.6l15.2,5l14.5,9.5c3.4,2.6 6.5,6.8 10.3,13.3l8.8,13.7c3,3.8 3.4,8.3 1.5,13.3l-3.1,7.6l-4.6,7.6c-3.8,3.8 -7.6,4.6 -12.6,2.7c0,-6.8 -3,-10.6 -9.5,-11.4l-7.6,0.8l-4.2,-1.9l-4.6,0.4c-1.6,-1.9 -5,-3 -10.7,-3.4l-11.8,-0.4l-11.4,-3.8l-10.3,-1.1c-1.2,-2.6 -5,-3.8 -10.7,-3.4l-7.2,-5.7l-9.9,-1.9c-2.6,-0.4 -4.9,-3.1 -7.2,-6.5c-2.2,-3.8 -5.3,-5.4 -9.1,-4.6l-9.5,2.7l-5.7,-2.7c-2.3,-1.9 -4.6,-2.7 -6.9,-1.9l-4.2,1.1l-3.4,3.1l-11.8,1.5l1.1,3.8c1.2,-1.1 4.2,0 9.2,2.7l8.4,5.7l10.3,16.8l-6.1,0.4l-5,-2.3c-6.1,1.5 -6.1,8.4 -0.4,21.7l14.5,20.2l-0.8,1.9l12.6,9.1l10.5,11.8l13.7,8.4l15.3,5.3l4.2,5l6.5,2.3c-0.4,5 -4.6,7.6 -12.6,8.4l-1.5,-0.8c-0.3,-0.4 -0.7,-0.8 -1.1,-0.8l-4.6,1.1l-8.8,1.1c-11.8,-1.1 -22.9,-5.3 -32.4,-13.7l-11.4,-12.6c-4.6,-5.3 -9.2,-9.1 -12.6,-11.4l-16,-6.5l-38.1,-25.5l-7.6,-12.6c-2.6,-8 -4.6,-12.6 -5.7,-13.7c-3.5,3.1 -5,9.9 -5,20.6c-1.9,0.3 -2.7,-3.8 -1.9,-13c0.7,-9.1 -1.6,-12.9 -6.9,-11.4l-0.8,8.8l0.4,9.9c-0.4,5.7 -2.6,11.1 -5.7,14.9l-1.1,-21h-2.7l-11,33.2l1.5,-13c0.8,-4.2 0,-6.8 -1.9,-7.2l-5.7,13l-0.8,6.9l-4.6,5.3l-6.9,13.7c-3.4,6.8 -6.1,9.9 -8,9.5l13.3,-33.2c1.1,-7.2 0.4,-11.8 -2.3,-13.7c-3,-2.7 -4.9,-0.4 -5.3,5.7l-1.1,13l-13,23.3c2.3,-14.5 3.1,-24.8 2.7,-31.3c0,-9.6 -1.5,-12.2 -5.3,-6.9v16c-5.4,0 -9.2,3.5 -10.7,11.1l1.9,8.4l3.4,6.9l-8,-2.7c-0.8,12.9 2.7,22.1 9.9,27.4l3.8,-7.6c1.9,-3.4 3.8,-5.3 6.5,-4.2l3.8,3.1l2.7,3.4l9.5,0.8c0.4,-1.1 1.6,-1.9 2.7,-1.5l3.8,-0.8l4.2,-6.1l9.9,-1.5l7.6,-4.6l-3.4,-4.2l3.4,-6.5c0,-1.1 -0.8,-1.9 -3.1,-3l-3,-2.7c-1.1,-3.8 1.6,-7.6 9.2,-12.2c15.6,-9.2 25.5,-8.4 30.5,1.9l-6.5,1.1l-8.4,-1.5l-5.3,3.8c-2.3,1.5 -4.2,1.5 -6.1,0l1.9,9.9l3.8,-2.7l2.7,-3.4l11.1,-1.5c11.5,-0.8 16.4,2.6 14.5,9.1l-7.2,-1.5l-8,-0.4l-6.1,5c-2.3,1.9 -4.6,2.2 -6.5,1.1l0.4,6.1c-2.7,-0.7 -4.2,0.4 -5,2.3c-1.1,1.9 0,3.5 3.1,4.6c-2.3,5.3 -4.6,9.1 -8,11.8l-8,3c-3.8,0.4 -6.4,1.6 -7.2,2.7l-7.6,-1.5c-3.1,-0.7 -5.3,0 -6.1,2.7c-3.4,-3.1 -6.1,-1.9 -7.6,3.8c-1.1,5.3 -0.3,8 2.7,8.4l2.7,-2.7l6.9,3.4c1.2,-2.3 3,-3.5 6.1,-3.1l6.5,-0.8l3,-6.9l3.8,-1.1c1.1,-0.4 1.5,-1.2 1.9,-2.7l8,-1.2c3.1,-0.7 4.2,-2.7 4.6,-5.7l5.3,-1.9c-2.6,-8.8 3.8,-11.4 18.7,-8.4c12.6,3.1 19.5,7.6 21,14.5l-7.6,-2.7c-3.1,-1.6 -6.5,-2.7 -9.2,-2.7c-8,0 -12.2,3.1 -12.6,8.4c2,1.1 5.8,0 11.1,-2.3c4.5,-1.9 8.7,-1.6 11.4,1.5l2.7,5.3l4.2,3.4l0.8,7.2l-1.5,6.5l-7.6,-13l-13.3,-1.5l-6.5,1.1l-1.9,2.7l-2.3,1.9l-6.1,-0.4l-4.9,-3.8l-1.5,6.9l-16.8,5c-4.2,1.2 -8,3.8 -11.4,8.4l-6.5,6.5l-9.5,2.3l-35.1,2.7l-16.4,4.2h-11.1l-10.6,2.3c9.1,13.1 19.8,25 31.7,35.6v-4.3h2l2,1.6l1.6,-7.5l3.6,3.6l2,3.6l4,-7.1l8.3,-5.2c-4.8,4.4 -7.2,9.9 -7.2,16.3c2,-3.2 4.4,-4.8 7.6,-5.2c3.2,-0.4 5.2,1.2 6,5.2c0.8,-3.2 3.9,-2.4 9.5,2.4l3.6,1.2c1.2,-1.6 0.8,-3.2 -1.2,-5.2l-1.2,1.2l2,-6c-2,-1.6 -3.6,-2 -6,-1.2c-2,0.8 -2.8,2.4 -2.4,5.2l-0.8,-5.2c0.8,-2.8 2.4,-4.8 5.2,-4.4c-3.2,-2 -5.2,-3.2 -6,-3.2l9.9,-1.6c-0.4,-3.1 0,-5.1 2.4,-7.1l2,6.8c2,-4.8 4.8,-6.8 7.6,-6.4l-0.4,2.8c1.9,-2.8 5.1,-3.2 8.3,-2c-2.4,3.9 -3.6,6.7 -3.2,9.1c2.4,-2 4.4,-2.8 6.8,-2.8l4.8,1.6l-3.6,1.2l3.6,3.2l4,2l0.8,-4c0.4,-1.2 1.2,-1.6 2.8,-1.2l1.2,1.2l1.6,-2.4l4.4,-2.4l0.8,3.6l6,0.8c3.6,0 5.2,0.4 5.6,1.2l-2.8,2.4l2.8,2l2.4,2.8l7.5,3.6l1.6,0.8l-1.2,-6l-1.6,-5.6l-2.4,-3.6v-5.2c2.7,2.4 5.9,6.3 9.1,12.7l2.8,-2.8l2.4,-4.8l3.2,-2.4l0.8,-2.8l2,-1.6l0.7,12.6l5.6,-6.4c2.4,-2.8 4.4,-3.6 6.4,-2.8c-2.8,1.2 -4.4,3.2 -5.2,6l-2.8,8.3l6.4,-4l-1.6,3.2l-0.8,3.6l10,-2.4c0.4,3.6 2.8,3.2 7.2,-1.6l4,-2.4c-2,2 -2.8,3.6 -2,6l0.4,-0.8l4,-0.4l6,2l3.6,-5.2l2.8,-6.8l6.8,-9.1l-0.4,6.8c4.3,-5.2 7.5,-7.2 9.5,-6c-2,1.2 -2.8,3.6 -2.8,7.2c1.6,-2.8 5.5,-3.2 11.1,-2c-2,-0.4 -3.2,1.6 -4.4,5.6l9.5,0.8c-1.2,0.4 -2.4,1.2 -3.6,3.2c1.2,-0.4 2.4,0 3.2,1.6l3.2,4v2.4l-4.8,-0.4c-2,0.8 -3.2,2 -2.4,3.2l2.8,3.2l7.2,5.2c2,0 3.2,-1.6 4.8,-4.4c0.8,-2.4 0,-3.6 -2.4,-3.6l-4,4l2.4,-6l4.8,-2.4c-4,-3.2 -6,-4.8 -6.4,-4.8l3.2,-5.6c1.2,-3.2 3.2,-3.6 4.8,-2.4c0.4,-4.8 2.4,-6.8 6.4,-5.6l6,3.2l3.6,3.2c-6.3,0.4 -9.5,2.8 -9.5,6l9.1,-2.4l4.8,1.6l6,3.6l-2,-0.8l-11.9,0.8c1.2,0.4 1.6,1.6 1.6,3.6l5.2,-0.8h4.8l-5.6,7.6l1.2,3.6l2,2.4c2,0.4 3.2,-0.4 4.8,-2.4l0.6,-5.7l4,-0.4l0.4,4l2,2.8c2,1.2 2.8,0 3.2,-3.2l2,-9.5l1.6,-0.4l1.2,4.4l2.8,-2l0.8,2.4l1.6,-3.6l1.6,-0.4c-0.4,2 1.2,2 4,0l7.6,-2.8l-8.8,9.2v3M-84.05,329.95c-3,-1.6 -3.4,0.3 -2.3,5.7l-0.4,3l-1.1,3.1c0.4,2.7 1.9,2.7 4.6,0l3.4,-6.1l-3.8,-5.3l-0.4,-0.4M82.95,134.75c3.1,1.9 4.2,3.8 3.7,6.8c-0.4,3.8 -3.8,6.5 -9.9,10.3c-4.2,2.3 -4.2,6.5 0,11.8c4.2,5.4 8,4.6 12.6,-1.1l8,-15.2c1.2,-4.6 0.8,-10.3 -1.1,-16.8l-7.2,-15.2h-1.9l-0.4,1.5l1.5,1.5c-1.9,-0.4 -4.5,0.4 -7.2,2.7c-3,3 -3.8,5.3 -3.4,7.6l5.3,6.1M117.65,158.35c1.1,4.6 1.1,7.3 0.3,8.8l-3,1.9l-3.8,1.2c-0.7,1.1 1.2,4.9 6.5,11.4l11,10.6c3,1.1 7.6,-1.9 14.1,-8c5,-4.6 5.7,-9.1 2.7,-14.1l-19.4,-24c-3.4,-6.5 -6.1,-8.4 -9.1,-6.1l-3.4,1.5l1.1,8.8l3,8M170.65,197.65c1.1,-7.6 -3.8,-10.3 -15.3,-8.4l5.7,-2.3c-6.1,0 -10.3,0.8 -11.4,2.7c-3.9,4.6 -3.5,7.2 1.1,8l8.8,-0.8l11.1,0.8"/><path d="M136.95,292.45c-3,4.6 -6.4,6.9 -9.1,6.9l-3.8,-1.5c-1.1,-1.2 -0.7,-1.9 0.8,-2.7l16.8,-11.4zM145.14999,307.05c-2,-1.9 1.9,-8.8 11.1,-20.2c-4.2,16 -7.7,22.5 -11.1,20.2M124.15,287.25c-1.9,4.9 -3.9,7.2 -6.9,5.3c-1.9,-1.1 1.2,-6.1 8.8,-16zM151.55,279.95c0.4,1.9 -1.9,6.9 -5.3,13.7c-4.2,7.3 -7.6,10.7 -9.9,8.8c-1.9,-1.9 0,-5.7 5.7,-12.6l9.5,-9.9M122.15,269.75c-1.1,7.6 -3.4,12.9 -7.6,17.5c-1.5,1.1 -3,0.7 -3.4,-0.8l0.4,-4.2zM111.15,273.84999l-4.6,6.9l-3,-2.3l1.1,-3.8l9.6,-9.2zM99.35,262.84999l-5,6.1c-0.7,0.7 -1.9,0.3 -3,-0.8l-0.8,-4.2l13,-10.7zM107.35,260.55c0,2.6 -0.8,5.3 -2.6,8.3c-2.3,3.8 -4.6,5.4 -6.1,4.6c-2.7,-1.1 -1.9,-2.6 1.5,-5.3l7.2,-7.6M172.15,234.25c2.3,0 2.3,2.3 -0.7,7.3l-8.4,6.1l5,-6.9l1.9,-4.6l1.1,-1.5l1.1,-0.4M196.55,238.05c-0.4,1.9 -1.5,3.8 -3.9,6.1l-13,9.9c4.2,-4.2 7.3,-8.4 8.8,-13l2.3,-5.7c1.2,-2.3 2.7,-2.3 5,-1.5c1.2,0.4 1.6,1.9 0.8,4.2"/><path d="M150.85,311.25c-3.1,-2.7 0,-8 8.8,-16.8c-1.6,14.5 -4.2,20.2 -8.8,16.8M199.65,254.45c9.1,-8.8 13.7,-12.6 14.9,-10.7c1.5,1.6 0,3.8 -3.8,6.5c-4.2,3 -7.7,4.2 -11.1,4.2M204.15,235.75c1.9,0.8 1.2,3.4 -2.3,8.4l-9.9,7.2l5.3,-9.5c1.9,-5 4.6,-7.2 6.9,-6.1M187.05,233.05c1.1,0.8 -0.4,4.2 -3.4,10.7c-4.6,4.2 -9.2,6.5 -12.6,6.5c5.3,-3.4 9.1,-8.8 11.8,-14.5c1.1,-2.7 3.1,-3.5 4.2,-2.7M94.45,250.25c-1.9,7.6 -4.5,11.1 -7.6,10.3l-2.7,-2.3l3.4,-3.4zM161.85,231.15c-3,6.9 -8.7,11.8 -17.9,14.5l10.7,-14.5c2.3,-3 4.2,-4.2 6.1,-3.4c1.1,0.3 1.5,1.5 1.1,3.4M168.65,235.35l-13.3,9.9c3,-2.7 6.4,-7.2 9.5,-14.1l1.9,-1.5h2.7l0.8,1.9zM128.25,283.45l11.4,-17.2l-3.4,12.2l-5.7,11.4l-3.8,1.9c-1.1,-0.3 -1.5,-1.1 -1.1,-3zM151.95,229.65c-2.7,5.7 -8,9.9 -16.4,13.8l13,-17.9l1.9,-0.8l1.5,1.5l0.8,1.5l-0.8,1.9M210.25,237.65c1.9,1.9 -0.4,4.2 -7.3,7.6l2.7,-5.7c1.9,-2.7 3.4,-3.1 4.6,-1.9M179.45,239.15c-2.3,3.5 -4.2,5 -6,5l3,-8c0,-1.9 0.8,-3.8 1.9,-4.2c1.9,-0.8 3.4,-0.8 3.8,1.1l-2.7,6.1M124.15,234.65l6.5,-13c1.9,-1.9 3.8,-2.7 4.6,-1.9c1.5,1.9 0.7,4.6 -2.7,8.4zM79.95,239.95c-1.2,1.9 -2.7,2.7 -3.8,1.2v-2.7l5.7,-2.3l-1.9,3.8M86.05,240.75c-2.3,6.1 -4.6,8.3 -6.5,6.8c-1.6,-0.7 -0.4,-1.9 1.5,-3.4l5,-3.4M134.45,231.05l2.3,-5.3c0.8,-1.9 2.7,-3 6.1,-3.4l0.4,4.2l-5,6.5l-9.5,8zM122.95,214.45c1.2,0.3 0.8,1.9 -1.1,4.2l-4.2,3c1.1,-5.7 3,-8.3 5.3,-7.2M90.95,245.25c-4.2,8 -7.2,11.1 -8.4,9.5c-1.9,-1.9 -1.6,-3.8 1.5,-6.1l6.9,-3.4M120.35,227.35l3.8,-6.9l4.2,-3.4l1.5,2.3l-4.6,5z"/></g></g></svg>