<svg version="1.1" xmlns="http://www.w3.org/2000/svg" xmlns:xlink="http://www.w3.org/1999/xlink" width="243.53657" height="19.31025" viewBox="0,0,243.53657,19.31025"><defs><linearGradient x1="99.65376" y1="171.87086" x2="99.65376" y2="191.18111" gradientUnits="userSpaceOnUse" id="color-1"><stop offset="0" stop-color="#3a62a1"/><stop offset="1" stop-color="#163076"/></linearGradient></defs><g transform="translate(-75.63254,-171.87086)"><g data-paper-data="{&quot;isPaintingLayer&quot;:true}" stroke="none" stroke-linejoin="miter" stroke-miterlimit="10" stroke-dasharray="" stroke-dashoffset="0" style="mix-blend-mode: normal"><path d="M75.63255,173.43552c0,-0.75368 0.08096,-1.56466 0.46921,-1.56466l47.13324,0.2c0.18641,0 0.43995,1.00274 0.43995,1.36466v16.38093c0,0.75368 -0.02257,1.36466 -0.41077,1.36466c0,0 -30.0695,0 -38.35336,0c-0.45875,0 -0.92913,0 -1.40233,0c-3.62148,0 -7.40674,0 -7.40674,0c-0.38819,0 -0.46921,-0.61098 -0.46921,-1.36466z" fill="url(#color-1)" fill-rule="evenodd" stroke-width="2" stroke-linecap="square"/><text transform="translate(161.27261,183.65988) scale(0.29448,0.30499)" font-size="40" xml:space="preserve" fill="#ffffff" fill-rule="nonzero" stroke="none" stroke-width="1" stroke-linecap="butt" stroke-linejoin="miter" stroke-miterlimit="10" stroke-dasharray="" stroke-dashoffset="0" font-family="&quot;ヒラギノ角ゴ Pro W3&quot;, &quot;Hiragino Kaku Gothic Pro&quot;, Osaka, &quot;メイリオ&quot;, Meiryo, &quot;ＭＳ Ｐゴシック&quot;, &quot;MS PGothic&quot;" font-weight="normal" text-anchor="start" style="mix-blend-mode: normal"><tspan x="0" dy="0">Polishing Incubation Chambers...</tspan></text></g></g></svg>