<svg xmlns:xlink="http://www.w3.org/1999/xlink" xmlns="http://www.w3.org/2000/svg" version="1.1" viewBox="0.0 0.0 960.0 720.0" fill="none" stroke="none" stroke-linecap="square" stroke-miterlimit="10"><clipPath id="p.0"><path d="m0 0l960.0 0l0 720.0l-960.0 0l0 -720.0z" clip-rule="nonzero"/></clipPath><g clip-path="url(#p.0)"><path fill="#000000" fill-opacity="0.0" d="m0 0l960.0 0l0 720.0l-960.0 0z" fill-rule="evenodd"/><path fill="#000000" fill-opacity="0.0" d="m265.78217 253.12599l171.27557 0l0 54.929123l-171.27557 0z" fill-rule="evenodd"/><path fill="#000000" d="m275.9853 269.75473l4.75 0q2.40625 0 3.609375 1.296875q1.203125 1.28125 1.203125 3.78125l0 2.015625q0 2.5 -1.203125 3.796875q-1.203125 1.28125 -3.609375 1.28125l-1.53125 0l0 8.359375l-3.21875 0l0 -20.53125zm4.75 9.234375q0.796875 0 1.1875 -0.4375q0.390625 -0.4375 0.390625 -1.5l0 -2.421875q0 -1.0625 -0.390625 -1.5q-0.390625 -0.4375 -1.1875 -0.4375l-1.53125 0l0 6.296875l1.53125 0zm8.043976 -9.234375l4.359375 0l3.34375 20.53125l-3.21875 0l-0.59375 -4.078125l0 0.0625l-3.65625 0l-0.59375 4.015625l-2.984375 0l3.34375 -20.53125zm3.515625 13.734375l-1.4375 -10.15625l-0.0625 0l-1.40625 10.15625l2.90625 0zm10.233154 7.09375q-2.3125 0 -3.53125 -1.3125q-1.21875 -1.328125 -1.21875 -3.734375l0 -11.03125q0 -2.40625 1.21875 -3.71875q1.21875 -1.328125 3.53125 -1.328125q2.3125 0 3.53125 1.328125q1.21875 1.3125 1.21875 3.71875l0 2.171875l-3.046875 0l0 -2.375q0 -1.90625 -1.609375 -1.90625q-1.625 0 -1.625 1.90625l0 11.46875q0 1.875 1.625 1.875q1.609375 0 1.609375 -1.875l0 -3.140625l3.046875 0l0 2.90625q0 2.40625 -1.21875 3.734375q-1.21875 1.3125 -3.53125 1.3125zm6.685791 -20.828125l3.21875 0l0 8.65625l4.109375 -8.65625l3.234375 0l-3.84375 7.53125l3.890625 13.0l-3.359375 0l-2.734375 -9.15625l-1.296875 2.609375l0 6.546875l-3.21875 0l0 -20.53125zm16.123993 20.828125q-2.34375 0 -3.546875 -1.328125q-1.203125 -1.34375 -1.203125 -3.84375l0 -1.171875l3.0625 0l0 1.40625q0 2.0 1.65625 2.0q0.828125 0 1.25 -0.484375q0.421875 -0.484375 0.421875 -1.5625q0 -1.296875 -0.59375 -2.28125q-0.578125 -0.984375 -2.15625 -2.359375q-2.0 -1.765625 -2.796875 -3.1875q-0.78125 -1.421875 -0.78125 -3.203125q0 -2.4375 1.234375 -3.765625q1.234375 -1.34375 3.578125 -1.34375q2.3125 0 3.5 1.34375q1.1875 1.328125 1.1875 3.828125l0 0.84375l-3.046875 0l0 -1.046875q0 -1.0625 -0.421875 -1.546875q-0.40625 -0.484375 -1.1875 -0.484375q-1.609375 0 -1.609375 1.96875q0 1.109375 0.59375 2.078125q0.59375 0.96875 2.1875 2.34375q2.015625 1.765625 2.78125 3.203125q0.765625 1.4375 0.765625 3.375q0 2.515625 -1.25 3.875q-1.25 1.34375 -3.625 1.34375z" fill-rule="nonzero"/></g></svg>