<svg version="1.1" xmlns="http://www.w3.org/2000/svg" xmlns:xlink="http://www.w3.org/1999/xlink" width="192.83079" height="19.31025" viewBox="0,0,192.83079,19.31025"><defs><linearGradient x1="87.67876" y1="171.87086" x2="87.67876" y2="191.18111" gradientUnits="userSpaceOnUse" id="color-1"><stop offset="0" stop-color="#3a62a1"/><stop offset="1" stop-color="#163076"/></linearGradient></defs><g transform="translate(-75.63254,-171.87086)"><g data-paper-data="{&quot;isPaintingLayer&quot;:true}" stroke="none" stroke-linejoin="miter" stroke-miterlimit="10" stroke-dasharray="" stroke-dashoffset="0" style="mix-blend-mode: normal"><path d="M75.63255,173.43552c0,-0.75368 0.0406,-1.56466 0.2353,-1.56466l23.63648,0.2c0.09348,0 0.22063,1.00274 0.22063,1.36466v16.38093c0,0.75368 -0.01132,1.36466 -0.20599,1.36466c0,0 -15.07932,0 -19.23353,0c-0.23005,0 -0.46594,0 -0.70325,0c-1.81611,0 -3.71435,0 -3.71435,0c-0.19467,0 -0.2353,-0.61098 -0.2353,-1.36466z" fill="url(#color-1)" fill-rule="evenodd" stroke-width="2" stroke-linecap="square"/><text transform="translate(211.97839,183.65988) scale(0.29448,0.30499)" font-size="40" xml:space="preserve" fill="#ffffff" fill-rule="nonzero" stroke="none" stroke-width="1" stroke-linecap="butt" stroke-linejoin="miter" stroke-miterlimit="10" stroke-dasharray="" stroke-dashoffset="0" font-family="&quot;ヒラギノ角ゴ Pro W3&quot;, &quot;Hiragino Kaku Gothic Pro&quot;, Osaka, &quot;メイリオ&quot;, Meiryo, &quot;ＭＳ Ｐゴシック&quot;, &quot;MS PGothic&quot;" font-weight="normal" text-anchor="start" style="mix-blend-mode: normal"><tspan x="0" dy="0">3MB/45MB</tspan></text></g></g></svg>