<svg version="1.1" xmlns="http://www.w3.org/2000/svg" xmlns:xlink="http://www.w3.org/1999/xlink" width="223.59239" height="19.31025" viewBox="0,0,223.59239,19.31025"><defs><linearGradient x1="187.42876" y1="171.87086" x2="187.42876" y2="191.18111" gradientUnits="userSpaceOnUse" id="color-1"><stop offset="0" stop-color="#3a62a1"/><stop offset="1" stop-color="#163076"/></linearGradient></defs><g transform="translate(-75.63255,-171.87086)"><g data-paper-data="{&quot;isPaintingLayer&quot;:true}" stroke="none" stroke-linejoin="miter" stroke-miterlimit="10" stroke-dasharray="" stroke-dashoffset="0" style="mix-blend-mode: normal"><path d="M75.63255,173.43552c0,-0.75368 0.37681,-1.56466 2.18368,-1.56466l219.36115,0.2c0.86754,0 2.04756,1.00274 2.04756,1.36466v16.38093c0,0.75368 -0.10506,1.36466 -1.91174,1.36466c0,0 -139.94536,0 -178.49892,0c-2.13505,0 -4.3242,0 -6.52655,0c-16.85462,0 -34.47141,0 -34.47141,0c-1.80663,0 -2.18368,-0.61098 -2.18368,-1.36466z" fill="url(#color-1)" fill-rule="evenodd" stroke-width="2" stroke-linecap="square"/><text transform="translate(189.61632,183.65988) scale(0.29448,0.30499)" font-size="40" xml:space="preserve" fill="#ffffff" fill-rule="nonzero" stroke="none" stroke-width="1" stroke-linecap="butt" stroke-linejoin="miter" stroke-miterlimit="10" stroke-dasharray="" stroke-dashoffset="0" font-family="&quot;ヒラギノ角ゴ Pro W3&quot;, &quot;Hiragino Kaku Gothic Pro&quot;, Osaka, &quot;メイリオ&quot;, Meiryo, &quot;ＭＳ Ｐゴシック&quot;, &quot;MS PGothic&quot;" font-weight="normal" text-anchor="start" style="mix-blend-mode: normal"><tspan x="0" dy="0">Cooking T.rex meal...</tspan></text></g></g></svg>