<svg version="1.1" xmlns="http://www.w3.org/2000/svg" xmlns:xlink="http://www.w3.org/1999/xlink" width="51.08126" height="60.5" viewBox="0,0,51.08126,60.5"><g transform="translate(-207.73958,-157.1)"><g data-paper-data="{&quot;isPaintingLayer&quot;:true}" fill-rule="nonzero" stroke="none" stroke-width="0" stroke-linejoin="miter" stroke-miterlimit="10" stroke-dasharray="" stroke-dashoffset="0" style="mix-blend-mode: normal"><path d="M254.51944,157.1c0,0 3.42691,1.8341 3.74034,3.92736c0.31343,2.09325 0.14844,14.42345 0.23266,22.60665c0.10006,9.72211 0.32839,31.9088 0.32839,31.9088l-2.2442,2.05719c0,0 -16.69221,-0.13738 -24.54528,-0.20202c-7.24648,-0.05964 -20.89985,-0.17202 -20.89985,-0.17202c0,0 -3.25279,-1.87895 -3.36631,-3.8806c-0.11352,-2.00165 0.18702,-52.17774 0.18702,-52.17774c0,0 0.5294,-3.24629 2.10394,-3.50657c1.57454,-0.26028 20.80564,-0.28053 20.80564,-0.28053v4.48841h-17.95363l-0.93508,1.49614l0.37403,41.33076l0.74807,0.93509l38.71252,-0.18702l1.1221,-0.56105l-0.14026,-42.6165h-17.76662v-4.86244c0,0 5.86891,-0.09148 8.98047,-0.13998c3.36709,-0.05248 10.51606,-0.16392 10.51606,-0.16392z" fill="#24284b" stroke-linecap="round"/><path d="M225.81408,172.31597l5.98074,6.70568l11.41777,-11.59901l4.89333,5.79951l-17.03606,15.58617l-11.23654,-11.41777z" fill="#24284b" stroke-linecap="round"/><path d="M214.26786,197.33691v-3.46552h20.9375v3.46552z" fill="#6c7282" stroke-linecap="butt"/><path d="M214.375,203.40833v-3.75751h35.02v3.75751z" fill="#6c7282" stroke-linecap="butt"/></g></g></svg>