<svg version="1.1" xmlns="http://www.w3.org/2000/svg" xmlns:xlink="http://www.w3.org/1999/xlink" width="232.19238" height="19.31025" viewBox="0,0,232.19238,19.31025"><defs><linearGradient x1="191.72876" y1="171.87086" x2="191.72876" y2="191.18111" gradientUnits="userSpaceOnUse" id="color-1"><stop offset="0" stop-color="#3a62a1"/><stop offset="1" stop-color="#163076"/></linearGradient></defs><g transform="translate(-75.63255,-171.87086)"><g data-paper-data="{&quot;isPaintingLayer&quot;:true}" stroke="none" stroke-linejoin="miter" stroke-miterlimit="10" stroke-dasharray="" stroke-dashoffset="0" style="mix-blend-mode: normal"><path d="M75.63255,173.43552c0,-0.75368 0.3913,-1.56466 2.26767,-1.56466l227.7984,0.2c0.90091,0 2.12631,1.00274 2.12631,1.36466v16.38093c0,0.75368 -0.1091,1.36466 -1.98527,1.36466c0,0 -145.32806,0 -185.3645,0c-2.21717,0 -4.49052,0 -6.77758,0c-17.5029,0 -35.79728,0 -35.79728,0c-1.87612,0 -2.26767,-0.61098 -2.26767,-1.36466z" fill="url(#color-1)" fill-rule="evenodd" stroke-width="2" stroke-linecap="square"/><text transform="translate(189.61632,183.65988) scale(0.29448,0.30499)" font-size="40" xml:space="preserve" fill="#ffffff" fill-rule="nonzero" stroke="none" stroke-width="1" stroke-linecap="butt" stroke-linejoin="miter" stroke-miterlimit="10" stroke-dasharray="" stroke-dashoffset="0" font-family="&quot;ヒラギノ角ゴ Pro W3&quot;, &quot;Hiragino Kaku Gothic Pro&quot;, Osaka, &quot;メイリオ&quot;, Meiryo, &quot;ＭＳ Ｐゴシック&quot;, &quot;MS PGothic&quot;" font-weight="normal" text-anchor="start" style="mix-blend-mode: normal"><tspan x="0" dy="0">Cooking T.rex meal...</tspan></text></g></g></svg>