<svg xmlns:xlink="http://www.w3.org/1999/xlink" xmlns="http://www.w3.org/2000/svg" version="1.1" viewBox="0.0 0.0 960.0 720.0" fill="none" stroke="none" stroke-linecap="square" stroke-miterlimit="10"><clipPath id="p.0"><path d="m0 0l960.0 0l0 720.0l-960.0 0l0 -720.0z" clip-rule="nonzero"/></clipPath><g clip-path="url(#p.0)"><path fill="#000000" fill-opacity="0.0" d="m0 0l960.0 0l0 720.0l-960.0 0z" fill-rule="evenodd"/><path fill="#000000" fill-opacity="0.0" d="m265.78217 253.12599l171.27557 0l0 54.929123l-171.27557 0z" fill-rule="evenodd"/><path fill="#000000" d="m275.9853 269.75473l4.609375 0l2.046875 14.6875l0.0625 0l2.046875 -14.6875l4.609375 0l0 20.53125l-3.046875 0l0 -15.546875l-0.0625 0l-2.34375 15.546875l-2.703125 0l-2.34375 -15.546875l-0.0625 0l0 15.546875l-2.8125 0l0 -20.53125zm18.278503 0l4.359375 0l3.34375 20.53125l-3.21875 0l-0.59375 -4.078125l0 0.0625l-3.65625 0l-0.59375 4.015625l-2.984375 0l3.34375 -20.53125zm3.515625 13.734375l-1.4375 -10.15625l-0.0625 0l-1.40625 10.15625l2.90625 0zm5.7449646 -13.734375l4.78125 0q2.484375 0 3.625 1.15625q1.15625 1.15625 1.15625 3.5625l0 1.265625q0 3.203125 -2.109375 4.046875l0 0.0625q1.171875 0.34375 1.65625 1.4375q0.484375 1.078125 0.484375 2.90625l0 3.59375q0 0.890625 0.046875 1.4375q0.0625 0.53125 0.296875 1.0625l-3.28125 0q-0.171875 -0.5 -0.234375 -0.9375q-0.0625 -0.4375 -0.0625 -1.578125l0 -3.765625q0 -1.40625 -0.453125 -1.953125q-0.453125 -0.5625 -1.5625 -0.5625l-1.125 0l0 8.796875l-3.21875 0l0 -20.53125zm4.40625 8.796875q0.953125 0 1.4375 -0.5q0.484375 -0.5 0.484375 -1.671875l0 -1.578125q0 -1.109375 -0.390625 -1.609375q-0.390625 -0.5 -1.25 -0.5l-1.46875 0l0 5.859375l1.1875 0zm7.412964 -8.796875l3.21875 0l0 8.65625l4.109375 -8.65625l3.234375 0l-3.84375 7.53125l3.890625 13.0l-3.359375 0l-2.734375 -9.15625l-1.296875 2.609375l0 6.546875l-3.21875 0l0 -20.53125zm12.141846 0l8.796875 0l0 2.9375l-5.578125 0l0 5.421875l4.4375 0l0 2.9375l-4.4375 0l0 6.296875l5.578125 0l0 2.9375l-8.796875 0l0 -20.53125zm13.161713 2.9375l-3.359375 0l0 -2.9375l9.96875 0l0 2.9375l-3.375 0l0 17.59375l-3.234375 0l0 -17.59375z" fill-rule="nonzero"/></g></svg>