<svg version="1.1" xmlns="http://www.w3.org/2000/svg" xmlns:xlink="http://www.w3.org/1999/xlink" width="218.16709" height="230.8888" viewBox="0,0,218.16709,230.8888"><g transform="translate(-106.27327,-54.55728)"><g data-paper-data="{&quot;isPaintingLayer&quot;:true}" fill-rule="evenodd" stroke="none" stroke-width="1" stroke-linecap="butt" stroke-linejoin="miter" stroke-miterlimit="10" stroke-dasharray="" stroke-dashoffset="0" style="mix-blend-mode: normal"><path d="M245.00252,257.47576c1.8467,-2.18603 3.18958,-3.02506 4.02862,-2.52328c-0.83904,0.50589 -1.17218,1.51561 -1.17218,3.02506c0.67041,-1.17219 2.34848,-1.34082 4.69902,-0.83904c-0.83904,-0.16863 -1.34081,0.67247 -1.84259,2.35466l4.02861,0.33315c-0.50178,0.16863 -1.00767,0.50589 -1.50944,1.34493c0.50178,-0.16863 1.00767,0 1.34082,0.67041l1.34493,1.67808v1.00767l-2.01534,-0.16863c-0.83904,0.33726 -1.34493,0.83904 -1.00767,1.34493l1.1763,1.34081l3.02095,2.18397c0.83904,0 1.34492,-0.67452 2.01533,-1.8467c0.33726,-1.00767 0,-1.50944 -1.00767,-1.50944l-1.67807,1.67807l1.00767,-2.52328l2.01534,-1.00356c-1.68014,-1.34493 -2.51918,-2.01534 -2.68781,-2.01534l1.34082,-2.35465c0.50589,-1.34082 1.34493,-1.50944 2.01534,-1.00766c0.16863,-2.01328 1.00972,-2.85233 2.6878,-2.35055l2.51918,1.34493l1.51356,1.34082c-2.6878,0.16863 -4.03274,1.17836 -4.03274,2.51918l3.8641,-1.00356l2.01328,0.6704l2.52329,1.50945l-0.83904,-0.33727l-5.0404,0.33727c0.50589,0.16863 0.67452,0.67041 0.67452,1.50945l2.18192,-0.33315h2.01533l-2.35465,3.18959l0.50589,1.50945l0.83904,1.00767c0.83904,0.16863 1.34082,-0.16863 2.01534,-1.00767l0.33315,-2.35054l1.67808,-0.16863l0.16863,1.67808l0.83903,1.1763c0.84315,0.50178 1.1763,0 1.34493,-1.34082l0.83904,-4.03273l0.67041,-0.16863l0.50589,1.8467l1.17219,-0.83904l0.33727,1.00767l0.6704,-1.50945l0.67452,-0.16863c-0.16863,0.83904 0.50178,0.83904 1.67397,0l3.19369,-1.1763l-3.69547,3.8641v1.50944l1.34492,0.83904c2.17985,1.51562 2.34849,2.6878 0.83904,3.02506l-1.68219,-0.16863c-0.50178,0 -0.67041,0.33726 -0.67041,1.1763c-0.16863,0.83904 -0.33315,1.34081 -1.00356,1.34081l-3.36232,1.34494l-5.03629,0.16863c-1.34493,0.16863 -2.6878,1.00973 -4.70314,2.18192c-2.01534,1.34493 -3.52684,2.01533 -4.70314,2.18397l-14.10531,3.18958l-20.15338,2.18397c-1.00767,0.33315 -2.51917,-0.16863 -4.70314,-1.34081c-2.34849,-1.1763 -3.86205,-1.68219 -4.86972,-1.68219l-9.90806,0.16863l-11.58819,-2.51917l-6.55191,-2.18397l-4.36588,-2.01328l-9.57286,-2.85644l-7.22231,-3.19369l-2.35054,-2.35054l0.33521,-0.67041l2.6878,-0.50589c0.33521,-0.16863 0.50384,-1.00973 0.50384,-2.35055v-2.18397h0.83904l0.83903,0.67041l0.67247,-3.18958l1.5115,1.50944l0.84109,1.51356l1.67808,-3.02507l3.52684,-2.18397c-2.01739,1.84877 -3.02301,4.20136 -3.02301,6.88916c0.83698,-1.34493 1.84465,-2.01533 3.18958,-2.18397c1.34287,-0.17068 2.18191,0.50588 2.51917,2.18397c0.33521,-1.34699 1.67808,-1.00767 4.03068,1.00767l1.5115,0.50178c0.50384,-0.67246 0.33521,-1.34287 -0.50384,-2.18191l-0.50383,0.50178l0.83904,-2.51917c-0.83904,-0.67041 -1.5115,-0.83904 -2.51917,-0.5059c-0.83904,0.33726 -1.1763,1.00767 -1.00767,2.18397l-0.33727,-2.18397c0.33726,-1.17219 1.00767,-2.01533 2.18397,-1.8467c-1.34493,-0.83904 -2.18396,-1.34082 -2.51917,-1.34082l4.1993,-0.67041c-0.16863,-1.34698 0,-2.18602 1.00767,-3.02506l0.83904,2.85643c0.83904,-2.01739 2.01533,-2.85643 3.19163,-2.6878l-0.16863,1.17218c0.83904,-1.17219 2.18191,-1.34082 3.52684,-0.83904c-1.00767,1.68014 -1.51356,2.85643 -1.34493,3.8641c1.00973,-0.83904 1.84877,-1.1763 2.85644,-1.1763l2.01328,0.67452l-1.5115,0.50178l1.5115,1.34493l1.68013,0.83904l0.33726,-1.68219c0.16863,-0.50178 0.50384,-0.67041 1.1763,-0.50178l0.50384,0.50178l0.67246,-1.00356l1.84671,-1.00767l0.33726,1.50945l2.51917,0.33727c1.51356,0 2.18397,0.16451 2.3526,0.50178l-1.1763,1.00767l1.1763,0.83904l1.00767,1.17631l3.19164,1.50944l0.67041,0.33726l-0.50384,-2.51917l-0.67246,-2.35465l-1.00767,-1.50945v-2.18396c1.17424,1.00767 2.51917,2.68575 3.86204,5.37355l1.1763,-1.17219l1.00767,-2.01534l1.34493,-1.00767l0.3352,-1.1763l0.83904,-0.67041l0.50384,5.37355l2.3526,-2.6878c1.00767,-1.1763 1.84671,-1.50944 2.6878,-1.1763c-1.1763,0.50589 -1.84671,1.34699 -2.18397,2.51917l-1.17629,3.53096l2.68985,-1.67808l-0.67247,1.34082l-0.33726,1.50944l4.19931,-1.00767c0.16863,1.51356 1.17836,1.34493 3.02506,-0.67041l1.67808,-1.00767c-0.83904,0.84109 -1.1763,1.51562 -0.83904,2.52329l0.16451,-0.33726l1.68219,-0.16863l2.51918,0.83904l1.50945,-2.18192l1.1763,-2.85643l2.85232,-3.86411zM228.37187,265.01683c-0.83904,-0.33315 -1.1763,0 -1.1763,1.00767l1.34287,-0.16452h0.33726zM229.20886,268.54366c-0.16452,-1.17219 -0.83698,-1.50945 -1.50945,-1.00356c-1.5115,1.50945 -1.00767,1.8426 1.50945,1.00356zM224.33914,269.71997l-2.51917,-0.33727l0.16863,0.67452zM222.82969,267.36942l1.34287,0.50178c1.00767,-0.33315 1.00767,-0.83903 0.16863,-1.67807l-2.18397,-0.67041c-0.50384,0.67041 -0.33521,1.17836 0.67246,1.8467zM243.32033,261.32547c0.16452,0.83904 0.83904,1.00355 1.67808,0.83903c0.50178,-0.50589 0.33315,-1.00766 -0.16863,-1.8467zM244.15937,268.7123l-1.34493,0.50589c-0.50178,0.16452 -0.50177,0.50178 -0.16863,1.00767h1.34493l0.83904,0.16451c0.16863,-0.67041 0,-1.17218 -0.16863,-1.67807zM249.53292,269.72202l0.83904,1.00767l0.67041,0.33726l-0.16863,-0.33726l0.67452,0.50589v0.33315h0.50178c0.33726,-1.68014 0.16863,-2.51917 -0.50178,-2.6878h-1.1763l-1.34493,-0.16863l0.16862,-0.83904c-2.01534,-0.67041 -2.85438,-0.50178 -2.01533,0.67041l1.1763,0.16863zM249.86813,264.68368c-1.00767,0.33315 -1.00767,0.83904 0.33726,1.67808l0.6704,-0.16863v0.33725l0.16863,-0.33725h-0.16863c0,-1.1763 -0.3352,-1.67808 -1.00767,-1.50945zM238.27993,266.36176l0.67452,1.1763l0.67041,0.16452l-0.33726,-1.34082v-1.84671l-0.83904,0.33726zM245.16293,265.18752l-2.01328,-1.34082l-0.83904,1.84671c0.17068,0.50178 0.84109,0.83904 2.01328,1.00767c0.83904,-0.50795 1.1763,-1.00973 0.83904,-1.51356zM242.14403,272.07463l-0.33726,1.17219l2.01534,-0.16451v-1.1763zM246.17265,272.40981l0.84315,0.5059l1.17219,-0.67452c0.50589,-0.84109 0.33727,-1.5115 -0.33315,-2.01328l-0.67453,0.83904l-0.67041,0.67041zM198.64564,265.35615l-0.67246,0.16863l-1.84671,-0.16863l1.00767,-0.50178l0.3352,0.33315l-0.83903,-2.51917l-2.01534,1.34492c0.33521,2.18191 0,3.02096 -1.1763,2.18192c-0.67246,0.16863 -1.1763,-0.33315 -1.1763,-1.50945l-1.17424,1.84671l0.33521,1.17218l0.50383,0.83904h3.02301v-1.34081l3.19163,0.83903c-0.50384,0.83904 -0.50383,1.34082 0.16864,1.50945l2.18397,-0.83904l1.84671,2.01534c0.50384,-0.50383 0.67247,-1.34699 0.50384,-2.6878l-1.00767,0.16863c0.50384,-1.1763 0.33521,-2.01533 -0.50384,-2.01533l-1.00767,0.50589l-0.84109,1.00356c-0.83904,0.33726 -1.34287,0 -1.17424,-1.17219l1.50944,-0.50589l0.33726,-1.67808l-0.83904,0.33726h-0.50383zM199.81783,262.33108h0.16863l0.50589,0.84315v-1.51356l-0.83904,-1.17219l-1.34287,0.33315c-1.1763,1.1763 -0.8411,1.84671 1.17424,1.67808zM193.94044,262.16657v-1.84671l-1.84465,0.50178l-0.50589,2.01534c0.50589,-0.16863 1.1763,0.33725 1.68013,0.83903l0.67247,-1.50944zM186.88676,270.7297l0.16862,0.50589l2.01534,-2.35465h-0.83904l-0.33521,-1.1763h-0.67246l-0.3352,0.67452l-1.1763,1.00356l-0.16863,0.5059zM184.03238,267.54012l0.33726,0.16451c-0.67246,0 -1.34493,0.16863 -1.5115,0.50589l0.16657,1.67808l1.68014,-1.84671c-0.16657,-0.33726 -0.33521,-0.50178 -0.67247,-0.50178zM180.33897,264.34641l0.67246,2.18397c1.00562,0.83904 1.67808,0.67041 1.84671,-0.67041c0.16657,-0.33726 -0.16862,-0.67452 -0.67246,-0.84315zM210.90424,261.32752l-1.00767,0.16451v1.68219c1.1763,0 1.00767,-1.8467 1.00767,-1.8467zM210.90424,267.87325l-0.16863,0.16863c0.33521,-0.16863 0.50383,-0.6704 0.50383,-1.8467h-1.5115v1.34493zM212.91958,266.53039l0.84109,-0.83903l-0.67247,-1.51356l-1.8467,0.33726v0.83904l1.00767,0.33726zM208.38712,264.17778l0.16863,-0.83904l-0.16863,-1.00767l-0.16863,0.33727c0,-1.34082 -0.50383,-1.34082 -1.5115,0l-0.16863,1.50944zM204.01713,269.55134l0.67246,1.51355l1.84671,-0.83904c0.16863,-0.50589 0,-1.00767 -0.16657,-1.34493zM208.21644,266.70108l-1.17424,-0.16863l0.16863,1.67807c1.34287,0 1.5115,-0.50589 1.00561,-1.50944zM179.16267,266.0245l-2.01533,0.16863l1.34287,2.35054c1.5115,-0.67041 1.84877,-1.50945 0.67247,-2.51917zM262.63056,258.97287l0.16863,0.16863v-0.16863l-0.33726,-0.50178l-0.83904,0.6704zM261.45838,266.19518c-0.16863,1.00767 0.50178,1.34493 1.34082,1.00767c0.50178,-0.67246 0.50178,-1.34287 0,-2.35055zM255.57482,58.26784l6.72053,1.67808c0.83904,0.67247 1.34082,1.84877 1.17219,3.19164l0.16863,2.52123l1.51356,0.50178h1.50945l3.02096,1.34493c1.00767,2.6878 4.36999,5.54217 9.40628,8.73381l11.41956,8.06135l1.51356,1.1763l1.84671,0.50383l7.89272,6.88506l6.71642,2.18397l6.38328,4.1993c1.51356,1.17424 2.85643,3.02095 4.53451,5.87739l3.8641,6.04601c1.34082,1.67808 1.50945,3.69342 0.67041,5.87739l-1.34082,3.35821l-2.01533,3.36026c-1.67808,1.67808 -3.35821,2.01328 -5.54218,1.17424c0,-3.023 -1.34082,-4.70109 -4.19725,-5.03835l-3.36232,0.33726l-1.84671,-0.83904l-2.01328,0.16863c-0.67041,-0.83904 -2.18397,-1.34288 -4.70314,-1.5115l-5.20491,-0.16657l-5.04041,-1.68013l-4.53451,-0.50384c-0.50178,-1.1763 -2.17985,-1.68013 -4.69903,-1.5115l-3.19369,-2.51918l-4.36588,-0.84109c-1.17836,-0.16863 -2.18602,-1.34287 -3.19369,-2.85438c-1.00356,-1.68014 -2.35054,-2.35054 -4.02862,-2.01534l-4.19725,1.1763l-2.52328,-1.1763c-1.00561,-0.83904 -2.01328,-1.1763 -3.02095,-0.83904l-1.84671,0.50383l-1.50945,1.34288l-5.20903,0.67247l0.50589,1.68013c0.50178,-0.50589 1.84671,0.00001 4.02862,1.17424l3.69547,2.51917l4.53451,7.39095l-2.68781,0.16863l-2.18191,-1.00767c-2.6878,0.67041 -2.6878,3.69547 -0.16863,9.57286l6.38327,8.9004l-0.33726,0.84109l5.54218,4.02863l4.86766,5.03834l6.04807,3.69547l6.71642,2.3526l1.84671,2.18192l2.85643,1.00767c-0.16863,2.18397 -2.01534,3.35821 -5.54218,3.69342l-0.67041,-0.33521c-0.16863,-0.16657 -0.33727,-0.33521 -0.5059,-0.33521l-2.01328,0.50384l-3.8641,0.50383c-5.20492,-0.50178 -10.07669,-2.35054 -14.27394,-6.04601l-5.0404,-5.54013c-2.01122,-2.35054 -4.02862,-4.03068 -5.53807,-5.03834l-7.0578,-2.85643l-16.79311,-11.25093l-3.35821,-5.54218c-1.17424,-3.52478 -2.01328,-5.54013 -2.51917,-6.04601c-1.5115,1.34493 -2.18397,4.36793 -2.18397,9.06902c-0.83904,0.16863 -1.1763,-1.67808 -0.83904,-5.70875c0.33521,-4.03068 -0.67246,-5.70876 -3.023,-5.03835l-0.33726,3.86205l0.16863,4.36793c-0.16704,2.38581 -1.04442,4.66701 -2.51917,6.54985l-0.50384,-9.23766h-1.17424l-4.86972,14.6112l0.67041,-5.71081c0.33521,-1.84876 0.00001,-3.02301 -0.83903,-3.19164l-2.51918,5.71081l-0.33726,3.02301l-2.01328,2.3526l-3.02301,6.04601c-1.5115,3.02301 -2.6878,4.36588 -3.52684,4.19931l5.87739,-14.6112c0.50589,-3.19164 0.16863,-5.20697 -1.00561,-6.04602c-1.34493,-1.1763 -2.18397,-0.16862 -2.3526,2.51918l-0.50384,5.7108l-5.71081,10.24327c1.00767,-6.38121 1.34287,-10.91573 1.1763,-13.7701c0,-4.19725 -0.67452,-5.37561 -2.3526,-3.02301v7.05368c-2.35054,0 -4.03068,1.5115 -4.70109,4.86972l0.83904,3.69547l1.50944,3.02301l-3.52684,-1.1763c-0.33521,5.71081 1.17836,9.73943 4.36794,12.09203l1.68013,-3.35822c0.84109,-1.5115 1.68014,-2.3526 2.85644,-1.84876l1.68425,1.3367l1.17425,1.5115l4.1993,0.33726c0.16863,-0.50384 0.67041,-0.84109 1.1763,-0.67246l1.67808,-0.33521l1.84671,-2.6878l4.36588,-0.67041l3.35821,-2.01534l-1.5115,-1.84671l1.5115,-2.85438c0,-0.50589 -0.33521,-0.84109 -1.34287,-1.34492l-1.34287,-1.1763c-0.50384,-1.67808 0.67246,-3.35821 4.03068,-5.37355c6.88505,-4.03068 11.25093,-3.69547 13.4349,0.83904l-2.85438,0.50384l-3.69341,-0.67247l-2.3526,1.68014c-1.00767,0.67246 -1.8467,0.67246 -2.68574,0l0.83903,4.36793l1.67808,-1.1763l1.1763,-1.5115l4.86972,-0.67246c5.03834,-0.33726 7.22231,1.1763 6.38327,4.03068l-3.19163,-0.67247l-3.52684,-0.16863l-2.6878,2.18397c-1.00973,0.84109 -2.01739,1.00767 -2.85643,0.50384l0.16863,2.6878c-1.1763,-0.33726 -1.84876,0.16657 -2.18397,1.00767c-0.50384,0.83904 0,1.5115 1.34287,2.01534c-1.00562,2.35054 -2.01328,4.03068 -3.52685,5.20698l-3.52684,1.34288c-1.68014,0.16863 -2.85438,0.67246 -3.19163,1.17629l-3.35821,-0.67246c-1.34287,-0.33521 -2.35054,0 -2.68575,1.1763c-1.5115,-1.34493 -2.68575,-0.84109 -3.35821,1.67808c-0.50384,2.35466 -0.16863,3.52684 1.1763,3.69547l1.17425,-1.1763l3.023,1.51356c0.50384,-1.00767 1.34493,-1.51356 2.6878,-1.34493l2.85644,-0.33315l1.34287,-3.02507l1.68013,-0.50178c0.50178,-0.16863 0.67041,-0.50589 0.83904,-1.17835l3.52684,-0.50384c1.34081,-0.33521 1.84465,-1.17424 2.01328,-2.51917l2.3526,-0.83904c-1.1763,-3.86204 1.68013,-5.03629 8.22998,-3.69341c5.54012,1.34493 8.56519,3.35821 9.23971,6.38327l-3.36232,-1.1763c-1.34081,-0.67246 -2.85644,-1.1763 -4.02863,-1.1763c-3.53096,0 -5.3756,1.34287 -5.54423,3.69547c0.84109,0.50384 2.51917,0 4.86971,-1.00767c2.01534,-0.83904 3.8641,-0.67246 5.0404,0.67041l1.17219,2.35054l1.85082,1.51356l0.33315,3.18958l-0.67041,2.85644l-3.36232,-5.71081l-5.87532,-0.67041l-2.85644,0.50589l-0.83904,1.17219l-1.00767,0.83904l-2.6878,-0.16452l-2.18397,-1.68219l-0.67247,3.02506l-7.38888,2.18192c-1.84876,0.50589 -3.5289,1.68219 -5.03834,3.69547l-2.85644,2.85643l-4.19931,1.00767l-15.45229,1.17629l-7.22232,1.84671h-4.86971l-6.88505,1.50945l-11.75682,-0.33727l-15.45229,1.00767c-9.74148,-2.01328 -16.4579,-4.36588 -19.64955,-6.88505c-0.67247,-0.50178 -1.84671,-0.50178 -3.86205,0l-3.18958,-0.50178l-2.18397,-1.1763c-0.83904,-0.84109 -0.83904,-3.02506 0.33726,-6.38327c0.67247,-1.34081 0.50384,-2.51917 -0.50383,-3.8641c-1.00767,-1.17219 -1.00767,-3.18958 -1.00767,-5.70875l2.18397,-13.43695l-0.83904,-4.19931l2.01534,-8.56519c0.83904,-1.5115 2.51918,-2.51712 4.86971,-3.18958l-1.00767,1.1763l2.85643,-1.68013l-1.84876,0.50383c1.34493,-2.01534 3.19164,-2.01533 5.20698,-0.3352c1.00767,0.67041 1.67808,2.68574 1.84671,6.38121c2.68574,-1.68014 4.36588,-2.6878 5.37355,-2.85644v-2.68574c-2.3526,-1.00973 -1.68013,-2.6878 2.01534,-4.87177l6.21258,0.16863l-0.33521,1.5115l0.16863,1.34493l2.85644,-0.67246c0.67246,-0.50383 0.83904,-1.68013 0.67246,-3.35821c-0.33726,-1.34288 0.3352,-2.35054 1.34287,-3.02301l3.02301,0.16863l1.84671,2.85643c0.83904,1.00767 2.01534,1.00767 3.35821,0l0.50383,-1.34287l-0.50383,-1.5115c-0.33521,-3.023 0.67246,-3.86205 3.023,-2.35055l5.71081,3.86205l1.68014,0.33521l-0.50384,-3.86205v-3.52684c0.50384,-0.83904 1.5115,-1.1763 2.51917,-0.83904l1.00767,1.5115l1.68014,0.50384l2.35054,3.19163c0.67246,1.00767 1.5115,0.83904 2.51917,-0.67246c0.50384,-0.50383 0.67247,-1.67808 0.83904,-3.86205c0,-1.84877 0.50384,-3.19164 1.5115,-3.69548c1.1763,4.53451 2.52123,6.54985 3.86204,6.38122c1.34493,-0.16657 1.68013,-1.5115 1.00767,-3.35821c-0.67041,-1.8467 -0.50177,-2.6878 0.67247,-2.51917l2.01534,3.69752c2.18397,0.83698 2.3526,0 0.84109,-2.85644l-1.17424,-1.8467c-0.33726,-0.83904 0,-1.17425 0.83904,-1.34288c0.67246,-0.16657 1.1763,0.16658 1.68013,1.00767l1.67808,1.50945c1.84876,-2.18191 2.52123,-4.19725 2.18397,-5.70875l-1.34287,-3.52684c-0.33726,-1.68014 0.3352,-2.3526 2.01533,-2.01534l2.6878,2.85438c0.83904,1.00973 1.34288,0.50589 1.34288,-1.67808l-2.6878,-6.55191c1.00562,-0.33521 2.18191,0 3.35821,1.1763l3.52684,1.5115c0.16657,-1.00973 -0.33726,-1.84877 -1.34493,-2.85644l-1.34287,-2.68574c0.16863,-1.00767 0.67246,-1.1763 1.68013,-0.67247l3.02301,1.00767c0.16863,-0.83904 -0.83904,-2.68574 -3.36027,-5.20697c-1.8467,-2.01328 -1.8467,-3.52479 0,-4.36589l3.02506,0.50383l2.51917,1.5115c2.35054,0.50589 2.85438,-1.00767 1.68014,-4.86971l-1.5115,-2.85437l-1.5115,-2.3526c0.16863,-2.01328 1.8467,-2.18191 5.03834,-0.50383c2.51917,1.34288 4.36588,2.01534 5.54218,1.84671l3.69342,-0.50383c1.1763,-1.34493 0.67246,-2.18397 -1.5115,-2.18397c0.16863,-1.5115 -0.3352,-2.51917 -2.01533,-3.35821l-3.69342,-2.3526c0.33521,-1.00767 1.34287,-1.84671 3.02301,-2.01534l4.03068,0.50383l3.19164,2.18397l4.03068,1.1763c0.50384,-0.67247 0.50384,-1.34287 0,-1.84671l-1.1763,-1.8467l0.33726,-1.8467l-0.83904,-0.67041l-0.84109,-0.50589l-2.01533,-2.85438c0.50384,-0.8411 1.17629,-1.34493 2.01533,-0.8411l1.84671,1.34493c3.52684,2.01534 5.87738,2.51917 7.38888,2.18397l3.52684,-1.84671c1.51356,-1.17424 2.52123,-1.68013 3.36027,-1.68013l5.37355,-0.67247l4.86766,-2.51917l2.85644,-0.16863l2.51917,-0.67247c2.68574,-1.5115 4.5345,-2.18397 5.7108,-2.01534z" fill="#000000"/><path d="M274.89122,114.70758l-1.8467,1.34287c0.50383,-2.51918 1.34287,-3.69547 2.35054,-3.19163c0.50589,0.16863 0.33726,0.84109 -0.50384,1.84876zM276.40477,117.22676l-2.18602,1.34287l1.68219,-3.023l1.84465,-1.5115l0.67453,1.00767zM275.90094,121.75921l2.85232,-5.70876c0.83904,-0.83904 1.68219,-1.1763 2.01534,-0.83904c0.67041,0.83904 0.33726,2.01534 -1.1763,3.69342zM284.29339,118.23442l-2.18397,2.85438l-4.19725,3.52684l2.52328,-4.36794l1.00356,-2.35054c0.33726,-0.83904 1.17836,-1.34287 2.6878,-1.5115zM287.49119,117.39333l0.67041,0.67247l0.33726,0.67246l-0.33726,0.83904c-1.17836,2.51918 -3.52685,4.36588 -7.22232,6.04601l5.71081,-7.89272zM292.52542,120.24976c-1.34082,3.023 -3.8641,5.20698 -7.89272,6.38122l4.70315,-6.38122c1.00973,-1.34493 1.84876,-1.84877 2.6878,-1.5115c0.50178,0.16657 0.67246,0.67247 0.50178,1.5115zM296.2209,120.41634l-0.67041,1.68013l-5.87944,4.36588c1.34493,-1.17424 2.85644,-3.18958 4.20137,-6.21259l0.83904,-0.67247h1.17219zM296.72679,124.78222l-3.69547,2.6878l2.18397,-3.023l0.83904,-2.01328l0.50589,-0.67246l0.50178,-0.16863c1.00767,0 1.00767,1.00767 -0.3352,3.18958zM300.25363,123.7766c-1.00561,1.5115 -1.84876,2.18397 -2.68369,2.18397l1.34081,-3.52684c0,-0.84109 0.33726,-1.68014 0.83904,-1.84877c0.83904,-0.33521 1.50945,-0.3352 1.67808,0.50384zM302.09828,125.79194c-2.01123,1.84877 -4.02862,2.85643 -5.53807,2.85643c2.34848,-1.5115 4.02862,-3.86409 5.20492,-6.38327c0.50178,-1.1763 1.34082,-1.51356 1.84671,-1.1763c0.50178,0.33726 -0.16863,1.84876 -1.51356,4.70314zM307.80703,123.27277c-0.16863,0.84109 -0.67041,1.68013 -1.67808,2.6878l-5.7108,4.36588c1.84877,-1.8467 3.19369,-3.69548 3.8641,-5.70875l1.00767,-2.51917c0.50383,-1.00973 1.17424,-1.00973 2.18191,-0.67247c0.50589,0.16657 0.67452,0.83904 0.3352,1.84671zM310.15758,125.96057l-4.36588,3.19164l2.35465,-4.19931c0.83904,-2.18397 2.01328,-3.19163 3.02095,-2.6878c0.84315,0.33521 0.50589,1.5115 -1.00973,3.69547zM311.84182,123.94318c0.84109,-1.17424 1.5115,-1.34287 2.01328,-0.83904c0.84315,0.83904 -0.16451,1.84671 -3.18958,3.35822zM314.02168,128.64837c-1.8467,1.34287 -3.35821,1.84671 -4.86766,1.84671c4.02862,-3.8641 6.04601,-5.54218 6.54779,-4.70314c0.67452,0.67041 0,1.67808 -1.68014,2.85643zM287.65365,155.51818c-1.34082,-1.1763 0,-3.52685 3.8641,-7.38889c-0.67041,6.38121 -1.84671,8.9004 -3.8641,7.38889z" fill="#000000"/><path d="M285.13653,153.66941c-0.83904,-0.83904 0.83904,-3.86204 4.87177,-8.90039c-1.84877,7.05368 -3.35821,9.90806 -4.87177,8.90039zM283.79366,146.11189l4.19931,-4.36382c0.16863,0.83904 -0.84109,3.023 -2.35054,6.04601c-1.8467,3.18958 -3.36232,4.70109 -4.37,3.86205c-0.83492,-0.84109 0,-2.52123 2.52123,-5.54424zM275.90094,149.63874c-0.50589,-0.50384 -0.33726,-0.83904 0.33315,-1.1763l7.39094,-5.03834l-2.01533,3.8641c-1.34082,2.01534 -2.85643,3.023 -4.02862,3.023zM277.07518,146.95299c-0.50178,-0.16863 -0.67041,-0.50383 -0.50178,-1.34287l1.17219,-2.3526l5.04041,-7.55751l-1.51356,5.37355l-2.51917,5.03834zM276.74204,140.23451l-0.83903,4.70314c-0.84109,2.18397 -1.68425,3.19164 -3.02507,2.3526c-0.83904,-0.50589 0.50178,-2.68781 3.8641,-7.05574zM270.19219,144.60244l0.16863,-1.84671l4.70314,-5.54218c-0.50589,3.35821 -1.51562,5.70875 -3.36232,7.72409c-0.67246,0.50384 -1.34287,0.33521 -1.50945,-0.3352zM268.1748,142.08121l-1.34287,-1.00767l0.50178,-1.67808l4.1993,-4.03068l-1.34287,3.69341zM267.33576,136.8763c-1.00973,1.67808 -2.0174,2.35054 -2.68781,2.01533c-1.1763,-0.50384 -0.83904,-1.1763 0.67041,-2.3526l3.19369,-3.35821c0,1.1763 -0.33726,2.35055 -1.1763,3.69548zM264.98316,134.19054l-2.18397,2.6878c-0.33726,0.33521 -0.83904,0.16658 -1.34082,-0.33726l-0.33727,-1.84671l5.71081,-4.70314zM258.26674,132.17316l1.50945,-1.5115l3.02506,-2.01534c-0.83904,3.36026 -2.01739,4.87177 -3.35821,4.53451zM257.59427,130.66166c-0.83904,-0.84109 -0.67041,-1.68014 0.67041,-2.6878l3.02506,-1.5115c-1.8467,3.52889 -3.19369,4.87177 -3.69547,4.1993zM256.92386,125.95852l2.18192,-1.5115c-1.00973,2.6878 -2.01739,3.69547 -2.85643,3.023c-0.67041,-0.33521 -0.16863,-0.83903 0.67452,-1.5115zM254.73784,124.6177v-1.1763l2.51917,-1.00767l-0.83904,1.67808c-0.50178,0.83904 -1.1763,1.1763 -1.68013,0.50589z" fill="#000000"/><path d="M259.60755,69.19385h0.84316l3.18958,6.71848c0.83904,2.85438 1.00767,5.37355 0.50589,7.38889l-3.53096,6.71847c-2.01123,2.51918 -3.69136,2.85438 -5.53807,0.50384c-1.8467,-2.3526 -1.8467,-4.1993 0,-5.20697c2.6878,-1.68014 4.19725,-2.85643 4.36588,-4.53451c0.16452,-1.34493 -0.33727,-2.18397 -1.67808,-3.02301l-2.35465,-2.6878c-0.16863,-1.00767 0.16863,-2.01534 1.51356,-3.35822c1.17424,-1.00767 2.35055,-1.34493 3.18959,-1.1763l-0.67041,-0.67247zM272.87793,80.78203h1.50945c-0.67041,-0.67247 -1.1763,-0.84109 -1.67808,-0.67247c1.34493,-1.00767 2.51917,-0.16863 4.03273,2.68575l8.56313,10.58052c1.34699,2.18191 1.00767,4.19931 -1.1763,6.21259c-2.85438,2.6878 -4.86766,4.03273 -6.21259,3.52684l-4.86766,-4.70108c-2.35465,-2.85438 -3.19369,-4.53451 -2.85643,-5.03835l1.67808,-0.50383l1.34082,-0.83903c0.33726,-0.67041 0.33726,-1.84671 -0.16452,-3.86205l-1.34493,-3.52684l-0.50178,-3.86205l1.50945,-0.67247l-0.33726,0.33521zM296.39158,105.46788l-4.87177,-0.33521l-3.8641,0.33521c-2.01123,-0.33521 -2.17986,-1.51151 -0.50178,-3.52479c0.50178,-0.84109 2.34849,-1.1763 5.03629,-1.1763l-2.51917,1.00767c5.0404,-0.83904 7.22231,0.33521 6.72053,3.69342zM174.62816,140.06383h0.50589l3.35822,4.87177l-0.16863,1.1763v1.00767l0.83904,-0.83904l0.50384,-1.00767c0.50384,0.16657 0.67246,0.67041 0.50383,1.34288l-0.67246,2.01533l0.84109,3.35821c-0.33521,0.84109 -1.50944,-0.16657 -3.86204,-3.52684l-2.3526,-1.67808l-1.17424,-2.51917l3.52684,1.84877c0.16863,-0.67246 -0.16863,-1.34288 -1.00767,-2.01534l-1.68013,-1.84671c-1.5115,-2.51917 -1.5115,-3.69547 -0.33521,-3.69547l1.17424,1.50945zM171.26789,154.67708v1.51151l0.67247,0.84109l0.33521,0.83904c0.16863,1.34287 -0.67247,1.17424 -2.51918,-0.67247l-0.33521,-0.67246l-1.1763,-0.50384l0.67247,-1.8467l0.84109,-0.33521l0.50383,-0.67247c0.50384,-0.16657 0.83904,0.33726 1.00767,1.5115zM180.8428,165.59692c-0.16657,1.17219 -0.50384,1.50945 -1.00767,1.00767l-1.34287,-1.67808l-1.1763,-0.16863l-0.50383,-0.67452l-1.1763,-1.17219l-0.83904,-5.0404v-0.33726c0.67246,-1.1763 1.34288,-0.84109 2.01534,1.5115c3.02301,0.83904 4.53451,2.85438 4.03068,6.55191zM186.04772,166.26527l-1.5115,2.6878c-1.17424,1.1763 -1.8467,1.1763 -2.01533,0l0.50383,-1.34082l0.16863,-1.34493c-0.50384,-2.35054 -0.33521,-3.18959 1.00767,-2.51918l0.16863,0.16863zM175.63583,175.16772l-0.67247,0.50589l-3.35821,0.67041l-2.51918,-0.50589l-3.35821,-2.51917l-1.34493,-7.05163l0.50589,-3.35822l1.34287,1.50945l1.51151,1.00767l1.17424,1.5115l1.68013,0.33726l1.67808,0.83904l1.34492,0.33726l0.33726,3.52684zM159.85038,161.73075l-0.33521,3.69547l2.18397,6.5519l1.84671,3.69547l-0.84109,0.33315l-4.87177,0.33725l-1.00767,-0.67041l-1.5115,0.16451l-1.34287,-1.00766l-0.50384,-3.02096v-3.02506c-0.33521,-1.50944 0.50384,-3.02095 1.68014,-4.19725c2.01534,-1.84671 3.52684,-3.02301 4.70314,-2.85644zM149.43437,164.92446l-0.16863,0.83903v1.17219l0.33521,0.83904l0.16863,0.67452l-0.16863,2.01328l2.3526,6.55191l0.33726,-0.50178l-0.16863,1.00767l-1.67808,-1.1763l-2.01533,-1.84671l-3.69341,-6.88505c0.16657,-0.33726 0.6704,-0.50589 1.34287,-0.50589l1.68014,-0.33726l0.16657,-2.35054c0.83904,-0.50178 1.34287,-0.33726 1.50944,0.50589zM141.03988,170.12937c-0.16863,0.84109 0.67041,1.84877 2.01534,2.85644l2.85438,2.35055l-2.85438,-0.50589l-3.69547,-1.17219c-1.1763,-0.67246 -1.5115,-1.34699 -0.83904,-2.35466c0.67041,-1.67808 1.5115,-2.01329 2.51917,-1.17425zM181.51527,136.53904l-0.50384,0.67247l0.16863,0.83903v0.33726l-0.16863,0.50384l-0.16863,0.16657h-0.67247l-0.67246,-0.33521v-1.68013l0.33726,-0.50384c0.16657,-0.16657 0,-0.67041 -0.16863,-1.00767l-0.33521,-1.00767l0.16657,-0.83904c0.16863,-0.83904 0.50384,-0.83904 1.5115,0l0.67246,0.67041l0.16863,1.1763zM177.98637,135.02754l-0.16657,0.33726l0.16657,0.50383v1.00767l-0.16657,0.50383l-0.67246,0.16657l-0.16863,-0.3352l-0.50384,-0.67247l-0.16657,-1.5115l0.67041,-0.67041l0.84109,0.16863z" fill="#6e4eba"/></g></g></svg>