<svg version="1.1" xmlns="http://www.w3.org/2000/svg" xmlns:xlink="http://www.w3.org/1999/xlink" width="215.19286" height="19.31025" viewBox="0,0,215.19286,19.31025"><defs><linearGradient x1="168.32876" y1="171.87086" x2="168.32876" y2="191.18111" gradientUnits="userSpaceOnUse" id="color-1"><stop offset="0" stop-color="#3a62a1"/><stop offset="1" stop-color="#163076"/></linearGradient></defs><g transform="translate(-75.63255,-171.87086)"><g data-paper-data="{&quot;isPaintingLayer&quot;:true}" stroke="none" stroke-linejoin="miter" stroke-miterlimit="10" stroke-dasharray="" stroke-dashoffset="0" style="mix-blend-mode: normal"><path d="M75.63255,173.43552c0,-0.75368 0.31243,-1.56466 1.81061,-1.56466l181.88404,0.2c0.71932,0 1.69774,1.00274 1.69774,1.36466v16.38093c0,0.75368 -0.08711,1.36466 -1.58513,1.36466c0,0 -116.03617,0 -148.00299,0c-1.77029,0 -3.58542,0 -5.41151,0c-13.97506,0 -28.58209,0 -28.58209,0c-1.49797,0 -1.81061,-0.61098 -1.81061,-1.36466z" fill="url(#color-1)" fill-rule="evenodd" stroke-width="2" stroke-linecap="square"/><text transform="translate(189.61632,183.65988) scale(0.29448,0.30499)" font-size="40" xml:space="preserve" fill="#ffffff" fill-rule="nonzero" stroke="none" stroke-width="1" stroke-linecap="butt" stroke-linejoin="miter" stroke-miterlimit="10" stroke-dasharray="" stroke-dashoffset="0" font-family="&quot;ヒラギノ角ゴ Pro W3&quot;, &quot;Hiragino Kaku Gothic Pro&quot;, Osaka, &quot;メイリオ&quot;, Meiryo, &quot;ＭＳ Ｐゴシック&quot;, &quot;MS PGothic&quot;" font-weight="normal" text-anchor="start" style="mix-blend-mode: normal"><tspan x="0" dy="0">Cooking T.rex meal...</tspan></text></g></g></svg>