<svg version="1.1" xmlns="http://www.w3.org/2000/svg" xmlns:xlink="http://www.w3.org/1999/xlink" width="243.53657" height="19.31025" viewBox="0,0,243.53657,19.31025"><defs><linearGradient x1="95.55376" y1="171.87086" x2="95.55376" y2="191.18111" gradientUnits="userSpaceOnUse" id="color-1"><stop offset="0" stop-color="#3a62a1"/><stop offset="1" stop-color="#163076"/></linearGradient></defs><g transform="translate(-75.63254,-171.87086)"><g data-paper-data="{&quot;isPaintingLayer&quot;:true}" stroke="none" stroke-linejoin="miter" stroke-miterlimit="10" stroke-dasharray="" stroke-dashoffset="0" style="mix-blend-mode: normal"><path d="M75.63255,173.43552c0,-0.75368 0.06714,-1.56466 0.38912,-1.56466l39.08842,0.2c0.15459,0 0.36486,1.00274 0.36486,1.36466v16.38093c0,0.75368 -0.01872,1.36466 -0.34066,1.36466c0,0 -24.93716,0 -31.80711,0c-0.38045,0 -0.77054,0 -1.16298,0c-3.00336,0 -6.14254,0 -6.14254,0c-0.32193,0 -0.38912,-0.61098 -0.38912,-1.36466z" fill="url(#color-1)" fill-rule="evenodd" stroke-width="2" stroke-linecap="square"/><text transform="translate(161.27261,183.65988) scale(0.29448,0.30499)" font-size="40" xml:space="preserve" fill="#ffffff" fill-rule="nonzero" stroke="none" stroke-width="1" stroke-linecap="butt" stroke-linejoin="miter" stroke-miterlimit="10" stroke-dasharray="" stroke-dashoffset="0" font-family="&quot;ヒラギノ角ゴ Pro W3&quot;, &quot;Hiragino Kaku Gothic Pro&quot;, Osaka, &quot;メイリオ&quot;, Meiryo, &quot;ＭＳ Ｐゴシック&quot;, &quot;MS PGothic&quot;" font-weight="normal" text-anchor="start" style="mix-blend-mode: normal"><tspan x="0" dy="0">Polishing Incubation Chambers...</tspan></text></g></g></svg>