<svg xmlns:xlink="http://www.w3.org/1999/xlink" xmlns="http://www.w3.org/2000/svg" version="1.1" viewBox="0.0 0.0 960.0 720.0" fill="none" stroke="none" stroke-linecap="square" stroke-miterlimit="10"><clipPath id="p.0"><path d="m0 0l960.0 0l0 720.0l-960.0 0l0 -720.0z" clip-rule="nonzero"/></clipPath><g clip-path="url(#p.0)"><path fill="#000000" fill-opacity="0.0" d="m0 0l960.0 0l0 720.0l-960.0 0z" fill-rule="evenodd"/><path fill="#000000" fill-opacity="0.0" d="m227.81364 253.12599l771.74805 0l0 54.929123l-771.74805 0z" fill-rule="evenodd"/><path fill="#000000" d="m242.5324 274.62973l-3.375 0l0 -2.296875q1.375 0 2.203125 -0.234375q0.84375 -0.234375 1.34375 -0.765625q0.5 -0.546875 0.890625 -1.578125l2.15625 0l0 20.53125l-3.21875 0l0 -15.65625zm11.871872 15.953125q-2.375 0 -3.640625 -1.34375q-1.25 -1.359375 -1.25 -3.828125l0 -10.78125q0 -2.46875 1.25 -3.8125q1.265625 -1.359375 3.640625 -1.359375q2.375 0 3.640625 1.359375q1.265625 1.34375 1.265625 3.8125l0 10.78125q0 2.46875 -1.265625 3.828125q-1.265625 1.34375 -3.640625 1.34375zm0 -2.9375q1.671875 0 1.671875 -2.015625l0 -11.203125q0 -2.03125 -1.671875 -2.03125q-1.671875 0 -1.671875 2.03125l0 11.203125q0 2.015625 1.671875 2.015625zm8.137512 2.640625l-1.0625 0l0 -3.109375l3.109375 0l0 2.78125l-1.609375 3.84375l-1.5 0l1.0625 -3.515625zm9.107422 0.296875q-2.375 0 -3.640625 -1.34375q-1.25 -1.359375 -1.25 -3.828125l0 -10.78125q0 -2.46875 1.25 -3.8125q1.265625 -1.359375 3.640625 -1.359375q2.375 0 3.640625 1.359375q1.265625 1.34375 1.265625 3.8125l0 10.78125q0 2.46875 -1.265625 3.828125q-1.265625 1.34375 -3.640625 1.34375zm0 -2.9375q1.671875 0 1.671875 -2.015625l0 -11.203125q0 -2.03125 -1.671875 -2.03125q-1.671875 0 -1.671875 2.03125l0 11.203125q0 2.015625 1.671875 2.015625zm11.731262 2.9375q-2.375 0 -3.640625 -1.34375q-1.25 -1.359375 -1.25 -3.828125l0 -10.78125q0 -2.46875 1.25 -3.8125q1.265625 -1.359375 3.640625 -1.359375q2.375 0 3.640625 1.359375q1.265625 1.34375 1.265625 3.8125l0 10.78125q0 2.46875 -1.265625 3.828125q-1.265625 1.34375 -3.640625 1.34375zm0 -2.9375q1.671875 0 1.671875 -2.015625l0 -11.203125q0 -2.03125 -1.671875 -2.03125q-1.671875 0 -1.671875 2.03125l0 11.203125q0 2.015625 1.671875 2.015625zm11.731232 2.9375q-2.375 0 -3.640625 -1.34375q-1.25 -1.359375 -1.25 -3.828125l0 -10.78125q0 -2.46875 1.25 -3.8125q1.265625 -1.359375 3.640625 -1.359375q2.375 0 3.640625 1.359375q1.265625 1.34375 1.265625 3.8125l0 10.78125q0 2.46875 -1.265625 3.828125q-1.265625 1.34375 -3.640625 1.34375zm0 -2.9375q1.671875 0 1.671875 -2.015625l0 -11.203125q0 -2.03125 -1.671875 -2.03125q-1.671875 0 -1.671875 2.03125l0 11.203125q0 2.015625 1.671875 2.015625z" fill-rule="nonzero"/></g></svg>