<svg version="1.1" xmlns="http://www.w3.org/2000/svg" xmlns:xlink="http://www.w3.org/1999/xlink" width="324.25902" height="19.31025" viewBox="0,0,324.25902,19.31025"><defs><linearGradient x1="237.7621" y1="171.87086" x2="237.7621" y2="191.18111" gradientUnits="userSpaceOnUse" id="color-1"><stop offset="0" stop-color="#3a62a1"/><stop offset="1" stop-color="#163076"/></linearGradient></defs><g transform="translate(-75.63255,-171.87086)"><g data-paper-data="{&quot;isPaintingLayer&quot;:true}" stroke="none" stroke-linejoin="miter" stroke-miterlimit="10" stroke-dasharray="" stroke-dashoffset="0" style="mix-blend-mode: normal"><path d="M75.63255,173.43552c0,-0.75368 0.54645,-1.56466 3.16681,-1.56466l318.1228,0.2c1.25811,0 2.96941,1.00274 2.96941,1.36466v16.38093c0,0.75368 -0.15236,1.36466 -2.77245,1.36466c0,0 -202.95214,0 -258.8634,0c-3.09628,0 -6.27106,0 -9.46497,0c-24.44299,0 -49.99127,0 -49.99127,0c-2.62,0 -3.16681,-0.61098 -3.16681,-1.36466z" fill="url(#color-1)" fill-rule="evenodd" stroke-width="2" stroke-linecap="square"/><text transform="translate(171.57941,183.65988) scale(0.29448,0.30499)" font-size="40" xml:space="preserve" fill="#ffffff" fill-rule="nonzero" stroke="none" stroke-width="1" stroke-linecap="butt" stroke-linejoin="miter" stroke-miterlimit="10" stroke-dasharray="" stroke-dashoffset="0" font-family="&quot;ヒラギノ角ゴ Pro W3&quot;, &quot;Hiragino Kaku Gothic Pro&quot;, Osaka, &quot;メイリオ&quot;, Meiryo, &quot;ＭＳ Ｐゴシック&quot;, &quot;MS PGothic&quot;" font-weight="normal" text-anchor="start" style="mix-blend-mode: normal"><tspan x="0" dy="0">Scrubbing the Mosasaurus...</tspan></text></g></g></svg>