<svg version="1.1" xmlns="http://www.w3.org/2000/svg" xmlns:xlink="http://www.w3.org/1999/xlink" width="108.11637" height="112.84387" viewBox="0,0,108.11637,112.84387"><defs><radialGradient cx="232.83334" cy="186.73715" r="50.74092" gradientUnits="userSpaceOnUse" id="color-1"><stop offset="0" stop-color="#ccd4e8"/><stop offset="1" stop-color="#637a99"/></radialGradient><linearGradient x1="240.40187" y1="140.3922" x2="240.40187" y2="234.47186" gradientUnits="userSpaceOnUse" id="color-2"><stop offset="0" stop-color="#a7a7a7"/><stop offset="1" stop-color="#575962"/></linearGradient><radialGradient cx="224.5" cy="192.80001" r="47.41076" gradientUnits="userSpaceOnUse" id="color-3"><stop offset="0" stop-color="#b8bfd1"/><stop offset="1" stop-color="#8298b5"/></radialGradient><linearGradient x1="240.23838" y1="144.05888" x2="240.23838" y2="231.80519" gradientUnits="userSpaceOnUse" id="color-4"><stop offset="0" stop-color="#262d48"/><stop offset="1" stop-color="#b5b2bc"/></linearGradient></defs><g transform="translate(-187.40604,-123.89325)"><g data-paper-data="{&quot;isPaintingLayer&quot;:true}" fill-rule="nonzero" stroke-linejoin="miter" stroke-miterlimit="10" stroke-dasharray="" stroke-dashoffset="0" style="mix-blend-mode: normal"><path d="M189.66094,140.3922l74.71811,0.22835c0,0 25.68535,43.66032 26.46902,45.41776c0.78367,1.75744 -0.14082,3.21015 -1.07759,4.79701c-3.62913,6.14765 -27.22329,43.14396 -27.22329,43.14396l-72.68206,0.49257z" fill="url(#color-1)" stroke="url(#color-2)" stroke-width="4.5" stroke-linecap="round"/><path d="M192.82762,144.05888l69.81431,0.21298c0,0 23.9996,40.72114 24.73184,42.36028c0.73224,1.63914 -0.13158,2.99404 -1.00687,4.47408c-3.39095,5.73379 -25.43661,40.23956 -25.43661,40.23956l-67.91189,0.45941z" fill="url(#color-3)" stroke="url(#color-4)" stroke-width="2" stroke-linecap="round"/><path d="M254.51945,153.10001c0,0 3.42691,1.8341 3.74034,3.92736c0.31343,2.09325 0.14844,14.42345 0.23266,22.60665c0.10006,9.72211 0.32839,31.9088 0.32839,31.9088l-2.2442,2.05719c0,0 -16.69221,-0.13738 -24.54528,-0.20202c-7.24648,-0.05964 -20.89985,-0.17202 -20.89985,-0.17202c0,0 -3.25279,-1.87895 -3.36631,-3.8806c-0.11352,-2.00165 0.18702,-52.17774 0.18702,-52.17774c0,0 0.5294,-3.24629 2.10394,-3.50657c1.57454,-0.26028 20.80564,-0.28053 20.80564,-0.28053v4.48841h-17.95363l-0.93508,1.49614l0.37403,41.33076l0.74807,0.93509l38.71252,-0.18702l1.1221,-0.56105l-0.14026,-42.6165h-17.76662v-4.86244c0,0 5.86891,-0.09148 8.98047,-0.13998c3.36709,-0.05248 10.51606,-0.16392 10.51606,-0.16392z" fill="#24284b" stroke="none" stroke-width="0" stroke-linecap="round"/><path d="M225.81409,168.31599l5.98074,6.70568l11.41777,-11.59901l4.89333,5.79951l-17.03606,15.58617l-11.23654,-11.41777z" fill="#24284b" stroke="none" stroke-width="0" stroke-linecap="round"/><path d="M214.26787,193.33693v-3.46552h20.9375v3.46552z" fill="#6c7282" stroke="none" stroke-width="0" stroke-linecap="butt"/><path d="M214.37501,199.40835v-3.75751h35.02v3.75751z" fill="#6c7282" stroke="none" stroke-width="0" stroke-linecap="butt"/><path d="M263.50837,125.49518l19.57663,0.31882l12.43741,17.2927l-11.49014,17.45837h-22.10265l-10.21294,-17.5907z" fill="#750f16" stroke="none" stroke-width="0" stroke-linecap="round"/><path d="M263.50837,123.89325l19.57663,0.31882l11.48549,17.93347l-10.53822,16.81761h-22.10265l-9.47256,-17.05673z" fill="#b81823" stroke="none" stroke-width="0" stroke-linecap="round"/><path d="M209.76677,216.2454h2.73034l1.21246,8.70008h0.03702l1.21246,-8.70008h2.73034v12.1616h-1.8048v-9.20912h-0.03702l-1.38831,9.20912h-1.60118l-1.38831,-9.20912h-0.03702v9.20912h-1.66597zM219.11311,216.2454h1.90661v12.1616h-1.90661zM224.92906,228.58286c-0.92554,0 -1.62586,-0.26224 -2.10098,-0.78671c-0.47511,-0.53064 -0.71267,-1.28959 -0.71267,-2.27683v-0.69416h1.81406v0.83299c0,0.7898 0.32703,1.18469 0.98107,1.18469c0.32703,0 0.57383,-0.09564 0.74043,-0.28692c0.1666,-0.19128 0.2499,-0.49979 0.2499,-0.92554c0,-0.51213 -0.11723,-0.96256 -0.35171,-1.35129c-0.2283,-0.38873 -0.65405,-0.85458 -1.27725,-1.39757c-0.7898,-0.69724 -1.34203,-1.32661 -1.65672,-1.8881c-0.30851,-0.56149 -0.46277,-1.19395 -0.46277,-1.89736c0,-0.96256 0.24373,-1.70608 0.73118,-2.23055c0.48745,-0.53064 1.19395,-0.79596 2.11949,-0.79596c0.9132,0 1.60427,0.26532 2.07321,0.79596c0.46894,0.52447 0.70341,1.28033 0.70341,2.26757v0.49979h-1.8048v-0.62011c0,-0.41958 -0.0833,-0.72501 -0.2499,-0.91628c-0.16043,-0.19128 -0.3949,-0.28692 -0.70341,-0.28692c-0.63554,0 -0.95331,0.38873 -0.95331,1.16618c0,0.43809 0.11723,0.84841 0.35171,1.23097c0.23447,0.38256 0.66639,0.84533 1.29576,1.38831c0.79596,0.69724 1.34512,1.32969 1.64746,1.89736c0.30234,0.56767 0.45351,1.23405 0.45351,1.99917c0,0.99341 -0.24681,1.75853 -0.74043,2.29534c-0.49362,0.53064 -1.20937,0.79596 -2.14725,0.79596zM231.39157,228.58286c-0.92554,0 -1.62586,-0.26224 -2.10098,-0.78671c-0.47511,-0.53064 -0.71267,-1.28959 -0.71267,-2.27683v-0.69416h1.81406v0.83299c0,0.7898 0.32703,1.18469 0.98107,1.18469c0.32703,0 0.57383,-0.09564 0.74043,-0.28692c0.1666,-0.19128 0.2499,-0.49979 0.2499,-0.92554c0,-0.51213 -0.11723,-0.96256 -0.35171,-1.35129c-0.2283,-0.38873 -0.65405,-0.85458 -1.27725,-1.39757c-0.7898,-0.69724 -1.34203,-1.32661 -1.65672,-1.8881c-0.30851,-0.56149 -0.46277,-1.19395 -0.46277,-1.89736c0,-0.96256 0.24373,-1.70608 0.73118,-2.23055c0.48745,-0.53064 1.19395,-0.79596 2.11949,-0.79596c0.9132,0 1.60427,0.26532 2.07321,0.79596c0.46894,0.52447 0.70341,1.28033 0.70341,2.26757v0.49979h-1.8048v-0.62011c0,-0.41958 -0.0833,-0.72501 -0.2499,-0.91628c-0.16043,-0.19128 -0.3949,-0.28692 -0.70341,-0.28692c-0.63554,0 -0.95331,0.38873 -0.95331,1.16618c0,0.43809 0.11723,0.84841 0.35171,1.23097c0.23447,0.38256 0.66639,0.84533 1.29576,1.38831c0.79596,0.69724 1.34512,1.32969 1.64746,1.89736c0.30234,0.56767 0.45351,1.23405 0.45351,1.99917c0,0.99341 -0.24681,1.75853 -0.74043,2.29534c-0.49362,0.53064 -1.20937,0.79596 -2.14725,0.79596zM235.37366,216.2454h1.90661v12.1616h-1.90661zM241.46725,228.58286c-0.93788,0 -1.65672,-0.26532 -2.15651,-0.79596c-0.49362,-0.53681 -0.74043,-1.29267 -0.74043,-2.26757v-6.38623c0,-0.9749 0.24681,-1.72767 0.74043,-2.25832c0.49979,-0.53681 1.21863,-0.80522 2.15651,-0.80522c0.93788,0 1.65672,0.26841 2.15651,0.80522c0.49979,0.53064 0.74969,1.28341 0.74969,2.25832v6.38623c0,0.9749 -0.2499,1.73076 -0.74969,2.26757c-0.49979,0.53064 -1.21863,0.79596 -2.15651,0.79596zM241.46725,226.84284c0.66022,0 0.99033,-0.39798 0.99033,-1.19395v-6.63612c0,-0.80213 -0.33011,-1.2032 -0.99033,-1.2032c-0.66022,0 -0.99033,0.40107 -0.99033,1.2032v6.63612c0,0.79596 0.33011,1.19395 0.99033,1.19395zM245.65811,216.2454h2.39715l1.86034,7.284h0.03702v-7.284h1.70299v12.1616h-1.9714l-2.28608,-8.87593h-0.03702v8.87593h-1.70299zM255.55656,228.58286c-0.92554,0 -1.62586,-0.26224 -2.10098,-0.78671c-0.47511,-0.53064 -0.71267,-1.28959 -0.71267,-2.27683v-0.69416h1.81406v0.83299c0,0.7898 0.32703,1.18469 0.98107,1.18469c0.32703,0 0.57383,-0.09564 0.74043,-0.28692c0.1666,-0.19128 0.2499,-0.49979 0.2499,-0.92554c0,-0.51213 -0.11723,-0.96256 -0.35171,-1.35129c-0.2283,-0.38873 -0.65405,-0.85458 -1.27725,-1.39757c-0.7898,-0.69724 -1.34203,-1.32661 -1.65672,-1.8881c-0.30851,-0.56149 -0.46277,-1.19395 -0.46277,-1.89736c0,-0.96256 0.24373,-1.70608 0.73118,-2.23055c0.48745,-0.53064 1.19395,-0.79596 2.11949,-0.79596c0.9132,0 1.60427,0.26532 2.07321,0.79596c0.46894,0.52447 0.70341,1.28033 0.70341,2.26757v0.49979h-1.8048v-0.62011c0,-0.41958 -0.0833,-0.72501 -0.2499,-0.91628c-0.16043,-0.19128 -0.3949,-0.28692 -0.70341,-0.28692c-0.63554,0 -0.95331,0.38873 -0.95331,1.16618c0,0.43809 0.11723,0.84841 0.35171,1.23097c0.23447,0.38256 0.66639,0.84533 1.29576,1.38831c0.79596,0.69724 1.34512,1.32969 1.64746,1.89736c0.30234,0.56767 0.45351,1.23405 0.45351,1.99917c0,0.99341 -0.24681,1.75853 -0.74043,2.29534c-0.49362,0.53064 -1.20937,0.79596 -2.14725,0.79596z" fill="#24284b" stroke="none" stroke-width="1" stroke-linecap="square"/><path d="M273.0811,137.29869h-2.79965v-1.90532c0.7604,0 1.36959,-0.0648 1.82756,-0.19441c0.46661,-0.12962 0.83817,-0.34132 1.11467,-0.63511c0.2765,-0.30244 0.52278,-0.73879 0.73881,-1.30909h1.78867v17.03125h-2.67005z" fill="#ffffff" stroke="none" stroke-width="1" stroke-linecap="square"/></g></g></svg>