<svg version="1.1" xmlns="http://www.w3.org/2000/svg" xmlns:xlink="http://www.w3.org/1999/xlink" width="960" height="720" viewBox="0,0,960,720"><defs><clipPath id="clip-1"><path d="M-240,-180h960v720h-960z" fill="none" fill-rule="nonzero"/></clipPath></defs><g transform="translate(240,180)"><g clip-path="url(#clip-1)" data-paper-data="{&quot;isPaintingLayer&quot;:true}" stroke="none" stroke-width="1" stroke-linecap="square" stroke-linejoin="miter" stroke-miterlimit="10" stroke-dasharray="" stroke-dashoffset="0" style="mix-blend-mode: normal"><path d="M-240,-180h960v720h-960z" fill-opacity="0" fill="#000000" fill-rule="evenodd"/><path d="M-43.84541,110.56723c-1.21875,0 -2.23437,-0.28125 -3.04687,-0.84375c-0.8125,-0.5625 -1.42187,-1.38542 -1.82812,-2.46875c-0.40625,-1.08333 -0.60937,-2.39062 -0.60937,-3.92187v-10.98437c0,-1.15625 0.09375,-2.19792 0.28125,-3.125c0.1875,-0.92708 0.49479,-1.71875 0.92188,-2.375c0.4375,-0.66667 1.01042,-1.17187 1.71875,-1.51562c0.71875,-0.35417 1.60417,-0.53125 2.65625,-0.53125c0.95833,0 1.77083,0.15625 2.4375,0.46875c0.67708,0.30208 1.22917,0.74479 1.65625,1.32813c0.42708,0.58333 0.73438,1.29167 0.92188,2.125c0.19792,0.82292 0.29688,1.75 0.29688,2.78125v3.45313h-3.70312v-3.21875c0,-1.23958 -0.10417,-2.15104 -0.3125,-2.73437c-0.20833,-0.59375 -0.63021,-0.89062 -1.26562,-0.89062c-0.69792,0 -1.16667,0.31771 -1.40625,0.95313c-0.22917,0.63542 -0.34375,1.52083 -0.34375,2.65625v11.78125c0,0.875 0.05208,1.59375 0.15625,2.15625c0.10417,0.55208 0.27083,0.96354 0.5,1.23438c0.23958,0.26042 0.57813,0.39063 1.01563,0.39063c0.64583,0 1.08333,-0.30729 1.3125,-0.92187c0.22917,-0.61458 0.34375,-1.58333 0.34375,-2.90625v-3.60937h3.76563v3.5625c0,1.59375 -0.1875,2.92708 -0.5625,4c-0.375,1.0625 -0.96354,1.85417 -1.76562,2.375c-0.80208,0.52083 -1.84896,0.78125 -3.14062,0.78125zM-31.45333,110.55161c-0.85417,0 -1.56771,-0.1875 -2.14062,-0.5625c-0.5625,-0.38542 -0.98437,-0.95833 -1.26562,-1.71875c-0.28125,-0.76042 -0.42187,-1.71354 -0.42187,-2.85937v-16.60937h3.8125v16.03125c0,0.82292 0.09896,1.46354 0.29688,1.92188c0.19792,0.45833 0.61979,0.6875 1.26563,0.6875c0.66667,0 1.11979,-0.26042 1.35938,-0.78125c0.23958,-0.52083 0.35938,-1.11979 0.35938,-1.79687l0.01563,-16.0625h3.78125v21.48438h-3.79687v-2.23437c-0.26042,0.72917 -0.64583,1.32813 -1.15625,1.79688c-0.5,0.46875 -1.20312,0.70313 -2.10937,0.70313zM-20.67726,110.28598v-21.48437h3.82813v2.39063c0.25,-0.82292 0.68229,-1.46875 1.29688,-1.9375c0.61458,-0.46875 1.39583,-0.70312 2.34375,-0.70312c0.02083,0 0.03125,0.16146 0.03125,0.48438c0.01042,0.32292 0.01563,0.69792 0.01563,1.125c0,0.41667 0,0.78646 0,1.10938c0,0.32292 0,0.48438 0,0.48438c-0.4375,0 -0.91146,0.05208 -1.42187,0.15625c-0.51042,0.10417 -0.97396,0.26563 -1.39062,0.48438c-0.41667,0.20833 -0.70833,0.48958 -0.875,0.84375v17.04688zM-10.69595,110.28598v-21.48437h3.82813v2.39063c0.25,-0.82292 0.68229,-1.46875 1.29688,-1.9375c0.61458,-0.46875 1.39583,-0.70312 2.34375,-0.70312c0.02083,0 0.03125,0.16146 0.03125,0.48438c0.01042,0.32292 0.01563,0.69792 0.01563,1.125c0,0.41667 0,0.78646 0,1.10938c0,0.32292 0,0.48438 0,0.48438c-0.4375,0 -0.91146,0.05208 -1.42187,0.15625c-0.51042,0.10417 -0.97396,0.26563 -1.39062,0.48438c-0.41667,0.20833 -0.70833,0.48958 -0.875,0.84375v17.04688zM4.28536,110.53598c-1.08333,0 -1.97396,-0.16667 -2.67187,-0.5c-0.6875,-0.34375 -1.22396,-0.83854 -1.60937,-1.48437c-0.38542,-0.65625 -0.65625,-1.4375 -0.8125,-2.34375c-0.14583,-0.91667 -0.21875,-1.9375 -0.21875,-3.0625v-8.01562c0,-1 0.09896,-1.90625 0.29688,-2.71875c0.20833,-0.8125 0.53125,-1.50521 0.96875,-2.07812c0.4375,-0.57292 1,-1.01042 1.6875,-1.3125c0.69792,-0.3125 1.54167,-0.46875 2.53125,-0.46875c1,0 1.83333,0.15104 2.5,0.45313c0.66667,0.30208 1.19271,0.74479 1.57813,1.32813c0.39583,0.58333 0.67708,1.28646 0.84375,2.10938c0.16667,0.8125 0.25,1.73438 0.25,2.76563v4.59375h-6.82812v4.21875c0,1.04167 0.07813,1.88021 0.23438,2.51563c0.16667,0.625 0.60938,0.9375 1.32813,0.9375c0.48958,0 0.83333,-0.14583 1.03125,-0.4375c0.20833,-0.29167 0.33333,-0.69792 0.375,-1.21875c0.05208,-0.52083 0.07813,-1.11979 0.07813,-1.79687v-1.875h3.75v1.14063c0,1.15625 -0.07292,2.18229 -0.21875,3.07813c-0.13542,0.89583 -0.39062,1.65625 -0.76562,2.28125c-0.375,0.61458 -0.91146,1.08333 -1.60937,1.40625c-0.69792,0.32292 -1.60417,0.48438 -2.71875,0.48438zM2.78536,97.58286h3.0625v-2.75c0,-0.71875 -0.03646,-1.32292 -0.10937,-1.8125c-0.0625,-0.48958 -0.19792,-0.85937 -0.40625,-1.10937c-0.19792,-0.25 -0.5,-0.375 -0.90625,-0.375c-0.51042,0 -0.88021,0.15104 -1.10937,0.45313c-0.22917,0.29167 -0.375,0.69271 -0.4375,1.20313c-0.0625,0.51042 -0.09375,1.09375 -0.09375,1.75zM12.80249,110.28598v-21.48437h3.79688v2.46875c0.1875,-0.73958 0.58854,-1.375 1.20313,-1.90625c0.61458,-0.54167 1.36458,-0.8125 2.25,-0.8125c1.23958,0 2.16667,0.41146 2.78125,1.23438c0.625,0.82292 0.9375,2.02083 0.9375,3.59375v16.90625h-3.79687v-16.6875c0,-0.61458 -0.14062,-1.09896 -0.42187,-1.45312c-0.28125,-0.35417 -0.66667,-0.53125 -1.15625,-0.53125c-0.38542,0 -0.71354,0.10938 -0.98437,0.32813c-0.27083,0.20833 -0.47396,0.50521 -0.60937,0.89063c-0.13542,0.375 -0.20312,0.8125 -0.20312,1.3125v16.14063zM31.28428,110.42661c-0.91667,0 -1.61979,-0.11458 -2.10937,-0.34375c-0.47917,-0.23958 -0.8125,-0.60937 -1,-1.10937c-0.17708,-0.51042 -0.26562,-1.16667 -0.26562,-1.96875v-15h-1.75v-2.75h1.75v-4.17187h3.79688v4.17188h2.09375v2.75h-2.09375v14.34375c0,0.33333 0.05208,0.58854 0.15625,0.76563c0.10417,0.16667 0.3125,0.28125 0.625,0.34375c0.3125,0.05208 0.77083,0.07813 1.375,0.07813v2.89063zM36.56131,110.28598v-25.42187h3.78125v25.42188zM43.55606,114.08286v-2.625h1.23438c0.42708,0 0.78125,-0.03646 1.0625,-0.10937c0.29167,-0.07292 0.45313,-0.22917 0.48438,-0.46875c0.07292,-0.11458 0.09896,-0.33333 0.07813,-0.65625c-0.02083,-0.32292 -0.05208,-0.625 -0.09375,-0.90625l-3.4375,-20.51562h3.60938l1.375,10.98438l0.57813,5.78125h0.3125l0.51563,-5.78125l1.26563,-10.98437h3.59375l-3.71875,22.40625c-0.11458,0.67708 -0.26562,1.22396 -0.45312,1.64063c-0.17708,0.42708 -0.45312,0.73958 -0.82812,0.9375c-0.375,0.19792 -0.89062,0.29688 -1.54687,0.29688zM55.75571,115.12973l1,-4.84375h-1.79687v-3.84375h4.125v3.71875l-1.45312,4.96875zM71.28089,110.42661c-0.91667,0 -1.61979,-0.11458 -2.10937,-0.34375c-0.47917,-0.23958 -0.8125,-0.60937 -1,-1.10937c-0.17708,-0.51042 -0.26562,-1.16667 -0.26562,-1.96875v-15h-1.75v-2.75h1.75v-4.17187h3.79688v4.17188h2.09375v2.75h-2.09375v14.34375c0,0.33333 0.05208,0.58854 0.15625,0.76563c0.10417,0.16667 0.3125,0.28125 0.625,0.34375c0.3125,0.05208 0.77083,0.07813 1.375,0.07813v2.89063zM76.6048,110.28598v-25.42187h3.79688v6.40625c0.1875,-0.73958 0.56771,-1.375 1.14063,-1.90625c0.58333,-0.54167 1.3125,-0.8125 2.1875,-0.8125c1.25,0 2.19271,0.41146 2.82813,1.23438c0.63542,0.82292 0.95313,2.02083 0.95313,3.59375v16.90625h-3.78125v-16.54687c0,-0.6875 -0.13021,-1.20312 -0.39062,-1.54687c-0.26042,-0.35417 -0.63542,-0.53125 -1.125,-0.53125c-0.39583,0 -0.72917,0.10938 -1,0.32813c-0.27083,0.21875 -0.47396,0.53125 -0.60937,0.9375c-0.13542,0.39583 -0.20312,0.85938 -0.20312,1.39063v15.96875zM96.16468,110.53598c-1.08333,0 -1.97396,-0.16667 -2.67187,-0.5c-0.6875,-0.34375 -1.22396,-0.83854 -1.60937,-1.48437c-0.38542,-0.65625 -0.65625,-1.4375 -0.8125,-2.34375c-0.14583,-0.91667 -0.21875,-1.9375 -0.21875,-3.0625v-8.01562c0,-1 0.09896,-1.90625 0.29688,-2.71875c0.20833,-0.8125 0.53125,-1.50521 0.96875,-2.07812c0.4375,-0.57292 1,-1.01042 1.6875,-1.3125c0.69792,-0.3125 1.54167,-0.46875 2.53125,-0.46875c1,0 1.83333,0.15104 2.5,0.45313c0.66667,0.30208 1.19271,0.74479 1.57813,1.32813c0.39583,0.58333 0.67708,1.28646 0.84375,2.10938c0.16667,0.8125 0.25,1.73438 0.25,2.76563v4.59375h-6.82812v4.21875c0,1.04167 0.07813,1.88021 0.23438,2.51563c0.16667,0.625 0.60938,0.9375 1.32813,0.9375c0.48958,0 0.83333,-0.14583 1.03125,-0.4375c0.20833,-0.29167 0.33333,-0.69792 0.375,-1.21875c0.05208,-0.52083 0.07813,-1.11979 0.07813,-1.79687v-1.875h3.75v1.14063c0,1.15625 -0.07292,2.18229 -0.21875,3.07813c-0.13542,0.89583 -0.39062,1.65625 -0.76562,2.28125c-0.375,0.61458 -0.91146,1.08333 -1.60937,1.40625c-0.69792,0.32292 -1.60417,0.48438 -2.71875,0.48438zM94.66468,97.58286h3.0625v-2.75c0,-0.71875 -0.03646,-1.32292 -0.10937,-1.8125c-0.0625,-0.48958 -0.19792,-0.85937 -0.40625,-1.10937c-0.19792,-0.25 -0.5,-0.375 -0.90625,-0.375c-0.51042,0 -0.88021,0.15104 -1.10937,0.45313c-0.22917,0.29167 -0.375,0.69271 -0.4375,1.20313c-0.0625,0.51042 -0.09375,1.09375 -0.09375,1.75zM109.95304,110.28598v-25.42187h3.78125v25.42188zM121.05716,110.50473c-1.47917,0 -2.50521,-0.53646 -3.07812,-1.60937c-0.5625,-1.07292 -0.84896,-2.48958 -0.85937,-4.25v-1.375c0,-1.14583 0.16146,-2.07812 0.48438,-2.79687c0.33333,-0.71875 0.80208,-1.30208 1.40625,-1.75c0.61458,-0.44792 1.34375,-0.83854 2.1875,-1.17187c0.85417,-0.33333 1.80208,-0.69271 2.84375,-1.07812v-1.875c0,-0.71875 -0.03125,-1.29687 -0.09375,-1.73437c-0.05208,-0.4375 -0.17708,-0.75521 -0.375,-0.95312c-0.19792,-0.19792 -0.51042,-0.29687 -0.9375,-0.29687c-0.40625,0 -0.71875,0.10417 -0.9375,0.3125c-0.20833,0.19792 -0.35417,0.51042 -0.4375,0.9375c-0.07292,0.42708 -0.10937,0.96875 -0.10937,1.625v0.96875h-3.75v-0.65625c0,-0.97917 0.08333,-1.85417 0.25,-2.625c0.16667,-0.78125 0.44792,-1.4375 0.84375,-1.96875c0.40625,-0.54167 0.95313,-0.95312 1.64063,-1.23437c0.69792,-0.28125 1.57292,-0.42187 2.625,-0.42187c0.92708,0 1.71875,0.13021 2.375,0.39063c0.65625,0.26042 1.1875,0.65104 1.59375,1.17188c0.41667,0.52083 0.71875,1.17188 0.90625,1.95313c0.19792,0.78125 0.29688,1.69271 0.29688,2.73438v15.48438h-3.82812v-2.14062c-0.11458,0.41667 -0.3125,0.80729 -0.59375,1.17188c-0.27083,0.35417 -0.61458,0.64063 -1.03125,0.85938c-0.41667,0.21875 -0.89062,0.32813 -1.42187,0.32813zM122.36966,107.58286c0.47917,0 0.85938,-0.17187 1.14063,-0.51562c0.29167,-0.34375 0.46875,-0.69271 0.53125,-1.04687v-7.39062c-0.57292,0.26042 -1.05729,0.50521 -1.45312,0.73438c-0.38542,0.21875 -0.69792,0.46354 -0.9375,0.73438c-0.23958,0.26042 -0.41146,0.57292 -0.51562,0.9375c-0.10417,0.36458 -0.15625,0.80729 -0.15625,1.32813v2.40625c0,0.98958 0.09896,1.70833 0.29688,2.15625c0.20833,0.4375 0.57292,0.65625 1.09375,0.65625zM138.26044,110.50473c-0.63542,0 -1.21354,-0.17187 -1.73437,-0.51562c-0.52083,-0.35417 -0.93229,-0.92187 -1.23437,-1.70312v2h-3.79687v-25.42187h3.79688v5.48438c0.21875,-0.5625 0.58854,-1 1.10938,-1.3125c0.52083,-0.3125 1.04688,-0.47396 1.57813,-0.48437c1.13542,-0.02083 2.01042,0.24479 2.625,0.79688c0.625,0.54167 1.05729,1.30208 1.29688,2.28125c0.25,0.96875 0.375,2.08333 0.375,3.34375v9.09375c0,1.21875 -0.11979,2.31771 -0.35937,3.29688c-0.23958,0.96875 -0.65104,1.73438 -1.23437,2.29688c-0.58333,0.5625 -1.39062,0.84375 -2.42187,0.84375zM136.99482,107.45786c0.65625,0 1.0625,-0.3125 1.21875,-0.9375c0.16667,-0.63542 0.25,-1.57292 0.25,-2.8125v-8.78125c0,-0.65625 -0.03125,-1.22917 -0.09375,-1.71875c-0.0625,-0.5 -0.19271,-0.89062 -0.39062,-1.17187c-0.19792,-0.28125 -0.52083,-0.42187 -0.96875,-0.42187c-0.38542,0 -0.70833,0.09896 -0.96875,0.29688c-0.26042,0.1875 -0.45312,0.52083 -0.57812,1c-0.11458,0.46875 -0.17187,1.13542 -0.17187,2v8.84375c0,1.1875 0.09896,2.10417 0.29688,2.75c0.20833,0.63542 0.67708,0.95313 1.40625,0.95313zM151.05774,110.28598v-21.48437h3.79688v21.48438zM151.04212,86.83286v-3.29687h3.82813v3.29688zM163.12281,110.55161c-1.72917,0 -3.01562,-0.48958 -3.85937,-1.46875c-0.83333,-0.97917 -1.25,-2.58854 -1.25,-4.82812v-1.39062h3.5625v1.73438c0,0.9375 0.11458,1.65104 0.34375,2.14063c0.22917,0.47917 0.60417,0.71875 1.125,0.71875c0.48958,0 0.85417,-0.16667 1.09375,-0.5c0.23958,-0.33333 0.35938,-0.91146 0.35938,-1.73437c0,-0.46875 -0.06771,-0.92708 -0.20312,-1.375c-0.13542,-0.45833 -0.34896,-0.90104 -0.64062,-1.32812c-0.29167,-0.4375 -0.66667,-0.85937 -1.125,-1.26562l-1.9375,-1.75c-0.88542,-0.80208 -1.55208,-1.66667 -2,-2.59375c-0.4375,-0.9375 -0.65625,-1.96875 -0.65625,-3.09375c0,-1.82292 0.42708,-3.15625 1.28125,-4c0.85417,-0.84375 2.125,-1.26562 3.8125,-1.26562c1.08333,0 1.98438,0.20313 2.70313,0.60938c0.71875,0.40625 1.25,1.0625 1.59375,1.96875c0.35417,0.90625 0.53125,2.11979 0.53125,3.64063v1.1875h-3.39062v-1.42187c0,-0.94792 -0.10937,-1.66146 -0.32812,-2.14062c-0.20833,-0.48958 -0.56771,-0.73437 -1.07812,-0.73437c-0.51042,0 -0.88542,0.14063 -1.125,0.42188c-0.23958,0.28125 -0.36979,0.77604 -0.39062,1.48438c-0.01042,0.375 0.03646,0.75 0.14063,1.125c0.11458,0.36458 0.28125,0.72396 0.5,1.07813c0.22917,0.34375 0.52083,0.68229 0.875,1.01563l2.04688,1.84375c1.0625,0.96875 1.84896,1.97917 2.35938,3.03125c0.51042,1.04167 0.76563,2.17188 0.76563,3.39063c0,1.8125 -0.41146,3.18229 -1.23437,4.10938c-0.8125,0.92708 -2.10417,1.39063 -3.875,1.39063zM179.97254,110.55161c-0.85417,0 -1.56771,-0.1875 -2.14062,-0.5625c-0.5625,-0.38542 -0.98437,-0.95833 -1.26562,-1.71875c-0.28125,-0.76042 -0.42187,-1.71354 -0.42187,-2.85937v-16.60937h3.8125v16.03125c0,0.82292 0.09896,1.46354 0.29688,1.92188c0.19792,0.45833 0.61979,0.6875 1.26563,0.6875c0.66667,0 1.11979,-0.26042 1.35938,-0.78125c0.23958,-0.52083 0.35938,-1.11979 0.35938,-1.79687l0.01563,-16.0625h3.78125v21.48438h-3.79687v-2.23437c-0.26042,0.72917 -0.64583,1.32813 -1.15625,1.79688c-0.5,0.46875 -1.20312,0.70313 -2.10937,0.70313zM190.73297,110.28598v-21.48437h3.79688v2.46875c0.1875,-0.73958 0.58854,-1.375 1.20313,-1.90625c0.61458,-0.54167 1.36458,-0.8125 2.25,-0.8125c1.23958,0 2.16667,0.41146 2.78125,1.23438c0.625,0.82292 0.9375,2.02083 0.9375,3.59375v16.90625h-3.79687v-16.6875c0,-0.61458 -0.14062,-1.09896 -0.42187,-1.45312c-0.28125,-0.35417 -0.66667,-0.53125 -1.15625,-0.53125c-0.38542,0 -0.71354,0.10938 -0.98437,0.32813c-0.27083,0.20833 -0.47396,0.50521 -0.60937,0.89063c-0.13542,0.375 -0.20312,0.8125 -0.20312,1.3125v16.14063zM210.41791,110.53598c-1.03125,0 -1.89583,-0.15625 -2.59375,-0.46875c-0.6875,-0.32292 -1.23437,-0.78646 -1.64062,-1.39062c-0.40625,-0.60417 -0.69792,-1.34375 -0.875,-2.21875c-0.17708,-0.875 -0.26562,-1.86979 -0.26562,-2.98437v-8.03125c0,-1.35417 0.17188,-2.54687 0.51563,-3.57812c0.35417,-1.04167 0.92708,-1.85417 1.71875,-2.4375c0.79167,-0.58333 1.83854,-0.875 3.14063,-0.875c1,0 1.83854,0.16667 2.51563,0.5c0.6875,0.33333 1.23958,0.80729 1.65625,1.42188c0.41667,0.61458 0.71875,1.34375 0.90625,2.1875c0.1875,0.83333 0.28125,1.76042 0.28125,2.78125v8.03125c0,1.09375 -0.08333,2.07813 -0.25,2.95313c-0.16667,0.86458 -0.45312,1.60417 -0.85937,2.21875c-0.40625,0.61458 -0.95312,1.08333 -1.64062,1.40625c-0.6875,0.32292 -1.55729,0.48438 -2.60937,0.48438zM210.41791,107.47348c0.4375,0 0.76563,-0.13021 0.98438,-0.39062c0.21875,-0.26042 0.36458,-0.625 0.4375,-1.09375c0.07292,-0.46875 0.10938,-1.01042 0.10938,-1.625v-9.59375c0,-0.65625 -0.04167,-1.21875 -0.125,-1.6875c-0.08333,-0.46875 -0.23437,-0.82812 -0.45312,-1.07812c-0.21875,-0.26042 -0.53646,-0.39062 -0.95312,-0.39062c-0.42708,0 -0.75521,0.13021 -0.98437,0.39063c-0.21875,0.25 -0.36979,0.60938 -0.45312,1.07813c-0.07292,0.46875 -0.10937,1.03125 -0.10937,1.6875v9.59375c0,0.61458 0.03646,1.15625 0.10938,1.625c0.08333,0.46875 0.23438,0.83333 0.45313,1.09375c0.22917,0.26042 0.55729,0.39063 0.98438,0.39063zM219.24616,114.36411v-25.5625h3.79688v1.9375c0.27083,-0.70833 0.70313,-1.24479 1.29688,-1.60937c0.59375,-0.36458 1.19271,-0.54687 1.79688,-0.54687c1.09375,0 1.92188,0.29688 2.48438,0.89063c0.5625,0.58333 0.94271,1.38542 1.14063,2.40625c0.20833,1.01042 0.3125,2.14583 0.3125,3.40625v7.82813c0,1.375 -0.09896,2.625 -0.29687,3.75c-0.1875,1.125 -0.58854,2.02083 -1.20312,2.6875c-0.61458,0.65625 -1.55208,0.98438 -2.8125,0.98438c-0.58333,0 -1.11458,-0.15625 -1.59375,-0.46875c-0.47917,-0.3125 -0.85417,-0.67187 -1.125,-1.07812v5.375zM224.71491,107.45786c0.63542,0 1.04688,-0.3125 1.23438,-0.9375c0.19792,-0.625 0.29688,-1.51562 0.29688,-2.67187v-8.90625c0,-0.625 -0.03125,-1.1875 -0.09375,-1.6875c-0.0625,-0.5 -0.19792,-0.89583 -0.40625,-1.1875c-0.20833,-0.30208 -0.54167,-0.45312 -1,-0.45312c-0.35417,0 -0.66146,0.09375 -0.92187,0.28125c-0.25,0.17708 -0.44271,0.50521 -0.57812,0.98438c-0.13542,0.46875 -0.20312,1.15104 -0.20312,2.04688v9.07813c0,1.09375 0.10417,1.94271 0.3125,2.54688c0.20833,0.60417 0.66146,0.90625 1.35938,0.90625zM238.53791,110.53598c-1.08333,0 -1.97396,-0.16667 -2.67187,-0.5c-0.6875,-0.34375 -1.22396,-0.83854 -1.60937,-1.48437c-0.38542,-0.65625 -0.65625,-1.4375 -0.8125,-2.34375c-0.14583,-0.91667 -0.21875,-1.9375 -0.21875,-3.0625v-8.01562c0,-1 0.09896,-1.90625 0.29688,-2.71875c0.20833,-0.8125 0.53125,-1.50521 0.96875,-2.07812c0.4375,-0.57292 1,-1.01042 1.6875,-1.3125c0.69792,-0.3125 1.54167,-0.46875 2.53125,-0.46875c1,0 1.83333,0.15104 2.5,0.45313c0.66667,0.30208 1.19271,0.74479 1.57813,1.32813c0.39583,0.58333 0.67708,1.28646 0.84375,2.10938c0.16667,0.8125 0.25,1.73438 0.25,2.76563v4.59375h-6.82812v4.21875c0,1.04167 0.07813,1.88021 0.23438,2.51563c0.16667,0.625 0.60938,0.9375 1.32813,0.9375c0.48958,0 0.83333,-0.14583 1.03125,-0.4375c0.20833,-0.29167 0.33333,-0.69792 0.375,-1.21875c0.05208,-0.52083 0.07813,-1.11979 0.07813,-1.79687v-1.875h3.75v1.14063c0,1.15625 -0.07292,2.18229 -0.21875,3.07813c-0.13542,0.89583 -0.39062,1.65625 -0.76562,2.28125c-0.375,0.61458 -0.91146,1.08333 -1.60937,1.40625c-0.69792,0.32292 -1.60417,0.48438 -2.71875,0.48438zM237.03791,97.58286h3.0625v-2.75c0,-0.71875 -0.03646,-1.32292 -0.10937,-1.8125c-0.0625,-0.48958 -0.19792,-0.85937 -0.40625,-1.10937c-0.19792,-0.25 -0.5,-0.375 -0.90625,-0.375c-0.51042,0 -0.88021,0.15104 -1.10937,0.45313c-0.22917,0.29167 -0.375,0.69271 -0.4375,1.20313c-0.0625,0.51042 -0.09375,1.09375 -0.09375,1.75zM247.05506,110.28598v-21.48437h3.79688v2.46875c0.1875,-0.73958 0.58854,-1.375 1.20313,-1.90625c0.61458,-0.54167 1.36458,-0.8125 2.25,-0.8125c1.23958,0 2.16667,0.41146 2.78125,1.23438c0.625,0.82292 0.9375,2.02083 0.9375,3.59375v16.90625h-3.79687v-16.6875c0,-0.61458 -0.14062,-1.09896 -0.42187,-1.45312c-0.28125,-0.35417 -0.66667,-0.53125 -1.15625,-0.53125c-0.38542,0 -0.71354,0.10938 -0.98437,0.32813c-0.27083,0.20833 -0.47396,0.50521 -0.60937,0.89063c-0.13542,0.375 -0.20312,0.8125 -0.20312,1.3125v16.14063zM266.67746,110.53598c-1.08333,0 -1.97396,-0.16667 -2.67187,-0.5c-0.6875,-0.34375 -1.22396,-0.83854 -1.60937,-1.48437c-0.38542,-0.65625 -0.65625,-1.4375 -0.8125,-2.34375c-0.14583,-0.91667 -0.21875,-1.9375 -0.21875,-3.0625v-8.01562c0,-1 0.09896,-1.90625 0.29688,-2.71875c0.20833,-0.8125 0.53125,-1.50521 0.96875,-2.07812c0.4375,-0.57292 1,-1.01042 1.6875,-1.3125c0.69792,-0.3125 1.54167,-0.46875 2.53125,-0.46875c1,0 1.83333,0.15104 2.5,0.45313c0.66667,0.30208 1.19271,0.74479 1.57813,1.32813c0.39583,0.58333 0.67708,1.28646 0.84375,2.10938c0.16665,0.8125 0.24997,1.73438 0.24997,2.76563v4.59375h-6.82809v4.21875c0,1.04167 0.07813,1.88021 0.23438,2.51563c0.16667,0.625 0.60938,0.9375 1.32813,0.9375c0.48958,0 0.83333,-0.14583 1.03125,-0.4375c0.20833,-0.29167 0.33333,-0.69792 0.375,-1.21875c0.05208,-0.52083 0.07813,-1.11979 0.07813,-1.79687v-1.875h3.75v1.14063c0,1.15625 -0.07292,2.18229 -0.21875,3.07813c-0.13542,0.89583 -0.39062,1.65625 -0.76562,2.28125c-0.375,0.61458 -0.91146,1.08333 -1.60937,1.40625c-0.69792,0.32292 -1.60417,0.48438 -2.71875,0.48438zM265.17746,97.58286h3.0625v-2.75c0,-0.71875 -0.03646,-1.32292 -0.10937,-1.8125c-0.0625,-0.48958 -0.19792,-0.85937 -0.40625,-1.10937c-0.19792,-0.25 -0.5,-0.375 -0.90625,-0.375c-0.51042,0 -0.88021,0.15104 -1.10937,0.45313c-0.22917,0.29167 -0.375,0.69271 -0.4375,1.20313c-0.0625,0.51042 -0.09375,1.09375 -0.09375,1.75zM278.85083,110.50473c-1.16667,0 -2.03125,-0.3125 -2.59375,-0.9375c-0.5625,-0.625 -0.93229,-1.47396 -1.10937,-2.54687c-0.16667,-1.07292 -0.25,-2.27083 -0.25,-3.59375v-8.75c0,-1.15625 0.13542,-2.19271 0.40625,-3.10937c0.28125,-0.92708 0.73438,-1.66146 1.35938,-2.20312c0.625,-0.54167 1.45313,-0.8125 2.48438,-0.8125c0.61458,0 1.16146,0.14583 1.64063,0.4375c0.48958,0.29167 0.86979,0.67188 1.14063,1.14063v-5.26562h3.79688v25.42188h-3.79687v-1.98437c-0.29167,0.71875 -0.69792,1.26563 -1.21875,1.64063c-0.51042,0.375 -1.13021,0.5625 -1.85937,0.5625zM280.25708,107.47348c0.45833,0 0.80729,-0.13542 1.04688,-0.40625c0.23958,-0.27083 0.40625,-0.6875 0.5,-1.25c0.09375,-0.57292 0.14063,-1.29167 0.14063,-2.15625v-8.59375c0,-1.05208 -0.10417,-1.88542 -0.3125,-2.5c-0.20833,-0.625 -0.65104,-0.9375 -1.32812,-0.9375c-0.64583,0 -1.07292,0.30208 -1.28125,0.90625c-0.19792,0.60417 -0.29687,1.46354 -0.29687,2.57813v8.82813c0,0.73958 0.04167,1.375 0.125,1.90625c0.09375,0.52083 0.25,0.92188 0.46875,1.20313c0.21875,0.28125 0.53125,0.42188 0.9375,0.42188zM298.39814,110.50473c-1.16667,0 -2.03125,-0.3125 -2.59375,-0.9375c-0.5625,-0.625 -0.93229,-1.47396 -1.10937,-2.54687c-0.16667,-1.07292 -0.25,-2.27083 -0.25,-3.59375v-8.75c0,-1.15625 0.13542,-2.19271 0.40625,-3.10937c0.28125,-0.92708 0.73438,-1.66146 1.35938,-2.20312c0.625,-0.54167 1.45313,-0.8125 2.48438,-0.8125c0.61458,0 1.16146,0.14583 1.64063,0.4375c0.48958,0.29167 0.86979,0.67188 1.14063,1.14063v-5.26562h3.79688v25.42188h-3.79687v-1.98437c-0.29167,0.71875 -0.69792,1.26563 -1.21875,1.64063c-0.51042,0.375 -1.13021,0.5625 -1.85937,0.5625zM299.80439,107.47348c0.45833,0 0.80729,-0.13542 1.04688,-0.40625c0.23958,-0.27083 0.40625,-0.6875 0.5,-1.25c0.09375,-0.57292 0.14063,-1.29167 0.14063,-2.15625v-8.59375c0,-1.05208 -0.10417,-1.88542 -0.3125,-2.5c-0.20833,-0.625 -0.65104,-0.9375 -1.32812,-0.9375c-0.64583,0 -1.07292,0.30208 -1.28125,0.90625c-0.19792,0.60417 -0.29687,1.46354 -0.29687,2.57813v8.82813c0,0.73958 0.04167,1.375 0.125,1.90625c0.09375,0.52083 0.25,0.92188 0.46875,1.20313c0.21875,0.28125 0.53125,0.42188 0.9375,0.42188zM312.73676,110.55161c-0.85417,0 -1.56771,-0.1875 -2.14062,-0.5625c-0.5625,-0.38542 -0.98437,-0.95833 -1.26562,-1.71875c-0.28125,-0.76042 -0.42187,-1.71354 -0.42187,-2.85937v-16.60937h3.8125v16.03125c0,0.82292 0.09896,1.46354 0.29688,1.92188c0.19792,0.45833 0.61979,0.6875 1.26563,0.6875c0.66667,0 1.11979,-0.26042 1.35938,-0.78125c0.23958,-0.52083 0.35938,-1.11979 0.35938,-1.79687l0.01563,-16.0625h3.78125v21.48438h-3.79687v-2.23437c-0.26042,0.72917 -0.64583,1.32813 -1.15625,1.79688c-0.5,0.46875 -1.20312,0.70313 -2.10937,0.70313zM328.51282,110.53598c-1.08333,0 -1.97396,-0.16667 -2.67187,-0.5c-0.6875,-0.34375 -1.22396,-0.83854 -1.60937,-1.48437c-0.38542,-0.65625 -0.65625,-1.4375 -0.8125,-2.34375c-0.14583,-0.91667 -0.21875,-1.9375 -0.21875,-3.0625v-8.01562c0,-1 0.09896,-1.90625 0.29688,-2.71875c0.20833,-0.8125 0.53125,-1.50521 0.96875,-2.07812c0.4375,-0.57292 1,-1.01042 1.6875,-1.3125c0.69792,-0.3125 1.54167,-0.46875 2.53125,-0.46875c1,0 1.83333,0.15104 2.5,0.45313c0.66667,0.30208 1.19271,0.74479 1.57813,1.32813c0.39583,0.58333 0.67708,1.28646 0.84375,2.10938c0.16667,0.8125 0.25,1.73438 0.25,2.76563v4.59375h-6.82812v4.21875c0,1.04167 0.07813,1.88021 0.23438,2.51563c0.16667,0.625 0.60938,0.9375 1.32813,0.9375c0.48958,0 0.83333,-0.14583 1.03125,-0.4375c0.20833,-0.29167 0.33333,-0.69792 0.375,-1.21875c0.05208,-0.52083 0.07813,-1.11979 0.07813,-1.79687v-1.875h3.75v1.14063c0,1.15625 -0.07292,2.18229 -0.21875,3.07813c-0.13542,0.89583 -0.39062,1.65625 -0.76562,2.28125c-0.375,0.61458 -0.91146,1.08333 -1.60937,1.40625c-0.69792,0.32292 -1.60417,0.48438 -2.71875,0.48438zM327.01282,97.58286h3.0625v-2.75c0,-0.71875 -0.03646,-1.32292 -0.10937,-1.8125c-0.0625,-0.48958 -0.19792,-0.85937 -0.40625,-1.10937c-0.19792,-0.25 -0.5,-0.375 -0.90625,-0.375c-0.51042,0 -0.88021,0.15104 -1.10937,0.45313c-0.22917,0.29167 -0.375,0.69271 -0.4375,1.20313c-0.0625,0.51042 -0.09375,1.09375 -0.09375,1.75zM346.16053,110.42661c-0.91667,0 -1.61979,-0.11458 -2.10937,-0.34375c-0.47917,-0.23958 -0.8125,-0.60937 -1,-1.10937c-0.17708,-0.51042 -0.26562,-1.16667 -0.26562,-1.96875v-15h-1.75v-2.75h1.75v-4.17187h3.79688v4.17188h2.09375v2.75h-2.09375v14.34375c0,0.33333 0.05208,0.58854 0.15625,0.76563c0.10417,0.16667 0.3125,0.28125 0.625,0.34375c0.3125,0.05208 0.77083,0.07813 1.375,0.07813v2.89063zM356.50006,110.53598c-1.03125,0 -1.89583,-0.15625 -2.59375,-0.46875c-0.6875,-0.32292 -1.23437,-0.78646 -1.64062,-1.39062c-0.40625,-0.60417 -0.69792,-1.34375 -0.875,-2.21875c-0.17708,-0.875 -0.26562,-1.86979 -0.26562,-2.98437v-8.03125c0,-1.35417 0.17188,-2.54687 0.51563,-3.57812c0.35417,-1.04167 0.92708,-1.85417 1.71875,-2.4375c0.79167,-0.58333 1.83854,-0.875 3.14063,-0.875c1,0 1.83854,0.16667 2.51563,0.5c0.6875,0.33333 1.23958,0.80729 1.65625,1.42188c0.41667,0.61458 0.71875,1.34375 0.90625,2.1875c0.1875,0.83333 0.28125,1.76042 0.28125,2.78125v8.03125c0,1.09375 -0.08333,2.07813 -0.25,2.95313c-0.16667,0.86458 -0.45312,1.60417 -0.85937,2.21875c-0.40625,0.61458 -0.95312,1.08333 -1.64062,1.40625c-0.6875,0.32292 -1.55729,0.48438 -2.60937,0.48438zM356.50006,107.47348c0.4375,0 0.76563,-0.13021 0.98438,-0.39062c0.21875,-0.26042 0.36458,-0.625 0.4375,-1.09375c0.07292,-0.46875 0.10938,-1.01042 0.10938,-1.625v-9.59375c0,-0.65625 -0.04167,-1.21875 -0.125,-1.6875c-0.08333,-0.46875 -0.23437,-0.82812 -0.45312,-1.07812c-0.21875,-0.26042 -0.53646,-0.39062 -0.95312,-0.39062c-0.42708,0 -0.75521,0.13021 -0.98437,0.39063c-0.21875,0.25 -0.36979,0.60938 -0.45312,1.07813c-0.07292,0.46875 -0.10937,1.03125 -0.10937,1.6875v9.59375c0,0.61458 0.03646,1.15625 0.10938,1.625c0.08333,0.46875 0.23438,0.83333 0.45313,1.09375c0.22917,0.26042 0.55729,0.39063 0.98438,0.39063zM375.77137,110.53598c-1.10417,0 -2.01562,-0.16667 -2.73437,-0.5c-0.70833,-0.34375 -1.26562,-0.83333 -1.67187,-1.46875c-0.40625,-0.63542 -0.69271,-1.41146 -0.85937,-2.32812c-0.15625,-0.91667 -0.23437,-1.95312 -0.23437,-3.10937v-6.96875c0,-1.58333 0.14583,-2.94271 0.4375,-4.07812c0.30208,-1.13542 0.84896,-2.00521 1.64063,-2.60937c0.80208,-0.61458 1.95833,-0.92187 3.46875,-0.92187c0.91667,0 1.69271,0.14583 2.32813,0.4375c0.64583,0.28125 1.16146,0.69271 1.54688,1.23438c0.39583,0.53125 0.68229,1.18229 0.85938,1.95313c0.17708,0.76042 0.26563,1.61979 0.26563,2.57813v2.35938h-3.65625v-2.5c0,-0.61458 -0.03125,-1.14062 -0.09375,-1.57812c-0.05208,-0.44792 -0.18229,-0.78646 -0.39062,-1.01562c-0.19792,-0.23958 -0.51562,-0.35937 -0.95312,-0.35937c-0.42708,0 -0.76042,0.11979 -1,0.35938c-0.23958,0.22917 -0.40625,0.57292 -0.5,1.03125c-0.08333,0.45833 -0.125,1 -0.125,1.625v9.6875c0,0.64583 0.03646,1.19792 0.10938,1.65625c0.08333,0.45833 0.23438,0.8125 0.45313,1.0625c0.22917,0.23958 0.5625,0.35938 1,0.35938c0.4375,0 0.76042,-0.125 0.96875,-0.375c0.21875,-0.26042 0.35938,-0.61979 0.42188,-1.07812c0.07292,-0.45833 0.10938,-1 0.10938,-1.625v-2.54687h3.65625v2.1875c0,0.97917 -0.08854,1.875 -0.26562,2.6875c-0.16667,0.80208 -0.44792,1.48958 -0.84375,2.0625c-0.38542,0.57292 -0.90625,1.01563 -1.5625,1.32813c-0.64583,0.30208 -1.4375,0.45313 -2.375,0.45313zM389.07892,110.53598c-1.03125,0 -1.89583,-0.15625 -2.59375,-0.46875c-0.6875,-0.32292 -1.23437,-0.78646 -1.64062,-1.39062c-0.40625,-0.60417 -0.69792,-1.34375 -0.875,-2.21875c-0.17708,-0.875 -0.26562,-1.86979 -0.26562,-2.98437v-8.03125c0,-1.35417 0.17188,-2.54687 0.51563,-3.57812c0.35417,-1.04167 0.92708,-1.85417 1.71875,-2.4375c0.79167,-0.58333 1.83854,-0.875 3.14063,-0.875c1,0 1.83854,0.16667 2.51563,0.5c0.6875,0.33333 1.23958,0.80729 1.65625,1.42188c0.41667,0.61458 0.71875,1.34375 0.90625,2.1875c0.1875,0.83333 0.28125,1.76042 0.28125,2.78125v8.03125c0,1.09375 -0.08333,2.07813 -0.25,2.95313c-0.16667,0.86458 -0.45312,1.60417 -0.85937,2.21875c-0.40625,0.61458 -0.95312,1.08333 -1.64062,1.40625c-0.6875,0.32292 -1.55729,0.48438 -2.60937,0.48438zM389.07892,107.47348c0.4375,0 0.76563,-0.13021 0.98438,-0.39062c0.21875,-0.26042 0.36458,-0.625 0.4375,-1.09375c0.07292,-0.46875 0.10938,-1.01042 0.10938,-1.625v-9.59375c0,-0.65625 -0.04167,-1.21875 -0.125,-1.6875c-0.08333,-0.46875 -0.23437,-0.82812 -0.45312,-1.07812c-0.21875,-0.26042 -0.53646,-0.39062 -0.95312,-0.39062c-0.42708,0 -0.75521,0.13021 -0.98437,0.39063c-0.21875,0.25 -0.36979,0.60938 -0.45312,1.07813c-0.07292,0.46875 -0.10937,1.03125 -0.10937,1.6875v9.59375c0,0.61458 0.03646,1.15625 0.10938,1.625c0.08333,0.46875 0.23438,0.83333 0.45313,1.09375c0.22917,0.26042 0.55729,0.39063 0.98438,0.39063zM397.89154,110.28598v-21.48437h3.79688v2.46875c0.1875,-0.73958 0.58854,-1.375 1.20313,-1.90625c0.61458,-0.54167 1.36458,-0.8125 2.25,-0.8125c1.23958,0 2.16667,0.41146 2.78125,1.23438c0.625,0.82292 0.9375,2.02083 0.9375,3.59375v16.90625h-3.79687v-16.6875c0,-0.61458 -0.14062,-1.09896 -0.42187,-1.45312c-0.28125,-0.35417 -0.66667,-0.53125 -1.15625,-0.53125c-0.38542,0 -0.71354,0.10938 -0.98437,0.32813c-0.27083,0.20833 -0.47396,0.50521 -0.60937,0.89063c-0.13542,0.375 -0.20312,0.8125 -0.20312,1.3125v16.14063zM416.95142,110.55161c-1.72917,0 -3.01562,-0.48958 -3.85937,-1.46875c-0.83333,-0.97917 -1.25,-2.58854 -1.25,-4.82812v-1.39062h3.5625v1.73438c0,0.9375 0.11458,1.65104 0.34375,2.14063c0.22917,0.47917 0.60417,0.71875 1.125,0.71875c0.48958,0 0.85417,-0.16667 1.09375,-0.5c0.23958,-0.33333 0.35938,-0.91146 0.35938,-1.73437c0,-0.46875 -0.06771,-0.92708 -0.20312,-1.375c-0.13542,-0.45833 -0.34896,-0.90104 -0.64062,-1.32812c-0.29167,-0.4375 -0.66667,-0.85937 -1.125,-1.26562l-1.9375,-1.75c-0.88542,-0.80208 -1.55208,-1.66667 -2,-2.59375c-0.4375,-0.9375 -0.65625,-1.96875 -0.65625,-3.09375c0,-1.82292 0.42708,-3.15625 1.28125,-4c0.85417,-0.84375 2.125,-1.26562 3.8125,-1.26562c1.08333,0 1.98438,0.20313 2.70313,0.60938c0.71875,0.40625 1.25,1.0625 1.59375,1.96875c0.35417,0.90625 0.53125,2.11979 0.53125,3.64063v1.1875h-3.39062v-1.42187c0,-0.94792 -0.10937,-1.66146 -0.32812,-2.14062c-0.20833,-0.48958 -0.56771,-0.73437 -1.07812,-0.73437c-0.51042,0 -0.88542,0.14063 -1.125,0.42188c-0.23958,0.28125 -0.36979,0.77604 -0.39062,1.48438c-0.01042,0.375 0.03646,0.75 0.14063,1.125c0.11458,0.36458 0.28125,0.72396 0.5,1.07813c0.22917,0.34375 0.52083,0.68229 0.875,1.01563l2.04688,1.84375c1.0625,0.96875 1.84896,1.97917 2.35938,3.03125c0.51042,1.04167 0.76563,2.17188 0.76563,3.39063c0,1.8125 -0.41146,3.18229 -1.23437,4.10938c-0.8125,0.92708 -2.10417,1.39063 -3.875,1.39063zM428.71747,110.42661c-0.91667,0 -1.61979,-0.11458 -2.10937,-0.34375c-0.47917,-0.23958 -0.8125,-0.60937 -1,-1.10937c-0.17708,-0.51042 -0.26562,-1.16667 -0.26562,-1.96875v-15h-1.75v-2.75h1.75v-4.17187h3.79688v4.17188h2.09375v2.75h-2.09375v14.34375c0,0.33333 0.05208,0.58854 0.15625,0.76563c0.10417,0.16667 0.3125,0.28125 0.625,0.34375c0.3125,0.05208 0.77083,0.07813 1.375,0.07813v2.89063zM433.99451,110.28598v-21.48437h3.82813v2.39063c0.25,-0.82292 0.68229,-1.46875 1.29688,-1.9375c0.61458,-0.46875 1.39583,-0.70312 2.34375,-0.70312c0.02083,0 0.03125,0.16146 0.03125,0.48438c0.01042,0.32292 0.01563,0.69792 0.01563,1.125c0,0.41667 0,0.78646 0,1.10938c0,0.32292 0,0.48438 0,0.48438c-0.4375,0 -0.91146,0.05208 -1.42187,0.15625c-0.51042,0.10417 -0.97396,0.26563 -1.39062,0.48438c-0.41667,0.20833 -0.70833,0.48958 -0.875,0.84375v17.04688zM447.66333,110.55161c-0.85417,0 -1.56771,-0.1875 -2.14062,-0.5625c-0.5625,-0.38542 -0.98437,-0.95833 -1.26562,-1.71875c-0.28125,-0.76042 -0.42187,-1.71354 -0.42187,-2.85937v-16.60937h3.8125v16.03125c0,0.82292 0.09896,1.46354 0.29688,1.92188c0.19792,0.45833 0.61979,0.6875 1.26563,0.6875c0.66667,0 1.11979,-0.26042 1.35938,-0.78125c0.23958,-0.52083 0.35938,-1.11979 0.35938,-1.79687l0.01563,-16.0625h3.78125v21.48438h-3.79687v-2.23437c-0.26042,0.72917 -0.64583,1.32813 -1.15625,1.79688c-0.5,0.46875 -1.20312,0.70313 -2.10937,0.70313zM463.62689,110.53598c-1.10417,0 -2.01562,-0.16667 -2.73437,-0.5c-0.70833,-0.34375 -1.26562,-0.83333 -1.67187,-1.46875c-0.40625,-0.63542 -0.69271,-1.41146 -0.85937,-2.32812c-0.15625,-0.91667 -0.23437,-1.95312 -0.23437,-3.10937v-6.96875c0,-1.58333 0.14583,-2.94271 0.4375,-4.07812c0.30208,-1.13542 0.84896,-2.00521 1.64063,-2.60937c0.80208,-0.61458 1.95833,-0.92187 3.46875,-0.92187c0.91667,0 1.69271,0.14583 2.32813,0.4375c0.64583,0.28125 1.16146,0.69271 1.54688,1.23438c0.39583,0.53125 0.68229,1.18229 0.85938,1.95313c0.17708,0.76042 0.26563,1.61979 0.26563,2.57813v2.35938h-3.65625v-2.5c0,-0.61458 -0.03125,-1.14062 -0.09375,-1.57812c-0.05208,-0.44792 -0.18229,-0.78646 -0.39062,-1.01562c-0.19792,-0.23958 -0.51562,-0.35937 -0.95312,-0.35937c-0.42708,0 -0.76042,0.11979 -1,0.35938c-0.23958,0.22917 -0.40625,0.57292 -0.5,1.03125c-0.08333,0.45833 -0.125,1 -0.125,1.625v9.6875c0,0.64583 0.03646,1.19792 0.10938,1.65625c0.08333,0.45833 0.23438,0.8125 0.45313,1.0625c0.22917,0.23958 0.5625,0.35938 1,0.35938c0.4375,0 0.76042,-0.125 0.96875,-0.375c0.21875,-0.26042 0.35938,-0.61979 0.42188,-1.07812c0.07292,-0.45833 0.10938,-1 0.10938,-1.625v-2.54687h3.65625v2.1875c0,0.97917 -0.08854,1.875 -0.26562,2.6875c-0.16667,0.80208 -0.44792,1.48958 -0.84375,2.0625c-0.38542,0.57292 -0.90625,1.01563 -1.5625,1.32813c-0.64583,0.30208 -1.4375,0.45313 -2.375,0.45313zM475.73126,110.42661c-0.91667,0 -1.61979,-0.11458 -2.10937,-0.34375c-0.47917,-0.23958 -0.8125,-0.60937 -1,-1.10937c-0.17708,-0.51042 -0.26562,-1.16667 -0.26562,-1.96875v-15h-1.75v-2.75h1.75v-4.17187h3.79688v4.17188h2.09375v2.75h-2.09375v14.34375c0,0.33333 0.05208,0.58854 0.15625,0.76563c0.10417,0.16667 0.3125,0.28125 0.625,0.34375c0.3125,0.05208 0.77083,0.07813 1.375,0.07813v2.89063zM481.0708,110.28598v-21.48437h3.79688v21.48438zM481.05518,86.83286v-3.29687h3.82813v3.29688zM493.76087,110.53598c-1.03125,0 -1.89583,-0.15625 -2.59375,-0.46875c-0.6875,-0.32292 -1.23437,-0.78646 -1.64062,-1.39062c-0.40625,-0.60417 -0.69792,-1.34375 -0.875,-2.21875c-0.17708,-0.875 -0.26562,-1.86979 -0.26562,-2.98437v-8.03125c0,-1.35417 0.17188,-2.54687 0.51563,-3.57812c0.35417,-1.04167 0.92708,-1.85417 1.71875,-2.4375c0.79167,-0.58333 1.83854,-0.875 3.14063,-0.875c1,0 1.83854,0.16667 2.51563,0.5c0.6875,0.33333 1.23958,0.80729 1.65625,1.42188c0.41667,0.61458 0.71875,1.34375 0.90625,2.1875c0.1875,0.83333 0.28125,1.76042 0.28125,2.78125v8.03125c0,1.09375 -0.08333,2.07813 -0.25,2.95313c-0.16667,0.86458 -0.45312,1.60417 -0.85937,2.21875c-0.40625,0.61458 -0.95312,1.08333 -1.64062,1.40625c-0.6875,0.32292 -1.55729,0.48438 -2.60937,0.48438zM493.76087,107.47348c0.4375,0 0.76563,-0.13021 0.98438,-0.39062c0.21875,-0.26042 0.36458,-0.625 0.4375,-1.09375c0.07292,-0.46875 0.10938,-1.01042 0.10938,-1.625v-9.59375c0,-0.65625 -0.04167,-1.21875 -0.125,-1.6875c-0.08333,-0.46875 -0.23437,-0.82812 -0.45312,-1.07812c-0.21875,-0.26042 -0.53646,-0.39062 -0.95312,-0.39062c-0.42708,0 -0.75521,0.13021 -0.98437,0.39063c-0.21875,0.25 -0.36979,0.60938 -0.45312,1.07813c-0.07292,0.46875 -0.10937,1.03125 -0.10937,1.6875v9.59375c0,0.61458 0.03646,1.15625 0.10938,1.625c0.08333,0.46875 0.23438,0.83333 0.45313,1.09375c0.22917,0.26042 0.55729,0.39063 0.98438,0.39063zM502.57349,110.28598v-21.48437h3.79688v2.46875c0.1875,-0.73958 0.58854,-1.375 1.20313,-1.90625c0.61458,-0.54167 1.36458,-0.8125 2.25,-0.8125c1.23958,0 2.16667,0.41146 2.78125,1.23438c0.625,0.82292 0.9375,2.02083 0.9375,3.59375v16.90625h-3.79687v-16.6875c0,-0.61458 -0.14062,-1.09896 -0.42187,-1.45312c-0.28125,-0.35417 -0.66667,-0.53125 -1.15625,-0.53125c-0.38542,0 -0.71354,0.10938 -0.98437,0.32813c-0.27083,0.20833 -0.47396,0.50521 -0.60937,0.89063c-0.13542,0.375 -0.20312,0.8125 -0.20312,1.3125v16.14063zM517.44586,110.28598v-3.51562h3.21875v3.51563z" fill="#ffffff" fill-rule="nonzero"/><path d="M93.8985,145.486v-25.20312h5.78125c1,0 1.83333,0.15625 2.5,0.46875c0.66667,0.30208 1.1875,0.75521 1.5625,1.35938c0.38542,0.59375 0.65625,1.33333 0.8125,2.21875c0.16667,0.88542 0.25,1.90625 0.25,3.0625v0.51563c0,1.625 -0.14062,3.01042 -0.42187,4.15625c-0.28125,1.13542 -0.78646,2 -1.51562,2.59375c-0.71875,0.59375 -1.73958,0.89063 -3.0625,0.89063h-2.0625v9.9375zM97.74225,132.37662h1.3125c0.5625,0 0.97917,-0.14062 1.25,-0.42187c0.28125,-0.29167 0.46875,-0.76562 0.5625,-1.42187c0.09375,-0.66667 0.14063,-1.55208 0.14063,-2.65625v-0.48437c-0.01042,-1.375 -0.13021,-2.41146 -0.35937,-3.10937c-0.22917,-0.69792 -0.75,-1.04687 -1.5625,-1.04687h-1.34375zM107.40262,145.486v-25.42187h3.78125v25.42188zM120.00675,145.736c-1.08333,0 -1.97396,-0.16667 -2.67187,-0.5c-0.6875,-0.34375 -1.22396,-0.83854 -1.60937,-1.48437c-0.38542,-0.65625 -0.65625,-1.4375 -0.8125,-2.34375c-0.14583,-0.91667 -0.21875,-1.9375 -0.21875,-3.0625v-8.01562c0,-1 0.09896,-1.90625 0.29688,-2.71875c0.20833,-0.8125 0.53125,-1.50521 0.96875,-2.07812c0.4375,-0.57292 1,-1.01042 1.6875,-1.3125c0.69792,-0.3125 1.54167,-0.46875 2.53125,-0.46875c1,0 1.83333,0.15104 2.5,0.45313c0.66667,0.30208 1.19271,0.74479 1.57813,1.32813c0.39583,0.58333 0.67708,1.28646 0.84375,2.10938c0.16667,0.8125 0.25,1.73438 0.25,2.76563v4.59375h-6.82812v4.21875c0,1.04167 0.07813,1.88021 0.23438,2.51563c0.16667,0.625 0.60938,0.9375 1.32813,0.9375c0.48958,0 0.83333,-0.14583 1.03125,-0.4375c0.20833,-0.29167 0.33333,-0.69792 0.375,-1.21875c0.05208,-0.52083 0.07813,-1.11979 0.07813,-1.79687v-1.875h3.75v1.14063c0,1.15625 -0.07292,2.18229 -0.21875,3.07813c-0.13542,0.89583 -0.39062,1.65625 -0.76562,2.28125c-0.375,0.61458 -0.91146,1.08333 -1.60937,1.40625c-0.69792,0.32292 -1.60417,0.48438 -2.71875,0.48438zM118.50675,132.78287h3.0625v-2.75c0,-0.71875 -0.03646,-1.32292 -0.10937,-1.8125c-0.0625,-0.48958 -0.19792,-0.85937 -0.40625,-1.10937c-0.19792,-0.25 -0.5,-0.375 -0.90625,-0.375c-0.51042,0 -0.88021,0.15104 -1.10937,0.45313c-0.22917,0.29167 -0.375,0.69271 -0.4375,1.20313c-0.0625,0.51042 -0.09375,1.09375 -0.09375,1.75zM132.03949,145.70475c-1.47917,0 -2.50521,-0.53646 -3.07812,-1.60937c-0.5625,-1.07292 -0.84896,-2.48958 -0.85937,-4.25v-1.375c0,-1.14583 0.16146,-2.07812 0.48438,-2.79687c0.33333,-0.71875 0.80208,-1.30208 1.40625,-1.75c0.61458,-0.44792 1.34375,-0.83854 2.1875,-1.17187c0.85417,-0.33333 1.80208,-0.69271 2.84375,-1.07812v-1.875c0,-0.71875 -0.03125,-1.29687 -0.09375,-1.73437c-0.05208,-0.4375 -0.17708,-0.75521 -0.375,-0.95312c-0.19792,-0.19792 -0.51042,-0.29687 -0.9375,-0.29687c-0.40625,0 -0.71875,0.10417 -0.9375,0.3125c-0.20833,0.19792 -0.35417,0.51042 -0.4375,0.9375c-0.07292,0.42708 -0.10937,0.96875 -0.10937,1.625v0.96875h-3.75v-0.65625c0,-0.97917 0.08333,-1.85417 0.25,-2.625c0.16667,-0.78125 0.44792,-1.4375 0.84375,-1.96875c0.40625,-0.54167 0.95313,-0.95312 1.64063,-1.23437c0.69792,-0.28125 1.57292,-0.42187 2.625,-0.42187c0.92708,0 1.71875,0.13021 2.375,0.39063c0.65625,0.26042 1.1875,0.65104 1.59375,1.17188c0.41667,0.52083 0.71875,1.17188 0.90625,1.95313c0.19792,0.78125 0.29688,1.69271 0.29688,2.73438v15.48438h-3.82812v-2.14062c-0.11458,0.41667 -0.3125,0.80729 -0.59375,1.17188c-0.27083,0.35417 -0.61458,0.64063 -1.03125,0.85938c-0.41667,0.21875 -0.89062,0.32813 -1.42187,0.32813zM133.35199,142.78287c0.47917,0 0.85938,-0.17187 1.14063,-0.51562c0.29167,-0.34375 0.46875,-0.69271 0.53125,-1.04687v-7.39062c-0.57292,0.26042 -1.05729,0.50521 -1.45312,0.73438c-0.38542,0.21875 -0.69792,0.46354 -0.9375,0.73438c-0.23958,0.26042 -0.41146,0.57292 -0.51562,0.9375c-0.10417,0.36458 -0.15625,0.80729 -0.15625,1.32813v2.40625c0,0.98958 0.09896,1.70833 0.29688,2.15625c0.20833,0.4375 0.57292,0.65625 1.09375,0.65625zM146.86777,145.75162c-1.72917,0 -3.01562,-0.48958 -3.85937,-1.46875c-0.83333,-0.97917 -1.25,-2.58854 -1.25,-4.82812v-1.39062h3.5625v1.73438c0,0.9375 0.11458,1.65104 0.34375,2.14063c0.22917,0.47917 0.60417,0.71875 1.125,0.71875c0.48958,0 0.85417,-0.16667 1.09375,-0.5c0.23958,-0.33333 0.35938,-0.91146 0.35938,-1.73437c0,-0.46875 -0.06771,-0.92708 -0.20312,-1.375c-0.13542,-0.45833 -0.34896,-0.90104 -0.64062,-1.32812c-0.29167,-0.4375 -0.66667,-0.85937 -1.125,-1.26562l-1.9375,-1.75c-0.88542,-0.80208 -1.55208,-1.66667 -2,-2.59375c-0.4375,-0.9375 -0.65625,-1.96875 -0.65625,-3.09375c0,-1.82292 0.42708,-3.15625 1.28125,-4c0.85417,-0.84375 2.125,-1.26562 3.8125,-1.26562c1.08333,0 1.98438,0.20313 2.70313,0.60938c0.71875,0.40625 1.25,1.0625 1.59375,1.96875c0.35417,0.90625 0.53125,2.11979 0.53125,3.64063v1.1875h-3.39062v-1.42187c0,-0.94792 -0.10937,-1.66146 -0.32812,-2.14062c-0.20833,-0.48958 -0.56771,-0.73437 -1.07812,-0.73437c-0.51042,0 -0.88542,0.14063 -1.125,0.42188c-0.23958,0.28125 -0.36979,0.77604 -0.39062,1.48438c-0.01042,0.375 0.03646,0.75 0.14063,1.125c0.11458,0.36458 0.28125,0.72396 0.5,1.07813c0.22917,0.34375 0.52083,0.68229 0.875,1.01563l2.04688,1.84375c1.0625,0.96875 1.84896,1.97917 2.35938,3.03125c0.51042,1.04167 0.76563,2.17188 0.76563,3.39063c0,1.8125 -0.41146,3.18229 -1.23437,4.10938c-0.8125,0.92708 -2.10417,1.39063 -3.875,1.39063zM159.77442,145.736c-1.08333,0 -1.97396,-0.16667 -2.67187,-0.5c-0.6875,-0.34375 -1.22396,-0.83854 -1.60937,-1.48437c-0.38542,-0.65625 -0.65625,-1.4375 -0.8125,-2.34375c-0.14583,-0.91667 -0.21875,-1.9375 -0.21875,-3.0625v-8.01562c0,-1 0.09896,-1.90625 0.29688,-2.71875c0.20833,-0.8125 0.53125,-1.50521 0.96875,-2.07812c0.4375,-0.57292 1,-1.01042 1.6875,-1.3125c0.69792,-0.3125 1.54167,-0.46875 2.53125,-0.46875c1,0 1.83333,0.15104 2.5,0.45313c0.66667,0.30208 1.19271,0.74479 1.57813,1.32813c0.39583,0.58333 0.67708,1.28646 0.84375,2.10938c0.16667,0.8125 0.25,1.73438 0.25,2.76563v4.59375h-6.82812v4.21875c0,1.04167 0.07813,1.88021 0.23438,2.51563c0.16667,0.625 0.60938,0.9375 1.32813,0.9375c0.48958,0 0.83333,-0.14583 1.03125,-0.4375c0.20833,-0.29167 0.33333,-0.69792 0.375,-1.21875c0.05208,-0.52083 0.07813,-1.11979 0.07813,-1.79687v-1.875h3.75v1.14063c0,1.15625 -0.07292,2.18229 -0.21875,3.07813c-0.13542,0.89583 -0.39062,1.65625 -0.76562,2.28125c-0.375,0.61458 -0.91146,1.08333 -1.60937,1.40625c-0.69792,0.32292 -1.60417,0.48438 -2.71875,0.48438zM158.27442,132.78287h3.0625v-2.75c0,-0.71875 -0.03646,-1.32292 -0.10937,-1.8125c-0.0625,-0.48958 -0.19792,-0.85937 -0.40625,-1.10937c-0.19792,-0.25 -0.5,-0.375 -0.90625,-0.375c-0.51042,0 -0.88021,0.15104 -1.10937,0.45313c-0.22917,0.29167 -0.375,0.69271 -0.4375,1.20313c-0.0625,0.51042 -0.09375,1.09375 -0.09375,1.75zM178.75028,145.736c-1.10417,0 -2.01562,-0.16667 -2.73437,-0.5c-0.70833,-0.34375 -1.26562,-0.83333 -1.67187,-1.46875c-0.40625,-0.63542 -0.69271,-1.41146 -0.85937,-2.32812c-0.15625,-0.91667 -0.23437,-1.95312 -0.23437,-3.10937v-6.96875c0,-1.58333 0.14583,-2.94271 0.4375,-4.07812c0.30208,-1.13542 0.84896,-2.00521 1.64063,-2.60937c0.80208,-0.61458 1.95833,-0.92187 3.46875,-0.92187c0.91667,0 1.69271,0.14583 2.32813,0.4375c0.64583,0.28125 1.16146,0.69271 1.54688,1.23438c0.39583,0.53125 0.68229,1.18229 0.85938,1.95313c0.17708,0.76042 0.26563,1.61979 0.26563,2.57813v2.35938h-3.65625v-2.5c0,-0.61458 -0.03125,-1.14062 -0.09375,-1.57812c-0.05208,-0.44792 -0.18229,-0.78646 -0.39062,-1.01562c-0.19792,-0.23958 -0.51562,-0.35937 -0.95312,-0.35937c-0.42708,0 -0.76042,0.11979 -1,0.35938c-0.23958,0.22917 -0.40625,0.57292 -0.5,1.03125c-0.08333,0.45833 -0.125,1 -0.125,1.625v9.6875c0,0.64583 0.03646,1.19792 0.10938,1.65625c0.08333,0.45833 0.23438,0.8125 0.45313,1.0625c0.22917,0.23958 0.5625,0.35938 1,0.35938c0.4375,0 0.76042,-0.125 0.96875,-0.375c0.21875,-0.26042 0.35938,-0.61979 0.42188,-1.07812c0.07292,-0.45833 0.10938,-1 0.10938,-1.625v-2.54687h3.65625v2.1875c0,0.97917 -0.08854,1.875 -0.26562,2.6875c-0.16667,0.80208 -0.44792,1.48958 -0.84375,2.0625c-0.38542,0.57292 -0.90625,1.01563 -1.5625,1.32813c-0.64583,0.30208 -1.4375,0.45313 -2.375,0.45313zM192.0578,145.736c-1.03125,0 -1.89583,-0.15625 -2.59375,-0.46875c-0.6875,-0.32292 -1.23437,-0.78646 -1.64062,-1.39062c-0.40625,-0.60417 -0.69792,-1.34375 -0.875,-2.21875c-0.17708,-0.875 -0.26562,-1.86979 -0.26562,-2.98437v-8.03125c0,-1.35417 0.17188,-2.54687 0.51563,-3.57812c0.35417,-1.04167 0.92708,-1.85417 1.71875,-2.4375c0.79167,-0.58333 1.83854,-0.875 3.14063,-0.875c1,0 1.83854,0.16667 2.51563,0.5c0.6875,0.33333 1.23958,0.80729 1.65625,1.42188c0.41667,0.61458 0.71875,1.34375 0.90625,2.1875c0.1875,0.83333 0.28125,1.76042 0.28125,2.78125v8.03125c0,1.09375 -0.08333,2.07813 -0.25,2.95313c-0.16667,0.86458 -0.45312,1.60417 -0.85937,2.21875c-0.40625,0.61458 -0.95312,1.08333 -1.64062,1.40625c-0.6875,0.32292 -1.55729,0.48438 -2.60937,0.48438zM192.0578,142.6735c0.4375,0 0.76563,-0.13021 0.98438,-0.39062c0.21875,-0.26042 0.36458,-0.625 0.4375,-1.09375c0.07292,-0.46875 0.10938,-1.01042 0.10938,-1.625v-9.59375c0,-0.65625 -0.04167,-1.21875 -0.125,-1.6875c-0.08333,-0.46875 -0.23437,-0.82812 -0.45312,-1.07812c-0.21875,-0.26042 -0.53646,-0.39062 -0.95312,-0.39062c-0.42708,0 -0.75521,0.13021 -0.98437,0.39063c-0.21875,0.25 -0.36979,0.60938 -0.45312,1.07813c-0.07292,0.46875 -0.10937,1.03125 -0.10937,1.6875v9.59375c0,0.61458 0.03646,1.15625 0.10938,1.625c0.08333,0.46875 0.23438,0.83333 0.45313,1.09375c0.22917,0.26042 0.55729,0.39063 0.98438,0.39063zM200.87042,145.486v-21.48437h3.79688v2.34375c0.20833,-0.77083 0.58854,-1.39583 1.14063,-1.875c0.5625,-0.47917 1.32813,-0.71875 2.29688,-0.71875c0.72917,0 1.36458,0.16146 1.90625,0.48438c0.55208,0.32292 0.97396,0.88021 1.26563,1.67188c0.36458,-0.66667 0.84375,-1.19271 1.4375,-1.57812c0.59375,-0.38542 1.33333,-0.57812 2.21875,-0.57812c1.39583,0 2.38542,0.46875 2.96875,1.40625c0.58333,0.92708 0.875,2.21875 0.875,3.875v16.45313h-3.78125v-16.5c0,-0.76042 -0.13021,-1.30208 -0.39062,-1.625c-0.26042,-0.33333 -0.61458,-0.5 -1.0625,-0.5c-0.57292,0 -1.02083,0.19792 -1.34375,0.59375c-0.3125,0.39583 -0.46875,0.97396 -0.46875,1.73438v16.29688h-3.79687v-16.53125c0,-0.63542 -0.10937,-1.14062 -0.32812,-1.51562c-0.20833,-0.38542 -0.56771,-0.57812 -1.07812,-0.57812c-0.65625,0 -1.13021,0.25 -1.42187,0.75c-0.29167,0.5 -0.4375,1.09375 -0.4375,1.78125v16.09375zM227.42389,145.736c-1.08333,0 -1.97396,-0.16667 -2.67187,-0.5c-0.6875,-0.34375 -1.22396,-0.83854 -1.60937,-1.48437c-0.38542,-0.65625 -0.65625,-1.4375 -0.8125,-2.34375c-0.14583,-0.91667 -0.21875,-1.9375 -0.21875,-3.0625v-8.01562c0,-1 0.09896,-1.90625 0.29688,-2.71875c0.20833,-0.8125 0.53125,-1.50521 0.96875,-2.07812c0.4375,-0.57292 1,-1.01042 1.6875,-1.3125c0.69792,-0.3125 1.54167,-0.46875 2.53125,-0.46875c1,0 1.83333,0.15104 2.5,0.45313c0.66667,0.30208 1.19271,0.74479 1.57813,1.32813c0.39583,0.58333 0.67708,1.28646 0.84375,2.10938c0.16667,0.8125 0.25,1.73438 0.25,2.76563v4.59375h-6.82812v4.21875c0,1.04167 0.07813,1.88021 0.23438,2.51563c0.16667,0.625 0.60938,0.9375 1.32813,0.9375c0.48958,0 0.83333,-0.14583 1.03125,-0.4375c0.20833,-0.29167 0.33333,-0.69792 0.375,-1.21875c0.05208,-0.52083 0.07813,-1.11979 0.07813,-1.79687v-1.875h3.75v1.14063c0,1.15625 -0.07292,2.18229 -0.21875,3.07813c-0.13542,0.89583 -0.39062,1.65625 -0.76562,2.28125c-0.375,0.61458 -0.91146,1.08333 -1.60937,1.40625c-0.69792,0.32292 -1.60417,0.48438 -2.71875,0.48438zM225.92389,132.78287h3.0625v-2.75c0,-0.71875 -0.03646,-1.32292 -0.10937,-1.8125c-0.0625,-0.48958 -0.19792,-0.85937 -0.40625,-1.10937c-0.19792,-0.25 -0.5,-0.375 -0.90625,-0.375c-0.51042,0 -0.88021,0.15104 -1.10937,0.45313c-0.22917,0.29167 -0.375,0.69271 -0.4375,1.20313c-0.0625,0.51042 -0.09375,1.09375 -0.09375,1.75zM248.02472,145.70475c-0.63542,0 -1.21354,-0.17187 -1.73437,-0.51562c-0.52083,-0.35417 -0.93229,-0.92187 -1.23437,-1.70312v2h-3.79687v-25.42187h3.79688v5.48438c0.21875,-0.5625 0.58854,-1 1.10938,-1.3125c0.52083,-0.3125 1.04688,-0.47396 1.57813,-0.48437c1.13542,-0.02083 2.01042,0.24479 2.625,0.79688c0.625,0.54167 1.05729,1.30208 1.29688,2.28125c0.25,0.96875 0.375,2.08333 0.375,3.34375v9.09375c0,1.21875 -0.11979,2.31771 -0.35937,3.29688c-0.23958,0.96875 -0.65104,1.73438 -1.23437,2.29688c-0.58333,0.5625 -1.39062,0.84375 -2.42187,0.84375zM246.7591,142.65787c0.65625,0 1.0625,-0.3125 1.21875,-0.9375c0.16667,-0.63542 0.25,-1.57292 0.25,-2.8125v-8.78125c0,-0.65625 -0.03125,-1.22917 -0.09375,-1.71875c-0.0625,-0.5 -0.19271,-0.89062 -0.39062,-1.17187c-0.19792,-0.28125 -0.52083,-0.42187 -0.96875,-0.42187c-0.38542,0 -0.70833,0.09896 -0.96875,0.29688c-0.26042,0.1875 -0.45312,0.52083 -0.57812,1c-0.11458,0.46875 -0.17187,1.13542 -0.17187,2v8.84375c0,1.1875 0.09896,2.10417 0.29688,2.75c0.20833,0.63542 0.67708,0.95313 1.40625,0.95313zM259.00397,145.70475c-1.47917,0 -2.50521,-0.53646 -3.07812,-1.60937c-0.5625,-1.07292 -0.84896,-2.48958 -0.85937,-4.25v-1.375c0,-1.14583 0.16146,-2.07812 0.48438,-2.79687c0.33333,-0.71875 0.80208,-1.30208 1.40625,-1.75c0.61458,-0.44792 1.34375,-0.83854 2.1875,-1.17187c0.85417,-0.33333 1.80208,-0.69271 2.84375,-1.07812v-1.875c0,-0.71875 -0.03125,-1.29687 -0.09375,-1.73437c-0.05208,-0.4375 -0.17708,-0.75521 -0.375,-0.95312c-0.19792,-0.19792 -0.51042,-0.29687 -0.9375,-0.29687c-0.40625,0 -0.71875,0.10417 -0.9375,0.3125c-0.20833,0.19792 -0.35417,0.51042 -0.4375,0.9375c-0.07292,0.42708 -0.10937,0.96875 -0.10937,1.625v0.96875h-3.75v-0.65625c0,-0.97917 0.08333,-1.85417 0.25,-2.625c0.16667,-0.78125 0.44792,-1.4375 0.84375,-1.96875c0.40625,-0.54167 0.95313,-0.95312 1.64063,-1.23437c0.69792,-0.28125 1.57292,-0.42187 2.625,-0.42187c0.92708,0 1.71875,0.13021 2.375,0.39063c0.65625,0.26042 1.1875,0.65104 1.59375,1.17188c0.41667,0.52083 0.71875,1.17188 0.90625,1.95313c0.19792,0.78125 0.29688,1.69271 0.29688,2.73438v15.48438h-3.82812v-2.14062c-0.11458,0.41667 -0.3125,0.80729 -0.59375,1.17188c-0.27083,0.35417 -0.61458,0.64063 -1.03125,0.85938c-0.41667,0.21875 -0.89062,0.32813 -1.42187,0.32813zM260.31647,142.78287c0.47917,0 0.85938,-0.17187 1.14063,-0.51562c0.29167,-0.34375 0.46875,-0.69271 0.53125,-1.04687v-7.39062c-0.57292,0.26042 -1.05729,0.50521 -1.45312,0.73438c-0.38542,0.21875 -0.69792,0.46354 -0.9375,0.73438c-0.23958,0.26042 -0.41146,0.57292 -0.51562,0.9375c-0.10417,0.36458 -0.15625,0.80729 -0.15625,1.32813v2.40625c0,0.98958 0.09896,1.70833 0.29688,2.15625c0.20833,0.4375 0.57292,0.65625 1.09375,0.65625zM274.58222,145.736c-1.10417,0 -2.01562,-0.16667 -2.73437,-0.5c-0.70833,-0.34375 -1.26562,-0.83333 -1.67187,-1.46875c-0.40625,-0.63542 -0.69271,-1.41146 -0.85937,-2.32812c-0.15625,-0.91667 -0.23437,-1.95312 -0.23437,-3.10937v-6.96875c0,-1.58333 0.14583,-2.94271 0.4375,-4.07812c0.30208,-1.13542 0.84896,-2.00521 1.64063,-2.60937c0.80208,-0.61458 1.95833,-0.92187 3.46875,-0.92187c0.91667,0 1.69271,0.14583 2.32813,0.4375c0.64583,0.28125 1.16146,0.69271 1.54688,1.23438c0.39583,0.53125 0.68229,1.18229 0.85938,1.95313c0.17708,0.76042 0.26563,1.61979 0.26563,2.57813v2.35938h-3.65625v-2.5c0,-0.61458 -0.03125,-1.14062 -0.09375,-1.57812c-0.05208,-0.44792 -0.18229,-0.78646 -0.39062,-1.01562c-0.19792,-0.23958 -0.51562,-0.35937 -0.95312,-0.35937c-0.42708,0 -0.76042,0.11979 -1,0.35938c-0.23958,0.22917 -0.40625,0.57292 -0.5,1.03125c-0.08333,0.45833 -0.125,1 -0.125,1.625v9.6875c0,0.64583 0.03646,1.19792 0.10938,1.65625c0.08333,0.45833 0.23438,0.8125 0.45313,1.0625c0.22917,0.23958 0.5625,0.35938 1,0.35938c0.4375,0 0.76042,-0.125 0.96875,-0.375c0.21875,-0.26042 0.35938,-0.61979 0.42188,-1.07812c0.07292,-0.45833 0.10938,-1 0.10938,-1.625v-2.54687h3.65625v2.1875c0,0.97917 -0.08854,1.875 -0.26562,2.6875c-0.16667,0.80208 -0.44792,1.48958 -0.84375,2.0625c-0.38542,0.57292 -0.90625,1.01563 -1.5625,1.32813c-0.64583,0.30208 -1.4375,0.45313 -2.375,0.45313zM282.87409,145.486v-25.42187h3.79688v13.70313l3.65625,-9.76562h3.85938l-4.14062,10.57813l4.375,10.90625h-3.85937l-3.89062,-10.20312v10.20313zM301.84473,145.486v-25.42187h3.78125v25.42188zM312.94885,145.70475c-1.47917,0 -2.50521,-0.53646 -3.07812,-1.60937c-0.5625,-1.07292 -0.84896,-2.48958 -0.85937,-4.25v-1.375c0,-1.14583 0.16146,-2.07812 0.48438,-2.79687c0.33333,-0.71875 0.80208,-1.30208 1.40625,-1.75c0.61458,-0.44792 1.34375,-0.83854 2.1875,-1.17187c0.85417,-0.33333 1.80208,-0.69271 2.84375,-1.07812v-1.875c0,-0.71875 -0.03125,-1.29687 -0.09375,-1.73437c-0.05208,-0.4375 -0.17708,-0.75521 -0.375,-0.95312c-0.19792,-0.19792 -0.51042,-0.29687 -0.9375,-0.29687c-0.40625,0 -0.71875,0.10417 -0.9375,0.3125c-0.20833,0.19792 -0.35417,0.51042 -0.4375,0.9375c-0.07292,0.42708 -0.10937,0.96875 -0.10937,1.625v0.96875h-3.75v-0.65625c0,-0.97917 0.08333,-1.85417 0.25,-2.625c0.16667,-0.78125 0.44792,-1.4375 0.84375,-1.96875c0.40625,-0.54167 0.95313,-0.95312 1.64063,-1.23437c0.69792,-0.28125 1.57292,-0.42187 2.625,-0.42187c0.92708,0 1.71875,0.13021 2.375,0.39063c0.65625,0.26042 1.1875,0.65104 1.59375,1.17188c0.41667,0.52083 0.71875,1.17188 0.90625,1.95313c0.19792,0.78125 0.29688,1.69271 0.29688,2.73438v15.48438h-3.82812v-2.14062c-0.11458,0.41667 -0.3125,0.80729 -0.59375,1.17188c-0.27083,0.35417 -0.61458,0.64063 -1.03125,0.85938c-0.41667,0.21875 -0.89062,0.32813 -1.42187,0.32813zM314.26135,142.78287c0.47917,0 0.85938,-0.17187 1.14063,-0.51562c0.29167,-0.34375 0.46875,-0.69271 0.53125,-1.04687v-7.39062c-0.57292,0.26042 -1.05729,0.50521 -1.45312,0.73438c-0.38542,0.21875 -0.69792,0.46354 -0.9375,0.73438c-0.23958,0.26042 -0.41146,0.57292 -0.51562,0.9375c-0.10417,0.36458 -0.15625,0.80729 -0.15625,1.32813v2.40625c0,0.98958 0.09896,1.70833 0.29688,2.15625c0.20833,0.4375 0.57292,0.65625 1.09375,0.65625zM327.19898,145.62662c-0.91667,0 -1.61979,-0.11458 -2.10937,-0.34375c-0.47917,-0.23958 -0.8125,-0.60937 -1,-1.10937c-0.17708,-0.51042 -0.26562,-1.16667 -0.26562,-1.96875v-15h-1.75v-2.75h1.75v-4.17187h3.79688v4.17188h2.09375v2.75h-2.09375v14.34375c0,0.33333 0.05208,0.58854 0.15625,0.76563c0.10417,0.16667 0.3125,0.28125 0.625,0.34375c0.3125,0.05208 0.77083,0.07813 1.375,0.07813v2.89063zM337.47601,145.736c-1.08333,0 -1.97396,-0.16667 -2.67187,-0.5c-0.6875,-0.34375 -1.22396,-0.83854 -1.60937,-1.48437c-0.38542,-0.65625 -0.65625,-1.4375 -0.8125,-2.34375c-0.14583,-0.91667 -0.21875,-1.9375 -0.21875,-3.0625v-8.01562c0,-1 0.09896,-1.90625 0.29688,-2.71875c0.20833,-0.8125 0.53125,-1.50521 0.96875,-2.07812c0.4375,-0.57292 1,-1.01042 1.6875,-1.3125c0.69792,-0.3125 1.54167,-0.46875 2.53125,-0.46875c1,0 1.83333,0.15104 2.5,0.45313c0.66667,0.30208 1.19271,0.74479 1.57813,1.32813c0.39583,0.58333 0.67708,1.28646 0.84375,2.10938c0.16667,0.8125 0.25,1.73438 0.25,2.76563v4.59375h-6.82812v4.21875c0,1.04167 0.07813,1.88021 0.23438,2.51563c0.16667,0.625 0.60938,0.9375 1.32813,0.9375c0.48958,0 0.83333,-0.14583 1.03125,-0.4375c0.20833,-0.29167 0.33333,-0.69792 0.375,-1.21875c0.05208,-0.52083 0.07813,-1.11979 0.07813,-1.79687v-1.875h3.75v1.14063c0,1.15625 -0.07292,2.18229 -0.21875,3.07813c-0.13542,0.89583 -0.39062,1.65625 -0.76562,2.28125c-0.375,0.61458 -0.91146,1.08333 -1.60937,1.40625c-0.69792,0.32292 -1.60417,0.48438 -2.71875,0.48438zM335.97601,132.78287h3.0625v-2.75c0,-0.71875 -0.03646,-1.32292 -0.10937,-1.8125c-0.0625,-0.48958 -0.19792,-0.85937 -0.40625,-1.10937c-0.19792,-0.25 -0.5,-0.375 -0.90625,-0.375c-0.51042,0 -0.88021,0.15104 -1.10937,0.45313c-0.22917,0.29167 -0.375,0.69271 -0.4375,1.20313c-0.0625,0.51042 -0.09375,1.09375 -0.09375,1.75zM346.00879,145.486v-21.48437h3.82813v2.39063c0.25,-0.82292 0.68229,-1.46875 1.29688,-1.9375c0.61458,-0.46875 1.39583,-0.70312 2.34375,-0.70312c0.02083,0 0.03125,0.16146 0.03125,0.48438c0.01042,0.32292 0.01563,0.69792 0.01563,1.125c0,0.41667 0,0.78646 0,1.10938c0,0.32292 0,0.48438 0,0.48438c-0.4375,0 -0.91146,0.05208 -1.42187,0.15625c-0.51042,0.10417 -0.97396,0.26563 -1.39062,0.48438c-0.41667,0.20833 -0.70833,0.48958 -0.875,0.84375v17.04688zM354.09162,145.486v-3.51562h3.21875v3.51563z" fill="#ffffff" fill-rule="nonzero"/></g></g></svg>