<svg xmlns:xlink="http://www.w3.org/1999/xlink" xmlns="http://www.w3.org/2000/svg" version="1.1" viewBox="0.0 0.0 960.0 720.0" fill="none" stroke="none" stroke-linecap="square" stroke-miterlimit="10"><clipPath id="p.0"><path d="m0 0l960.0 0l0 720.0l-960.0 0l0 -720.0z" clip-rule="nonzero"/></clipPath><g clip-path="url(#p.0)"><path fill="#000000" fill-opacity="0.0" d="m0 0l960.0 0l0 720.0l-960.0 0z" fill-rule="evenodd"/><path fill="#000000" fill-opacity="0.0" d="m227.81364 253.12599l771.74805 0l0 54.929123l-771.74805 0z" fill-rule="evenodd"/><path fill="#000000" d="m238.01677 269.75473l4.609375 0l2.046875 14.6875l0.0625 0l2.046875 -14.6875l4.609375 0l0 20.53125l-3.046875 0l0 -15.546875l-0.0625 0l-2.34375 15.546875l-2.703125 0l-2.34375 -15.546875l-0.0625 0l0 15.546875l-2.8125 0l0 -20.53125zm15.778519 0l3.21875 0l0 20.53125l-3.21875 0l0 -20.53125zm9.818512 20.828125q-2.34375 0 -3.546875 -1.328125q-1.203125 -1.34375 -1.203125 -3.84375l0 -1.171875l3.0625 0l0 1.40625q0 2.0 1.65625 2.0q0.828125 0 1.25 -0.484375q0.421875 -0.484375 0.421875 -1.5625q0 -1.296875 -0.59375 -2.28125q-0.578125 -0.984375 -2.15625 -2.359375q-2.0 -1.765625 -2.796875 -3.1875q-0.78125 -1.421875 -0.78125 -3.203125q0 -2.4375 1.234375 -3.765625q1.234375 -1.34375 3.578125 -1.34375q2.3125 0 3.5 1.34375q1.1875 1.328125 1.1875 3.828125l0 0.84375l-3.046875 0l0 -1.046875q0 -1.0625 -0.421875 -1.546875q-0.40625 -0.484375 -1.1875 -0.484375q-1.609375 0 -1.609375 1.96875q0 1.109375 0.59375 2.078125q0.59375 0.96875 2.1875 2.34375q2.015625 1.765625 2.78125 3.203125q0.765625 1.4375 0.765625 3.375q0 2.515625 -1.25 3.875q-1.25 1.34375 -3.625 1.34375zm10.910034 0q-2.34375 0 -3.546875 -1.328125q-1.203125 -1.34375 -1.203125 -3.84375l0 -1.171875l3.0625 0l0 1.40625q0 2.0 1.65625 2.0q0.828125 0 1.25 -0.484375q0.421875 -0.484375 0.421875 -1.5625q0 -1.296875 -0.59375 -2.28125q-0.578125 -0.984375 -2.15625 -2.359375q-2.0 -1.765625 -2.796875 -3.1875q-0.78125 -1.421875 -0.78125 -3.203125q0 -2.4375 1.234375 -3.765625q1.234375 -1.34375 3.578125 -1.34375q2.3125 0 3.5 1.34375q1.1875 1.328125 1.1875 3.828125l0 0.84375l-3.046875 0l0 -1.046875q0 -1.0625 -0.421875 -1.546875q-0.40625 -0.484375 -1.1875 -0.484375q-1.609375 0 -1.609375 1.96875q0 1.109375 0.59375 2.078125q0.59375 0.96875 2.1875 2.34375q2.015625 1.765625 2.78125 3.203125q0.765625 1.4375 0.765625 3.375q0 2.515625 -1.25 3.875q-1.25 1.34375 -3.625 1.34375zm6.7225647 -20.828125l3.21875 0l0 20.53125l-3.21875 0l0 -20.53125zm10.287231 20.828125q-2.375 0 -3.640625 -1.34375q-1.25 -1.359375 -1.25 -3.828125l0 -10.78125q0 -2.46875 1.25 -3.8125q1.265625 -1.359375 3.640625 -1.359375q2.375 0 3.640625 1.359375q1.265625 1.34375 1.265625 3.8125l0 10.78125q0 2.46875 -1.265625 3.828125q-1.265625 1.34375 -3.640625 1.34375zm0 -2.9375q1.671875 0 1.671875 -2.015625l0 -11.203125q0 -2.03125 -1.671875 -2.03125q-1.671875 0 -1.671875 2.03125l0 11.203125q0 2.015625 1.671875 2.015625zm7.075012 -17.890625l4.046875 0l3.140625 12.296875l0.0625 0l0 -12.296875l2.875 0l0 20.53125l-3.328125 0l-3.859375 -14.984375l-0.0625 0l0 14.984375l-2.875 0l0 -20.53125zm16.710602 20.828125q-2.34375 0 -3.546875 -1.328125q-1.203125 -1.34375 -1.203125 -3.84375l0 -1.171875l3.0625 0l0 1.40625q0 2.0 1.65625 2.0q0.828125 0 1.25 -0.484375q0.421875 -0.484375 0.421875 -1.5625q0 -1.296875 -0.59375 -2.28125q-0.578125 -0.984375 -2.15625 -2.359375q-2.0 -1.765625 -2.796875 -3.1875q-0.78125 -1.421875 -0.78125 -3.203125q0 -2.4375 1.234375 -3.765625q1.234375 -1.34375 3.578125 -1.34375q2.3125 0 3.5 1.34375q1.1875 1.328125 1.1875 3.828125l0 0.84375l-3.046875 0l0 -1.046875q0 -1.0625 -0.421875 -1.546875q-0.40625 -0.484375 -1.1875 -0.484375q-1.609375 0 -1.609375 1.96875q0 1.109375 0.59375 2.078125q0.59375 0.96875 2.1875 2.34375q2.015625 1.765625 2.78125 3.203125q0.765625 1.4375 0.765625 3.375q0 2.515625 -1.25 3.875q-1.25 1.34375 -3.625 1.34375z" fill-rule="nonzero"/></g></svg>