<svg version="1.1" xmlns="http://www.w3.org/2000/svg" xmlns:xlink="http://www.w3.org/1999/xlink" width="720" height="540" viewBox="0,0,720,540"><defs><clipPath id="clip-1"><rect x="-240" y="-180" transform="scale(0.5,0.5)" width="1440" height="1080" fill="none" fill-rule="nonzero" stroke-width="0.5" stroke-linecap="butt"/></clipPath></defs><g transform="translate(120,90)"><g clip-path="url(#clip-1)" data-paper-data="{&quot;isPaintingLayer&quot;:true}" stroke="none" stroke-linejoin="miter" stroke-miterlimit="10" stroke-dasharray="" stroke-dashoffset="0" style="mix-blend-mode: normal"><path d="M-240,-180h960v720h-960z" fill-opacity="0" fill="#000000" fill-rule="evenodd" stroke-width="1" stroke-linecap="square"/><path d="M-185.15748,73.12599h842.3307v54.92912h-842.3307z" fill-opacity="0" fill="#000000" fill-rule="evenodd" stroke-width="1" stroke-linecap="square"/><path d="M-105.70956,105.58286c-1.5625,0 -2.75521,-0.44271 -3.57812,-1.32812c-0.82292,-0.89583 -1.23437,-2.17708 -1.23437,-3.84375v-10.78125c0,-1.66667 0.41146,-2.94271 1.23438,-3.82812c0.82292,-0.89583 2.01563,-1.34375 3.57813,-1.34375c1.5625,0 2.75521,0.44792 3.57812,1.34375c0.82292,0.88542 1.23438,2.16146 1.23438,3.82813v1.75h-3.0625v-1.95312c0,-1.35417 -0.55729,-2.03125 -1.67187,-2.03125c-1.11458,0 -1.67187,0.67708 -1.67187,2.03125v11.21875c0,1.33333 0.55729,2 1.67188,2c1.11458,0 1.67187,-0.66667 1.67187,-2v-4.01562h-1.60937v-2.92187h4.67187v6.70313c0,1.66667 -0.41146,2.94792 -1.23437,3.84375c-0.82292,0.88542 -2.01562,1.32813 -3.57812,1.32813zM-98.8204,84.75473h8.79688v2.9375h-5.57812v5.42188h4.4375v2.9375h-4.4375v6.29688h5.57813v2.9375h-8.79687zM-85.65868,87.69223h-3.35937v-2.9375h9.96875v2.9375h-3.375v17.59375h-3.23437zM-72.80637,84.75473h4.04688l3.14063,12.29688h0.0625v-12.29687h2.875v20.53125h-3.32812l-3.85937,-14.98437h-0.0625v14.98438h-2.875zM-60.28326,84.75473h8.79688v2.9375h-5.57812v5.42188h4.4375v2.9375h-4.4375v6.29688h5.57813v2.9375h-8.79687zM-50.40279,84.75473h3.10937l1.4375,15.78125h0.0625l1.51563,-15.78125h3.53125l1.51563,15.78125h0.0625l1.4375,-15.78125h2.78125l-2.07812,20.53125h-4.01562l-1.46875,-13.84375h-0.0625l-1.46875,13.84375h-4.28124z" fill="#000000" fill-rule="nonzero" stroke-width="1" stroke-linecap="square"/></g></g></svg>