<svg version="1.1" xmlns="http://www.w3.org/2000/svg" xmlns:xlink="http://www.w3.org/1999/xlink" width="320.4257" height="19.31025" viewBox="0,0,320.4257,19.31025"><defs><linearGradient x1="235.84543" y1="171.87086" x2="235.84543" y2="191.18111" gradientUnits="userSpaceOnUse" id="color-1"><stop offset="0" stop-color="#3a62a1"/><stop offset="1" stop-color="#163076"/></linearGradient></defs><g transform="translate(-75.63255,-171.87086)"><g data-paper-data="{&quot;isPaintingLayer&quot;:true}" stroke="none" stroke-linejoin="miter" stroke-miterlimit="10" stroke-dasharray="" stroke-dashoffset="0" style="mix-blend-mode: normal"><path d="M75.63255,173.43552c0,-0.75368 0.53999,-1.56466 3.12938,-1.56466l314.36201,0.2c1.24324,0 2.93431,1.00274 2.93431,1.36466v16.38093c0,0.75368 -0.15056,1.36466 -2.73967,1.36466c0,0 -200.55287,0 -255.80317,0c-3.05968,0 -6.19692,0 -9.35308,0c-24.15403,0 -49.40028,0 -49.40028,0c-2.58903,0 -3.12938,-0.61098 -3.12938,-1.36466z" fill="url(#color-1)" fill-rule="evenodd" stroke-width="2" stroke-linecap="square"/><text transform="translate(171.57941,183.65988) scale(0.29448,0.30499)" font-size="40" xml:space="preserve" fill="#ffffff" fill-rule="nonzero" stroke="none" stroke-width="1" stroke-linecap="butt" stroke-linejoin="miter" stroke-miterlimit="10" stroke-dasharray="" stroke-dashoffset="0" font-family="&quot;ヒラギノ角ゴ Pro W3&quot;, &quot;Hiragino Kaku Gothic Pro&quot;, Osaka, &quot;メイリオ&quot;, Meiryo, &quot;ＭＳ Ｐゴシック&quot;, &quot;MS PGothic&quot;" font-weight="normal" text-anchor="start" style="mix-blend-mode: normal"><tspan x="0" dy="0">Scrubbing the Mosasaurus...</tspan></text></g></g></svg>