<svg version="1.1" xmlns="http://www.w3.org/2000/svg" xmlns:xlink="http://www.w3.org/1999/xlink" width="264.19238" height="19.31025" viewBox="0,0,264.19238,19.31025"><defs><linearGradient x1="207.72876" y1="171.87086" x2="207.72876" y2="191.18111" gradientUnits="userSpaceOnUse" id="color-1"><stop offset="0" stop-color="#3a62a1"/><stop offset="1" stop-color="#163076"/></linearGradient></defs><g transform="translate(-75.63255,-171.87086)"><g data-paper-data="{&quot;isPaintingLayer&quot;:true}" stroke="none" stroke-linejoin="miter" stroke-miterlimit="10" stroke-dasharray="" stroke-dashoffset="0" style="mix-blend-mode: normal"><path d="M75.63255,173.43552c0,-0.75368 0.44522,-1.56466 2.5802,-1.56466l259.19283,0.2c1.02506,0 2.41935,1.00274 2.41935,1.36466v16.38093c0,0.75368 -0.12413,1.36466 -2.25887,1.36466c0,0 -165.3567,0 -210.91083,0c-2.52273,0 -5.10939,0 -7.71165,0c-19.91509,0 -40.73074,0 -40.73074,0c-2.13467,0 -2.5802,-0.61098 -2.5802,-1.36466z" fill="url(#color-1)" fill-rule="evenodd" stroke-width="2" stroke-linecap="square"/><text transform="translate(171.57941,183.65988) scale(0.29448,0.30499)" font-size="40" xml:space="preserve" fill="#ffffff" fill-rule="nonzero" stroke="none" stroke-width="1" stroke-linecap="butt" stroke-linejoin="miter" stroke-miterlimit="10" stroke-dasharray="" stroke-dashoffset="0" font-family="&quot;ヒラギノ角ゴ Pro W3&quot;, &quot;Hiragino Kaku Gothic Pro&quot;, Osaka, &quot;メイリオ&quot;, Meiryo, &quot;ＭＳ Ｐゴシック&quot;, &quot;MS PGothic&quot;" font-weight="normal" text-anchor="start" style="mix-blend-mode: normal"><tspan x="0" dy="0">Scrubbing the Mosasaurus...</tspan></text></g></g></svg>