<svg version="1.1" xmlns="http://www.w3.org/2000/svg" xmlns:xlink="http://www.w3.org/1999/xlink" width="303.9257" height="19.31025" viewBox="0,0,303.9257,19.31025"><defs><linearGradient x1="227.59543" y1="171.87086" x2="227.59543" y2="191.18111" gradientUnits="userSpaceOnUse" id="color-1"><stop offset="0" stop-color="#3a62a1"/><stop offset="1" stop-color="#163076"/></linearGradient></defs><g transform="translate(-75.63255,-171.87086)"><g data-paper-data="{&quot;isPaintingLayer&quot;:true}" stroke="none" stroke-linejoin="miter" stroke-miterlimit="10" stroke-dasharray="" stroke-dashoffset="0" style="mix-blend-mode: normal"><path d="M75.63255,173.43552c0,-0.75368 0.51219,-1.56466 2.96824,-1.56466l298.17425,0.2c1.17922,0 2.78321,1.00274 2.78321,1.36466v16.38093c0,0.75368 -0.14281,1.36466 -2.59859,1.36466c0,0 -190.2256,0 -242.63085,0c-2.90213,0 -5.87781,0 -8.87145,0c-22.91024,0 -46.85646,0 -46.85646,0c-2.45571,0 -2.96824,-0.61098 -2.96824,-1.36466z" fill="url(#color-1)" fill-rule="evenodd" stroke-width="2" stroke-linecap="square"/><text transform="translate(209.03359,183.65988) scale(0.29448,0.30499)" font-size="40" xml:space="preserve" fill="#ffffff" fill-rule="nonzero" stroke="none" stroke-width="1" stroke-linecap="butt" stroke-linejoin="miter" stroke-miterlimit="10" stroke-dasharray="" stroke-dashoffset="0" font-family="&quot;ヒラギノ角ゴ Pro W3&quot;, &quot;Hiragino Kaku Gothic Pro&quot;, Osaka, &quot;メイリオ&quot;, Meiryo, &quot;ＭＳ Ｐゴシック&quot;, &quot;MS PGothic&quot;" font-weight="normal" text-anchor="start" style="mix-blend-mode: normal"><tspan x="0" dy="0">39MB/45MB</tspan></text></g></g></svg>