<svg version="1.1" xmlns="http://www.w3.org/2000/svg" xmlns:xlink="http://www.w3.org/1999/xlink" width="296.92571" height="19.31025" viewBox="0,0,296.92571,19.31025"><defs><linearGradient x1="224.09543" y1="171.87086" x2="224.09543" y2="191.18111" gradientUnits="userSpaceOnUse" id="color-1"><stop offset="0" stop-color="#3a62a1"/><stop offset="1" stop-color="#163076"/></linearGradient></defs><g transform="translate(-75.63255,-171.87086)"><g data-paper-data="{&quot;isPaintingLayer&quot;:true}" stroke="none" stroke-linejoin="miter" stroke-miterlimit="10" stroke-dasharray="" stroke-dashoffset="0" style="mix-blend-mode: normal"><path d="M75.63255,173.43552c0,-0.75368 0.50039,-1.56466 2.89988,-1.56466l291.30672,0.2c1.15206,0 2.71911,1.00274 2.71911,1.36466v16.38093c0,0.75368 -0.13952,1.36466 -2.53874,1.36466c0,0 -185.84433,0 -237.04259,0c-2.83529,0 -5.74243,0 -8.66712,0c-22.38257,0 -45.77726,0 -45.77726,0c-2.39915,0 -2.89988,-0.61098 -2.89988,-1.36466z" fill="url(#color-1)" fill-rule="evenodd" stroke-width="2" stroke-linecap="square"/><text transform="translate(209.03359,183.65988) scale(0.29448,0.30499)" font-size="40" xml:space="preserve" fill="#ffffff" fill-rule="nonzero" stroke="none" stroke-width="1" stroke-linecap="butt" stroke-linejoin="miter" stroke-miterlimit="10" stroke-dasharray="" stroke-dashoffset="0" font-family="&quot;ヒラギノ角ゴ Pro W3&quot;, &quot;Hiragino Kaku Gothic Pro&quot;, Osaka, &quot;メイリオ&quot;, Meiryo, &quot;ＭＳ Ｐゴシック&quot;, &quot;MS PGothic&quot;" font-weight="normal" text-anchor="start" style="mix-blend-mode: normal"><tspan x="0" dy="0">38MB/45MB</tspan></text></g></g></svg>