<svg version="1.1" xmlns="http://www.w3.org/2000/svg" xmlns:xlink="http://www.w3.org/1999/xlink" width="91.03694" height="39.84866" viewBox="0,0,91.03694,39.84866"><defs><radialGradient cx="200.35714" cy="284.85238" r="19.64286" gradientUnits="userSpaceOnUse" id="color-1"><stop offset="0" stop-color="#d52c25"/><stop offset="1" stop-color="#9f2429"/></radialGradient></defs><g transform="translate(-180.36459,-264.92482)"><g data-paper-data="{&quot;isPaintingLayer&quot;:true}" fill-rule="nonzero" stroke-linejoin="miter" stroke-miterlimit="10" stroke-dasharray="" stroke-dashoffset="0" style="mix-blend-mode: normal"><path d="M199.71429,304.42381l-19,-19.57143l19.28571,-19.57143l20,20.28571z" fill="url(#color-1)" stroke="#ffffff" stroke-width="0.5" stroke-linecap="butt"/><path d="M240.76758,299.36132c-1.04592,0 -1.84429,-0.29634 -2.39514,-0.88902c-0.55085,-0.59965 -0.82626,-1.45729 -0.82626,-2.57294v-1.07729h2.04998v1.23418c0,0.89251 0.37304,1.33876 1.11913,1.33876c0.74609,0 1.11913,-0.44625 1.11913,-1.33876v-3.07496c0,-0.90645 -0.37304,-1.35968 -1.11913,-1.35968c-0.74609,0 -1.11913,0.45324 -1.11913,1.35968v0.11505h-2.04998l0.39745,-7.67698h5.68974v1.96631h-3.76527l-0.17781,3.27369h0.04183c0.4044,-0.66241 1.02498,-0.99361 1.86171,-0.99361c0.78792,0 1.38408,0.26845 1.7885,0.80535c0.4044,0.52993 0.60662,1.30739 0.60662,2.33238v3.09589c0,1.11565 -0.27542,1.97329 -0.82625,2.57294c-0.55085,0.59269 -1.34922,0.88902 -2.39513,0.88902zM246.17283,299.16261h-0.71122v-2.08137h2.08136v1.86172l-1.07729,2.57294h-1.00407zM252.26917,299.36132c-1.05985,0 -1.87217,-0.29982 -2.43696,-0.89948c-0.55783,-0.60663 -0.83673,-1.4608 -0.83673,-2.56247v-7.21677c0,-1.1017 0.27892,-1.95236 0.83673,-2.55201c0.56479,-0.60663 1.37711,-0.90993 2.43696,-0.90993c1.05985,0 1.87217,0.30332 2.43696,0.90993c0.56479,0.59965 0.84719,1.45032 0.84719,2.55201v7.21677c0,1.1017 -0.2824,1.95585 -0.84719,2.56247c-0.56479,0.59965 -1.37711,0.89948 -2.43696,0.89948zM252.26917,297.39503c0.74609,0 1.11912,-0.44974 1.11912,-1.34922v-7.49917c0,-0.90645 -0.37304,-1.35967 -1.11912,-1.35967c-0.74609,0 -1.11913,0.45323 -1.11913,1.35967v7.49917c0,0.89948 0.37304,1.34922 1.11913,1.34922zM260.12185,299.36132c-1.05985,0 -1.87217,-0.29982 -2.43696,-0.89948c-0.55783,-0.60663 -0.83672,-1.4608 -0.83672,-2.56247v-7.21677c0,-1.1017 0.27891,-1.95236 0.83672,-2.55201c0.56479,-0.60663 1.37712,-0.90993 2.43696,-0.90993c1.05985,0 1.87217,0.30332 2.43697,0.90993c0.56479,0.59965 0.84719,1.45032 0.84719,2.55201v7.21677c0,1.1017 -0.2824,1.95585 -0.84719,2.56247c-0.56479,0.59965 -1.37712,0.89948 -2.43697,0.89948zM260.12185,297.39503c0.74609,0 1.11913,-0.44974 1.11913,-1.34922v-7.49917c0,-0.90645 -0.37304,-1.35967 -1.11913,-1.35967c-0.74609,0 -1.11913,0.45323 -1.11913,1.35967v7.49917c0,0.89948 0.37304,1.34922 1.11913,1.34922zM267.97452,299.36132c-1.05985,0 -1.87217,-0.29982 -2.43697,-0.89948c-0.55783,-0.60663 -0.83673,-1.4608 -0.83673,-2.56247v-7.21677c0,-1.1017 0.27891,-1.95236 0.83673,-2.55201c0.56479,-0.60663 1.37712,-0.90993 2.43697,-0.90993c1.05985,0 1.87217,0.30332 2.43696,0.90993c0.56479,0.59965 0.84718,1.45032 0.84718,2.55201v7.21677c0,1.1017 -0.28239,1.95585 -0.84718,2.56247c-0.56479,0.59965 -1.37712,0.89948 -2.43696,0.89948zM267.97452,297.39503c0.74609,0 1.11912,-0.44974 1.11912,-1.34922v-7.49917c0,-0.90645 -0.37303,-1.35967 -1.11912,-1.35967c-0.74609,0 -1.11913,0.45323 -1.11913,1.35967v7.49917c0,0.89948 0.37304,1.34922 1.11913,1.34922z" fill="#3d5714" stroke="none" stroke-width="1" stroke-linecap="square"/><path d="M240.91044,298.7899c-1.04591,0 -1.84429,-0.29634 -2.39514,-0.88902c-0.55085,-0.59965 -0.82626,-1.45729 -0.82626,-2.57294v-1.07728h2.04998v1.23418c0,0.89251 0.37304,1.33876 1.11913,1.33876c0.74609,0 1.11913,-0.44625 1.11913,-1.33876v-3.07496c0,-0.90645 -0.37304,-1.35968 -1.11913,-1.35968c-0.74609,0 -1.11913,0.45324 -1.11913,1.35968v0.11505h-2.04998l0.39745,-7.67698h5.68974v1.96631h-3.76527l-0.17781,3.2737h0.04184c0.40441,-0.66241 1.02498,-0.99361 1.8617,-0.99361c0.78792,0 1.38408,0.26845 1.7885,0.80535c0.40441,0.52993 0.60662,1.30738 0.60662,2.33237v3.09589c0,1.11565 -0.27542,1.97328 -0.82626,2.57294c-0.55085,0.59269 -1.34922,0.88902 -2.39513,0.88902zM246.31568,298.59118h-0.71122v-2.08136h2.08136v1.86171l-1.07728,2.57294h-1.00407zM252.41202,298.7899c-1.05985,0 -1.87217,-0.29982 -2.43697,-0.89948c-0.55783,-0.60662 -0.83672,-1.4608 -0.83672,-2.56247v-7.21676c0,-1.10169 0.27891,-1.95236 0.83672,-2.55201c0.56479,-0.60662 1.37712,-0.90993 2.43697,-0.90993c1.05985,0 1.87217,0.30332 2.43697,0.90993c0.56479,0.59965 0.84719,1.45032 0.84719,2.55201v7.21676c0,1.10169 -0.2824,1.95585 -0.84719,2.56247c-0.56479,0.59965 -1.37712,0.89948 -2.43697,0.89948zM252.41202,296.8236c0.74609,0 1.11912,-0.44974 1.11912,-1.34922v-7.49917c0,-0.90645 -0.37304,-1.35967 -1.11912,-1.35967c-0.74609,0 -1.11913,0.45323 -1.11913,1.35967v7.49917c0,0.89948 0.37304,1.34922 1.11913,1.34922zM260.26471,298.7899c-1.05985,0 -1.87217,-0.29982 -2.43697,-0.89948c-0.55783,-0.60662 -0.83672,-1.4608 -0.83672,-2.56247v-7.21676c0,-1.10169 0.27891,-1.95236 0.83672,-2.55201c0.56479,-0.60662 1.37712,-0.90993 2.43697,-0.90993c1.05985,0 1.87217,0.30332 2.43697,0.90993c0.56479,0.59965 0.84719,1.45032 0.84719,2.55201v7.21676c0,1.10169 -0.2824,1.95585 -0.84719,2.56247c-0.56479,0.59965 -1.37712,0.89948 -2.43697,0.89948zM260.26471,296.8236c0.74609,0 1.11913,-0.44974 1.11913,-1.34922v-7.49917c0,-0.90645 -0.37304,-1.35967 -1.11913,-1.35967c-0.74609,0 -1.11913,0.45323 -1.11913,1.35967v7.49917c0,0.89948 0.37304,1.34922 1.11913,1.34922zM268.11738,298.7899c-1.05985,0 -1.87217,-0.29982 -2.43697,-0.89948c-0.55783,-0.60662 -0.83672,-1.4608 -0.83672,-2.56247v-7.21676c0,-1.10169 0.27891,-1.95236 0.83672,-2.55201c0.56479,-0.60662 1.37712,-0.90993 2.43697,-0.90993c1.05985,0 1.87217,0.30332 2.43697,0.90993c0.56479,0.59965 0.84719,1.45032 0.84719,2.55201v7.21676c0,1.10169 -0.2824,1.95585 -0.84719,2.56247c-0.56479,0.59965 -1.37712,0.89948 -2.43697,0.89948zM268.11738,296.8236c0.74609,0 1.11913,-0.44974 1.11913,-1.34922v-7.49917c0,-0.90645 -0.37304,-1.35967 -1.11913,-1.35967c-0.74609,0 -1.11913,0.45323 -1.11913,1.35967v7.49917c0,0.89948 0.37304,1.34922 1.11913,1.34922z" fill="#ffffff" stroke="none" stroke-width="1" stroke-linecap="square"/></g></g></svg>