<svg version="1.1" xmlns="http://www.w3.org/2000/svg" xmlns:xlink="http://www.w3.org/1999/xlink" width="243.53657" height="19.31025" viewBox="0,0,243.53657,19.31025"><defs><linearGradient x1="91.80376" y1="171.87086" x2="91.80376" y2="191.18111" gradientUnits="userSpaceOnUse" id="color-1"><stop offset="0" stop-color="#3a62a1"/><stop offset="1" stop-color="#163076"/></linearGradient></defs><g transform="translate(-75.63254,-171.87086)"><g data-paper-data="{&quot;isPaintingLayer&quot;:true}" stroke="none" stroke-linejoin="miter" stroke-miterlimit="10" stroke-dasharray="" stroke-dashoffset="0" style="mix-blend-mode: normal"><path d="M75.63255,173.43552c0,-0.75368 0.0545,-1.56466 0.31587,-1.56466l31.73035,0.2c0.12549,0 0.29618,1.00274 0.29618,1.36466v16.38093c0,0.75368 -0.0152,1.36466 -0.27653,1.36466c0,0 -20.24295,0 -25.81969,0c-0.30883,0 -0.62549,0 -0.94406,0c-2.438,0 -4.98626,0 -4.98626,0c-0.26133,0 -0.31587,-0.61098 -0.31587,-1.36466z" fill="url(#color-1)" fill-rule="evenodd" stroke-width="2" stroke-linecap="square"/><text transform="translate(161.27261,183.65988) scale(0.29448,0.30499)" font-size="40" xml:space="preserve" fill="#ffffff" fill-rule="nonzero" stroke="none" stroke-width="1" stroke-linecap="butt" stroke-linejoin="miter" stroke-miterlimit="10" stroke-dasharray="" stroke-dashoffset="0" font-family="&quot;ヒラギノ角ゴ Pro W3&quot;, &quot;Hiragino Kaku Gothic Pro&quot;, Osaka, &quot;メイリオ&quot;, Meiryo, &quot;ＭＳ Ｐゴシック&quot;, &quot;MS PGothic&quot;" font-weight="normal" text-anchor="start" style="mix-blend-mode: normal"><tspan x="0" dy="0">Polishing Incubation Chambers...</tspan></text></g></g></svg>