<svg version="1.1" xmlns="http://www.w3.org/2000/svg" xmlns:xlink="http://www.w3.org/1999/xlink" width="243.53656" height="19.31025" viewBox="0,0,243.53656,19.31025"><defs><linearGradient x1="123.80376" y1="171.87086" x2="123.80376" y2="191.18111" gradientUnits="userSpaceOnUse" id="color-1"><stop offset="0" stop-color="#3a62a1"/><stop offset="1" stop-color="#163076"/></linearGradient></defs><g transform="translate(-75.63255,-171.87086)"><g data-paper-data="{&quot;isPaintingLayer&quot;:true}" stroke="none" stroke-linejoin="miter" stroke-miterlimit="10" stroke-dasharray="" stroke-dashoffset="0" style="mix-blend-mode: normal"><path d="M75.63255,173.43552c0,-0.75368 0.16236,-1.56466 0.94093,-1.56466l94.51921,0.2c0.37381,0 0.88226,1.00274 0.88226,1.36466v16.38093c0,0.75368 -0.04526,1.36466 -0.82373,1.36466c0,0 -60.30024,0 -76.91235,0c-0.91995,0 -1.86323,0 -2.8122,0c-7.26238,0 -14.85318,0 -14.85318,0c-0.77845,0 -0.94093,-0.61098 -0.94093,-1.36466z" fill="url(#color-1)" fill-rule="evenodd" stroke-width="2" stroke-linecap="square"/><text transform="translate(161.27261,183.65988) scale(0.29448,0.30499)" font-size="40" xml:space="preserve" fill="#ffffff" fill-rule="nonzero" stroke="none" stroke-width="1" stroke-linecap="butt" stroke-linejoin="miter" stroke-miterlimit="10" stroke-dasharray="" stroke-dashoffset="0" font-family="&quot;ヒラギノ角ゴ Pro W3&quot;, &quot;Hiragino Kaku Gothic Pro&quot;, Osaka, &quot;メイリオ&quot;, Meiryo, &quot;ＭＳ Ｐゴシック&quot;, &quot;MS PGothic&quot;" font-weight="normal" text-anchor="start" style="mix-blend-mode: normal"><tspan x="0" dy="0">Polishing Incubation Chambers...</tspan></text></g></g></svg>