<svg xmlns:xlink="http://www.w3.org/1999/xlink" xmlns="http://www.w3.org/2000/svg" version="1.1" viewBox="0.0 0.0 960.0 720.0" fill="none" stroke="none" stroke-linecap="square" stroke-miterlimit="10"><clipPath id="p.0"><path d="m0 0l960.0 0l0 720.0l-960.0 0l0 -720.0z" clip-rule="nonzero"/></clipPath><g clip-path="url(#p.0)"><path fill="#000000" fill-opacity="0.0" d="m0 0l960.0 0l0 720.0l-960.0 0z" fill-rule="evenodd"/><path fill="#000000" fill-opacity="0.0" d="m227.81364 253.12599l771.74805 0l0 54.929123l-771.74805 0z" fill-rule="evenodd"/><path fill="#000000" d="m237.95427 288.0516q0 -2.1875 0.703125 -3.75q0.703125 -1.578125 2.53125 -3.484375q1.78125 -1.90625 2.46875 -3.25q0.6875 -1.359375 0.6875 -2.828125q0 -1.3125 -0.421875 -1.828125q-0.421875 -0.515625 -1.25 -0.515625q-1.671875 0 -1.671875 2.03125l0 2.1875l-3.046875 0l0 -1.984375q0 -2.5 1.234375 -3.828125q1.234375 -1.34375 3.578125 -1.34375q2.34375 0 3.578125 1.34375q1.234375 1.328125 1.234375 3.828125q0 1.875 -0.90625 3.671875q-0.890625 1.78125 -3.078125 4.09375q-1.4375 1.53125 -1.9375 2.484375q-0.5 0.953125 -0.5 2.03125l0 0.4375l6.125 0l0 2.9375l-9.328125 0l0 -2.234375zm16.512497 2.53125q-2.34375 0 -3.578125 -1.328125q-1.234375 -1.34375 -1.234375 -3.84375l0 -1.609375l3.0625 0l0 1.84375q0 2.0 1.671875 2.0q1.671875 0 1.671875 -2.0l0 -4.59375q0 -2.03125 -1.671875 -2.03125q-1.671875 0 -1.671875 2.03125l0 0.171875l-3.0625 0l0.59375 -11.46875l8.5 0l0 2.9375l-5.625 0l-0.265625 4.890625l0.0625 0q0.90625 -1.484375 2.78125 -1.484375q1.765625 0 2.671875 1.203125q0.90625 1.1875 0.90625 3.484375l0 4.625q0 2.5 -1.234375 3.84375q-1.234375 1.328125 -3.578125 1.328125zm11.668762 0q-2.375 0 -3.640625 -1.34375q-1.25 -1.359375 -1.25 -3.828125l0 -10.78125q0 -2.46875 1.25 -3.8125q1.265625 -1.359375 3.640625 -1.359375q2.375 0 3.640625 1.359375q1.265625 1.34375 1.265625 3.8125l0 10.78125q0 2.46875 -1.265625 3.828125q-1.265625 1.34375 -3.640625 1.34375zm0 -2.9375q1.671875 0 1.671875 -2.015625l0 -11.203125q0 -2.03125 -1.671875 -2.03125q-1.671875 0 -1.671875 2.03125l0 11.203125q0 2.015625 1.671875 2.015625z" fill-rule="nonzero"/></g></svg>