<svg xmlns:xlink="http://www.w3.org/1999/xlink" xmlns="http://www.w3.org/2000/svg" version="1.1" viewBox="0.0 0.0 960.0 720.0" fill="none" stroke="none" stroke-linecap="square" stroke-miterlimit="10"><clipPath id="p.0"><path d="m0 0l960.0 0l0 720.0l-960.0 0l0 -720.0z" clip-rule="nonzero"/></clipPath><g clip-path="url(#p.0)"><path fill="#000000" fill-opacity="0.0" d="m0 0l960.0 0l0 720.0l-960.0 0z" fill-rule="evenodd"/><path fill="#000000" fill-opacity="0.0" d="m227.81364 253.12599l771.74805 0l0 54.929123l-771.74805 0z" fill-rule="evenodd"/><path fill="#000000" d="m238.01677 269.75473l4.875 0q2.484375 0 3.625 1.15625q1.140625 1.15625 1.140625 3.5625l0 0.828125q0 1.578125 -0.515625 2.578125q-0.5 1.0 -1.5625 1.4375l0 0.0625q2.40625 0.8125 2.40625 4.28125l0 1.75q0 2.375 -1.25 3.625q-1.234375 1.25 -3.640625 1.25l-5.078125 0l0 -20.53125zm4.484375 8.359375q0.96875 0 1.453125 -0.5q0.484375 -0.5 0.484375 -1.671875l0 -1.140625q0 -1.109375 -0.40625 -1.609375q-0.390625 -0.5 -1.234375 -0.5l-1.5625 0l0 5.421875l1.265625 0zm0.59375 9.234375q0.84375 0 1.25 -0.453125q0.421875 -0.453125 0.421875 -1.5625l0 -1.796875q0 -1.40625 -0.484375 -1.9375q-0.484375 -0.546875 -1.609375 -0.546875l-1.4375 0l0 6.296875l1.859375 0zm9.2704315 -17.59375l4.359375 0l3.34375 20.53125l-3.21875 0l-0.59375 -4.078125l0 0.0625l-3.65625 0l-0.59375 4.015625l-2.984375 0l3.34375 -20.53125zm3.515625 13.734375l-1.4375 -10.15625l-0.0625 0l-1.40625 10.15625l2.90625 0zm6.911255 -10.796875l-3.359375 0l0 -2.9375l9.96875 0l0 2.9375l-3.375 0l0 17.59375l-3.234375 0l0 -17.59375zm10.96875 0l-3.359375 0l0 -2.9375l9.96875 0l0 2.9375l-3.375 0l0 17.59375l-3.234375 0l0 -17.59375zm8.159821 -2.9375l3.21875 0l0 17.59375l5.3125 0l0 2.9375l-8.53125 0l0 -20.53125zm10.088867 0l8.796875 0l0 2.9375l-5.578125 0l0 5.421875l4.4375 0l0 2.9375l-4.4375 0l0 6.296875l5.578125 0l0 2.9375l-8.796875 0l0 -20.53125z" fill-rule="nonzero"/></g></svg>