<svg version="1.1" xmlns="http://www.w3.org/2000/svg" xmlns:xlink="http://www.w3.org/1999/xlink" width="720" height="540" viewBox="0,0,720,540"><defs><clipPath id="clip-1"><rect x="-240" y="-180" transform="scale(0.5,0.5)" width="1440" height="1080" fill="none" fill-rule="nonzero" stroke-width="0.5" stroke-linecap="butt"/></clipPath></defs><g transform="translate(120,90)"><g clip-path="url(#clip-1)" data-paper-data="{&quot;isPaintingLayer&quot;:true}" stroke="none" stroke-linejoin="miter" stroke-miterlimit="10" stroke-dasharray="" stroke-dashoffset="0" style="mix-blend-mode: normal"><path d="M-240,-180h960v720h-960z" fill-opacity="0" fill="#000000" fill-rule="evenodd" stroke-width="1" stroke-linecap="square"/><path d="M-185.15748,73.12599h842.3307v54.92912h-842.3307z" fill-opacity="0" fill="#000000" fill-rule="evenodd" stroke-width="1" stroke-linecap="square"/><path d="M84.98315,141.0516c0,-1.45833 0.23438,-2.70833 0.70313,-3.75c0.46875,-1.05208 1.3125,-2.21354 2.53125,-3.48437c1.1875,-1.27083 2.01042,-2.35417 2.46875,-3.25c0.45833,-0.90625 0.6875,-1.84896 0.6875,-2.82812c0,-0.875 -0.14062,-1.48437 -0.42187,-1.82812c-0.28125,-0.34375 -0.69792,-0.51562 -1.25,-0.51562c-1.11458,0 -1.67187,0.67708 -1.67187,2.03125v2.1875h-3.04687v-1.98437c0,-1.66667 0.41146,-2.94271 1.23438,-3.82812c0.82292,-0.89583 2.01563,-1.34375 3.57813,-1.34375c1.5625,0 2.75521,0.44792 3.57813,1.34375c0.82292,0.88542 1.23438,2.16146 1.23438,3.82813c0,1.25 -0.30208,2.47396 -0.90625,3.67188c-0.59375,1.1875 -1.61979,2.55208 -3.07812,4.09375c-0.95833,1.02083 -1.60417,1.84896 -1.9375,2.48438c-0.33333,0.63542 -0.5,1.3125 -0.5,2.03125v0.4375h6.125v2.9375h-9.32812zM101.4694,122.75473h3.21875v17.59375h5.3125v2.9375h-8.53125zM111.55827,122.75473h8.79688v2.9375h-5.57812v5.42188h4.4375v2.9375h-4.4375v6.29688h5.57813v2.9375h-8.79687zM122.20437,122.75473h8.53125v2.9375h-5.3125v5.71875h4.17188v2.9375h-4.17188v8.9375h-3.21875zM135.1022,125.69223h-3.35937v-2.9375h9.96875v2.9375h-3.375v17.59375h-3.23437z" fill="#000000" fill-rule="nonzero" stroke-width="1" stroke-linecap="square"/></g></g></svg>