<svg version="1.1" xmlns="http://www.w3.org/2000/svg" xmlns:xlink="http://www.w3.org/1999/xlink" width="195.77558" height="19.31025" viewBox="0,0,195.77558,19.31025"><defs><linearGradient x1="156.62876" y1="171.87086" x2="156.62876" y2="191.18111" gradientUnits="userSpaceOnUse" id="color-1"><stop offset="0" stop-color="#3a62a1"/><stop offset="1" stop-color="#163076"/></linearGradient></defs><g transform="translate(-75.63255,-171.87086)"><g data-paper-data="{&quot;isPaintingLayer&quot;:true}" stroke="none" stroke-linejoin="miter" stroke-miterlimit="10" stroke-dasharray="" stroke-dashoffset="0" style="mix-blend-mode: normal"><path d="M75.63255,173.43552c0,-0.75368 0.27299,-1.56466 1.58208,-1.56466l158.92686,0.2c0.62853,0 1.48345,1.00274 1.48345,1.36466v16.38093c0,0.75368 -0.07611,1.36466 -1.38506,1.36466c0,0 -101.39023,0 -129.32223,0c-1.54685,0 -3.13288,0 -4.72848,0c-12.21114,0 -24.9745,0 -24.9745,0c-1.3089,0 -1.58208,-0.61098 -1.58208,-1.36466z" fill="url(#color-1)" fill-rule="evenodd" stroke-width="2" stroke-linecap="square"/><text transform="translate(209.03359,183.65988) scale(0.29448,0.30499)" font-size="40" xml:space="preserve" fill="#ffffff" fill-rule="nonzero" stroke="none" stroke-width="1" stroke-linecap="butt" stroke-linejoin="miter" stroke-miterlimit="10" stroke-dasharray="" stroke-dashoffset="0" font-family="&quot;ヒラギノ角ゴ Pro W3&quot;, &quot;Hiragino Kaku Gothic Pro&quot;, Osaka, &quot;メイリオ&quot;, Meiryo, &quot;ＭＳ Ｐゴシック&quot;, &quot;MS PGothic&quot;" font-weight="normal" text-anchor="start" style="mix-blend-mode: normal"><tspan x="0" dy="0">20MB/45MB</tspan></text></g></g></svg>