<svg version="1.1" xmlns="http://www.w3.org/2000/svg" xmlns:xlink="http://www.w3.org/1999/xlink" width="960" height="720" viewBox="0,0,960,720"><defs><clipPath id="clip-1"><path d="M-240,-180h960v720h-960z" fill="none" fill-rule="nonzero"/></clipPath></defs><g transform="translate(240,180)"><g clip-path="url(#clip-1)" data-paper-data="{&quot;isPaintingLayer&quot;:true}" stroke="none" stroke-width="1" stroke-linecap="square" stroke-linejoin="miter" stroke-miterlimit="10" stroke-dasharray="" stroke-dashoffset="0" style="mix-blend-mode: normal"><path d="M-240,-180h960v720h-960z" fill-opacity="0" fill="#000000" fill-rule="evenodd"/><path d="M-185.15748,73.12599h842.3307v54.92912h-842.3307z" fill-opacity="0" fill="#000000" fill-rule="evenodd"/><path d="M99.7644,105.58286c-1.5625,0 -2.75521,-0.44271 -3.57812,-1.32812c-0.82292,-0.89583 -1.23437,-2.17708 -1.23437,-3.84375v-1.60937h3.0625v1.84375c0,1.33333 0.55729,2 1.67188,2c1.11458,0 1.67188,-0.66667 1.67188,-2v-4.59375c0,-1.35417 -0.55729,-2.03125 -1.67187,-2.03125c-1.11458,0 -1.67187,0.67708 -1.67187,2.03125v0.17188h-3.0625l0.59375,-11.46875h8.5v2.9375h-5.625l-0.26562,4.89063h0.0625c0.60417,-0.98958 1.53125,-1.48437 2.78125,-1.48437c1.17708,0 2.06771,0.40104 2.67188,1.20313c0.60417,0.79167 0.90625,1.95313 0.90625,3.48438v4.625c0,1.66667 -0.41146,2.94792 -1.23437,3.84375c-0.82292,0.88542 -2.01562,1.32813 -3.57812,1.32813zM107.8394,105.28598h-1.0625v-3.10937h3.10938v2.78125l-1.60937,3.84375h-1.5zM116.94683,105.58286c-1.58333,0 -2.79687,-0.44792 -3.64062,-1.34375c-0.83333,-0.90625 -1.25,-2.18229 -1.25,-3.82812v-10.78125c0,-1.64583 0.41667,-2.91667 1.25,-3.8125c0.84375,-0.90625 2.05729,-1.35937 3.64063,-1.35937c1.58333,0 2.79688,0.45313 3.64063,1.35938c0.84375,0.89583 1.26563,2.16667 1.26563,3.8125v10.78125c0,1.64583 -0.42187,2.92188 -1.26562,3.82813c-0.84375,0.89583 -2.05729,1.34375 -3.64062,1.34375zM116.94683,102.64536c1.11458,0 1.67188,-0.67187 1.67188,-2.01562v-11.20312c0,-1.35417 -0.55729,-2.03125 -1.67187,-2.03125c-1.11458,0 -1.67187,0.67708 -1.67187,2.03125v11.20313c0,1.34375 0.55729,2.01563 1.67188,2.01563zM128.67808,105.58286c-1.58333,0 -2.79687,-0.44792 -3.64062,-1.34375c-0.83333,-0.90625 -1.25,-2.18229 -1.25,-3.82812v-10.78125c0,-1.64583 0.41667,-2.91667 1.25,-3.8125c0.84375,-0.90625 2.05729,-1.35937 3.64063,-1.35937c1.58333,0 2.79688,0.45313 3.64063,1.35938c0.84375,0.89583 1.26563,2.16667 1.26563,3.8125v10.78125c0,1.64583 -0.42187,2.92188 -1.26562,3.82813c-0.84375,0.89583 -2.05729,1.34375 -3.64062,1.34375zM128.67808,102.64536c1.11458,0 1.67188,-0.67187 1.67188,-2.01562v-11.20312c0,-1.35417 -0.55729,-2.03125 -1.67187,-2.03125c-1.11458,0 -1.67187,0.67708 -1.67187,2.03125v11.20313c0,1.34375 0.55729,2.01563 1.67188,2.01563zM140.40933,105.58286c-1.58333,0 -2.79687,-0.44792 -3.64062,-1.34375c-0.83333,-0.90625 -1.25,-2.18229 -1.25,-3.82812v-10.78125c0,-1.64583 0.41667,-2.91667 1.25,-3.8125c0.84375,-0.90625 2.05729,-1.35937 3.64063,-1.35937c1.58333,0 2.79688,0.45313 3.64063,1.35938c0.84375,0.89583 1.26563,2.16667 1.26563,3.8125v10.78125c0,1.64583 -0.42187,2.92188 -1.26562,3.82813c-0.84375,0.89583 -2.05729,1.34375 -3.64062,1.34375zM140.40933,102.64536c1.11458,0 1.67188,-0.67187 1.67188,-2.01562v-11.20312c0,-1.35417 -0.55729,-2.03125 -1.67187,-2.03125c-1.11458,0 -1.67187,0.67708 -1.67187,2.03125v11.20313c0,1.34375 0.55729,2.01563 1.67188,2.01563z" fill="#ffffff" fill-rule="nonzero"/></g></g></svg>