<svg xmlns:xlink="http://www.w3.org/1999/xlink" xmlns="http://www.w3.org/2000/svg" version="1.1" viewBox="0.0 0.0 960.0 720.0" fill="none" stroke="none" stroke-linecap="square" stroke-miterlimit="10"><clipPath id="p.0"><path d="m0 0l960.0 0l0 720.0l-960.0 0l0 -720.0z" clip-rule="nonzero"/></clipPath><g clip-path="url(#p.0)"><path fill="#000000" fill-opacity="0.0" d="m0 0l960.0 0l0 720.0l-960.0 0z" fill-rule="evenodd"/><path fill="#000000" fill-opacity="0.0" d="m265.78217 253.12599l733.7638 0l0 54.929123l-733.7638 0z" fill-rule="evenodd"/><path fill="#000000" d="m280.56342 290.58286q-2.375 0 -3.59375 -1.3125q-1.21875 -1.328125 -1.21875 -3.796875l0 -1.671875l3.046875 0l0 1.828125q0 2.015625 1.671875 2.015625q0.828125 0 1.25 -0.515625q0.421875 -0.515625 0.421875 -1.796875l0 -1.671875q0 -1.40625 -0.5 -2.0q-0.5 -0.609375 -1.609375 -0.609375l-1.078125 0l0 -2.9375l1.171875 0q0.96875 0 1.4375 -0.5q0.484375 -0.5 0.484375 -1.671875l0 -1.5q0 -1.046875 -0.4375 -1.546875q-0.4375 -0.5 -1.171875 -0.5q-1.546875 0 -1.546875 1.90625l0 1.34375l-3.046875 0l0 -1.078125q0 -2.46875 1.203125 -3.78125q1.21875 -1.328125 3.515625 -1.328125q2.3125 0 3.515625 1.3125q1.203125 1.296875 1.203125 3.765625l0 0.734375q0 1.671875 -0.5625 2.6875q-0.546875 1.0 -1.71875 1.453125l0 0.046875q1.25 0.46875 1.8125 1.53125q0.5625 1.0625 0.5625 2.703125l0 1.8125q0 2.46875 -1.21875 3.78125q-1.21875 1.296875 -3.59375 1.296875z" fill-rule="nonzero"/></g></svg>