<svg version="1.1" xmlns="http://www.w3.org/2000/svg" xmlns:xlink="http://www.w3.org/1999/xlink" width="323.25903" height="19.31025" viewBox="0,0,323.25903,19.31025"><defs><linearGradient x1="237.2621" y1="171.87086" x2="237.2621" y2="191.18111" gradientUnits="userSpaceOnUse" id="color-1"><stop offset="0" stop-color="#3a62a1"/><stop offset="1" stop-color="#163076"/></linearGradient></defs><g transform="translate(-75.63255,-171.87086)"><g data-paper-data="{&quot;isPaintingLayer&quot;:true}" stroke="none" stroke-linejoin="miter" stroke-miterlimit="10" stroke-dasharray="" stroke-dashoffset="0" style="mix-blend-mode: normal"><path d="M75.63255,173.43552c0,-0.75368 0.54476,-1.56466 3.15705,-1.56466l317.14173,0.2c1.25423,0 2.96026,1.00274 2.96026,1.36466v16.38093c0,0.75368 -0.15189,1.36466 -2.7639,1.36466c0,0 -202.32624,0 -258.06508,0c-3.08673,0 -6.25172,0 -9.43578,0c-24.36761,0 -49.8371,0 -49.8371,0c-2.61192,0 -3.15705,-0.61098 -3.15705,-1.36466z" fill="url(#color-1)" fill-rule="evenodd" stroke-width="2" stroke-linecap="square"/><text transform="translate(209.03359,183.65988) scale(0.29448,0.30499)" font-size="40" xml:space="preserve" fill="#ffffff" fill-rule="nonzero" stroke="none" stroke-width="1" stroke-linecap="butt" stroke-linejoin="miter" stroke-miterlimit="10" stroke-dasharray="" stroke-dashoffset="0" font-family="&quot;ヒラギノ角ゴ Pro W3&quot;, &quot;Hiragino Kaku Gothic Pro&quot;, Osaka, &quot;メイリオ&quot;, Meiryo, &quot;ＭＳ Ｐゴシック&quot;, &quot;MS PGothic&quot;" font-weight="normal" text-anchor="start" style="mix-blend-mode: normal"><tspan x="0" dy="0">43MB/45MB</tspan></text></g></g></svg>