<svg xmlns:xlink="http://www.w3.org/1999/xlink" xmlns="http://www.w3.org/2000/svg" version="1.1" viewBox="0.0 0.0 960.0 720.0" fill="none" stroke="none" stroke-linecap="square" stroke-miterlimit="10"><clipPath id="p.0"><path d="m0 0l960.0 0l0 720.0l-960.0 0l0 -720.0z" clip-rule="nonzero"/></clipPath><g clip-path="url(#p.0)"><path fill="#000000" fill-opacity="0.0" d="m0 0l960.0 0l0 720.0l-960.0 0z" fill-rule="evenodd"/><path fill="#000000" fill-opacity="0.0" d="m54.842518 253.12599l842.3307 0l0 54.929123l-842.3307 0z" fill-rule="evenodd"/><path fill="#000000" d="m65.04565 269.75473l3.21875 0l0 17.59375l5.3125 0l0 2.9375l-8.53125 0l0 -20.53125zm10.088867 0l8.796875 0l0 2.9375l-5.578125 0l0 5.421875l4.4375 0l0 2.9375l-4.4375 0l0 6.296875l5.578125 0l0 2.9375l-8.796875 0l0 -20.53125zm9.802353 0l3.25 0l2.109375 15.921875l0.0625 0l2.109375 -15.921875l2.953125 0l-3.09375 20.53125l-4.296875 0l-3.09375 -20.53125zm12.047089 0l8.796875 0l0 2.9375l-5.578125 0l0 5.421875l4.4375 0l0 2.9375l-4.4375 0l0 6.296875l5.578125 0l0 2.9375l-8.796875 0l0 -20.53125zm10.646103 0l3.21875 0l0 17.59375l5.3125 0l0 2.9375l-8.53125 0l0 -20.53125zm19.296997 4.875l-3.375 0l0 -2.296875q1.375 0 2.203125 -0.234375q0.84375 -0.234375 1.34375 -0.765625q0.5 -0.546875 0.890625 -1.578125l2.1562424 0l0 20.53125l-3.2187424 0l0 -15.65625zm11.871864 15.953125q-2.375 0 -3.640625 -1.34375q-1.25 -1.359375 -1.25 -3.828125l0 -10.78125q0 -2.46875 1.25 -3.8125q1.265625 -1.359375 3.640625 -1.359375q2.375 0 3.640625 1.359375q1.265625 1.34375 1.265625 3.8125l0 10.78125q0 2.46875 -1.265625 3.828125q-1.265625 1.34375 -3.640625 1.34375zm0 -2.9375q1.671875 0 1.671875 -2.015625l0 -11.203125q0 -2.03125 -1.671875 -2.03125q-1.671875 0 -1.671875 2.03125l0 11.203125q0 2.015625 1.671875 2.015625z" fill-rule="nonzero"/></g></svg>